<?xml version="1.0" encoding="UTF-8" standalone="no"?>
<!DOCTYPE svg PUBLIC "-//W3C//DTD SVG 1.1//EN"
 "http://www.w3.org/Graphics/SVG/1.1/DTD/svg11.dtd">
<!-- Generated by graphviz version 2.43.0 (0)
 -->
<!-- Title: %3 Pages: 1 -->
<svg width="1164pt" height="1565pt"
 viewBox="0.00 0.00 1164.24 1565.09" xmlns="http://www.w3.org/2000/svg" xmlns:xlink="http://www.w3.org/1999/xlink">
<g id="graph0" class="graph" transform="scale(1 1) rotate(0) translate(4 1561.09)">
<title>%3</title>
<polygon fill="white" stroke="transparent" points="-4,4 -4,-1561.09 1160.24,-1561.09 1160.24,4 -4,4"/>
<g id="clust1" class="cluster">
<title>cluster_adb_group</title>
<polygon fill="none" stroke="black" points="561.08,-952.09 561.08,-1081.09 743.46,-1081.09 743.46,-952.09 561.08,-952.09"/>
<text text-anchor="middle" x="652.27" y="-1065.89" font-family="Times,serif" font-size="14.00">ADB</text>
</g>
<g id="clust2" class="cluster">
<title>cluster_bluetooth_group</title>
<polygon fill="none" stroke="black" points="587.73,-761.09 587.73,-944.09 923.1,-944.09 923.1,-761.09 587.73,-761.09"/>
<text text-anchor="middle" x="755.41" y="-928.89" font-family="Times,serif" font-size="14.00">Bluetooth</text>
</g>
<g id="clust3" class="cluster">
<title>cluster_nfc_group</title>
<polygon fill="none" stroke="black" points="583.18,-594.09 583.18,-723.09 974.45,-723.09 974.45,-594.09 583.18,-594.09"/>
<text text-anchor="middle" x="778.81" y="-707.89" font-family="Times,serif" font-size="14.00">NFC</text>
</g>
<g id="clust4" class="cluster">
<title>cluster_vmm_group</title>
<polygon fill="none" stroke="black" points="617.27,-319.09 617.27,-556.09 1148.24,-556.09 1148.24,-319.09 617.27,-319.09"/>
<text text-anchor="middle" x="882.75" y="-540.89" font-family="Times,serif" font-size="14.00">VMM</text>
</g>
<g id="clust5" class="cluster">
<title>cluster_webrtc_group</title>
<polygon fill="none" stroke="black" points="579.28,-182.09 579.28,-311.09 725.27,-311.09 725.27,-182.09 579.28,-182.09"/>
<text text-anchor="middle" x="652.27" y="-295.89" font-family="Times,serif" font-size="14.00">WebRTC</text>
</g>
<g id="clust6" class="cluster">
<title>cluster_wifi_group</title>
<polygon fill="none" stroke="black" points="607.88,-36.09 607.88,-165.09 954.95,-165.09 954.95,-36.09 607.88,-36.09"/>
<text text-anchor="middle" x="781.41" y="-149.89" font-family="Times,serif" font-size="14.00">Wifi</text>
</g>
<!-- config_server -->
<g id="node1" class="node">
<title>config_server</title>
<ellipse fill="none" stroke="black" cx="652.27" cy="-1539.09" rx="59.29" ry="18"/>
<text text-anchor="middle" x="652.27" y="-1535.39" font-family="Times,serif" font-size="14.00">config_server</text>
</g>
<!-- console_forwarder -->
<g id="node2" class="node">
<title>console_forwarder</title>
<ellipse fill="none" stroke="black" cx="652.27" cy="-1485.09" rx="76.89" ry="18"/>
<text text-anchor="middle" x="652.27" y="-1481.39" font-family="Times,serif" font-size="14.00">console_forwarder</text>
</g>
<!-- cvd -->
<g id="node3" class="node">
<title>cvd</title>
<ellipse fill="none" stroke="black" cx="27" cy="-868.09" rx="27" ry="18"/>
<text text-anchor="middle" x="27" y="-864.39" font-family="Times,serif" font-size="14.00">cvd</text>
</g>
<!-- cvd_status -->
<g id="node4" class="node">
<title>cvd_status</title>
<ellipse fill="none" stroke="black" cx="157.59" cy="-976.09" rx="48.19" ry="18"/>
<text text-anchor="middle" x="157.59" y="-972.39" font-family="Times,serif" font-size="14.00">cvd_status</text>
</g>
<!-- cvd&#45;&gt;cvd_status -->
<g id="edge1" class="edge">
<title>cvd&#45;&gt;cvd_status</title>
<path fill="none" stroke="black" d="M37.12,-884.8C47.72,-902.84 66.76,-931.37 90,-949.09 96,-953.66 102.89,-957.58 109.9,-960.9"/>
<polygon fill="black" stroke="black" points="108.91,-964.29 119.48,-965.06 111.7,-957.87 108.91,-964.29"/>
</g>
<!-- launch_cvd -->
<g id="node7" class="node">
<title>launch_cvd</title>
<ellipse fill="none" stroke="black" cx="157.59" cy="-760.09" rx="51.19" ry="18"/>
<text text-anchor="middle" x="157.59" y="-756.39" font-family="Times,serif" font-size="14.00">launch_cvd</text>
</g>
<!-- cvd&#45;&gt;launch_cvd -->
<g id="edge2" class="edge">
<title>cvd&#45;&gt;launch_cvd</title>
<path fill="none" stroke="black" d="M37.12,-851.37C47.72,-833.33 66.76,-804.8 90,-787.09 95.73,-782.72 102.26,-778.95 108.95,-775.73"/>
<polygon fill="black" stroke="black" points="110.37,-778.92 118.09,-771.67 107.53,-772.52 110.37,-778.92"/>
</g>
<!-- powerwash_cvd -->
<g id="node12" class="node">
<title>powerwash_cvd</title>
<ellipse fill="none" stroke="black" cx="157.59" cy="-922.09" rx="67.69" ry="18"/>
<text text-anchor="middle" x="157.59" y="-918.39" font-family="Times,serif" font-size="14.00">powerwash_cvd</text>
</g>
<!-- cvd&#45;&gt;powerwash_cvd -->
<g id="edge3" class="edge">
<title>cvd&#45;&gt;powerwash_cvd</title>
<path fill="none" stroke="black" d="M50.04,-877.84C61.86,-883.04 76.69,-889.49 90,-895.09 96.34,-897.75 103.03,-900.52 109.63,-903.22"/>
<polygon fill="black" stroke="black" points="108.61,-906.58 119.19,-907.12 111.25,-900.1 108.61,-906.58"/>
</g>
<!-- restart_cvd -->
<g id="node13" class="node">
<title>restart_cvd</title>
<ellipse fill="none" stroke="black" cx="157.59" cy="-868.09" rx="50.09" ry="18"/>
<text text-anchor="middle" x="157.59" y="-864.39" font-family="Times,serif" font-size="14.00">restart_cvd</text>
</g>
<!-- cvd&#45;&gt;restart_cvd -->
<g id="edge4" class="edge">
<title>cvd&#45;&gt;restart_cvd</title>
<path fill="none" stroke="black" d="M54.02,-868.09C66.49,-868.09 81.96,-868.09 97.09,-868.09"/>
<polygon fill="black" stroke="black" points="97.46,-871.59 107.46,-868.09 97.46,-864.59 97.46,-871.59"/>
</g>
<!-- stop_cvd -->
<g id="node18" class="node">
<title>stop_cvd</title>
<ellipse fill="none" stroke="black" cx="157.59" cy="-814.09" rx="42.49" ry="18"/>
<text text-anchor="middle" x="157.59" y="-810.39" font-family="Times,serif" font-size="14.00">stop_cvd</text>
</g>
<!-- cvd&#45;&gt;stop_cvd -->
<g id="edge5" class="edge">
<title>cvd&#45;&gt;stop_cvd</title>
<path fill="none" stroke="black" d="M50.04,-858.33C61.86,-853.13 76.69,-846.68 90,-841.09 98.61,-837.46 107.89,-833.65 116.7,-830.07"/>
<polygon fill="black" stroke="black" points="118.07,-833.29 126.03,-826.29 115.44,-826.8 118.07,-833.29"/>
</g>
<!-- launcher_monitor_socket -->
<g id="node8" class="node">
<title>launcher_monitor_socket</title>
<polygon fill="none" stroke="black" points="402.19,-886.09 261.19,-886.09 261.19,-850.09 402.19,-850.09 402.19,-886.09"/>
<text text-anchor="middle" x="331.69" y="-864.39" font-family="Times,serif" font-size="14.00">launcher_monitor.sock</text>
</g>
<!-- cvd_status&#45;&gt;launcher_monitor_socket -->
<g id="edge9" class="edge">
<title>cvd_status&#45;&gt;launcher_monitor_socket</title>
<path fill="none" stroke="black" d="M203.1,-960C210.64,-956.72 218.26,-953.05 225.19,-949.09 253.32,-932.98 282.32,-910.18 302.78,-892.88"/>
<polygon fill="black" stroke="black" points="201.54,-956.85 193.65,-963.92 204.23,-963.32 201.54,-956.85"/>
<polygon fill="black" stroke="black" points="305.13,-895.47 310.45,-886.3 300.58,-890.15 305.13,-895.47"/>
</g>
<!-- gnss_grpc_proxy -->
<g id="node5" class="node">
<title>gnss_grpc_proxy</title>
<ellipse fill="none" stroke="black" cx="652.27" cy="-1431.09" rx="71.49" ry="18"/>
<text text-anchor="middle" x="652.27" y="-1427.39" font-family="Times,serif" font-size="14.00">gnss_grpc_proxy</text>
</g>
<!-- kernel_log_monitor -->
<g id="node6" class="node">
<title>kernel_log_monitor</title>
<ellipse fill="none" stroke="black" cx="652.27" cy="-1377.09" rx="81.49" ry="18"/>
<text text-anchor="middle" x="652.27" y="-1373.39" font-family="Times,serif" font-size="14.00">kernel_log_monitor</text>
</g>
<!-- run_cvd -->
<g id="node14" class="node">
<title>run_cvd</title>
<ellipse fill="none" stroke="black" stroke-width="2" cx="485.63" cy="-841.09" rx="47.39" ry="18"/>
<text text-anchor="start" x="457.13" y="-838.39" font-family="Times,serif" font-size="14.00"> </text>
<text text-anchor="start" x="461.13" y="-838.39" font-family="Times,serif" font-weight="bold" font-size="14.00">run_cvd</text>
<text text-anchor="start" x="510.13" y="-838.39" font-family="Times,serif" font-size="14.00"> </text>
</g>
<!-- launch_cvd&#45;&gt;run_cvd -->
<g id="edge6" class="edge">
<title>launch_cvd&#45;&gt;run_cvd</title>
<path fill="none" stroke="black" d="M195.93,-772.09C215.3,-778.13 239.41,-785.37 261.19,-791.09 319.81,-806.48 387.86,-821.27 433.32,-830.72"/>
<polygon fill="black" stroke="black" points="432.73,-834.17 443.23,-832.77 434.15,-827.32 432.73,-834.17"/>
</g>
<!-- run_cvd_2 -->
<g id="node15" class="node">
<title>run_cvd_2</title>
<ellipse fill="none" stroke="black" stroke-dasharray="5,2" cx="331.69" cy="-764.09" rx="39.79" ry="18"/>
<text text-anchor="middle" x="331.69" y="-760.39" font-family="Times,serif" font-size="14.00">run_cvd</text>
</g>
<!-- launch_cvd&#45;&gt;run_cvd_2 -->
<g id="edge7" class="edge">
<title>launch_cvd&#45;&gt;run_cvd_2</title>
<path fill="none" stroke="black" stroke-dasharray="5,2" d="M208.83,-761.25C231.8,-761.79 258.92,-762.42 281.73,-762.95"/>
<polygon fill="black" stroke="black" points="281.8,-766.45 291.88,-763.18 281.97,-759.45 281.8,-766.45"/>
</g>
<!-- run_cvd_etc -->
<g id="node16" class="node">
<title>run_cvd_etc</title>
<ellipse fill="none" stroke="black" stroke-dasharray="5,2" cx="331.69" cy="-710.09" rx="27" ry="18"/>
<text text-anchor="middle" x="331.69" y="-706.39" font-family="Times,serif" font-size="14.00">...</text>
</g>
<!-- launch_cvd&#45;&gt;run_cvd_etc -->
<g id="edge8" class="edge">
<title>launch_cvd&#45;&gt;run_cvd_etc</title>
<path fill="none" stroke="black" stroke-dasharray="5,2" d="M197.64,-748.74C227.5,-740.07 268.24,-728.23 296.74,-719.95"/>
<polygon fill="black" stroke="black" points="298.02,-723.22 306.65,-717.07 296.07,-716.5 298.02,-723.22"/>
</g>
<!-- launcher_monitor_socket&#45;&gt;run_cvd -->
<g id="edge13" class="edge">
<title>launcher_monitor_socket&#45;&gt;run_cvd</title>
<path fill="none" stroke="black" d="M412.32,-853.94C419.08,-852.73 425.81,-851.54 432.28,-850.39"/>
<polygon fill="black" stroke="black" points="411.67,-850.5 402.43,-855.69 412.89,-857.39 411.67,-850.5"/>
<polygon fill="black" stroke="black" points="432.98,-853.82 442.21,-848.62 431.75,-846.93 432.98,-853.82"/>
</g>
<!-- logcat_receiver -->
<g id="node9" class="node">
<title>logcat_receiver</title>
<ellipse fill="none" stroke="black" cx="652.27" cy="-1323.09" rx="64.99" ry="18"/>
<text text-anchor="middle" x="652.27" y="-1319.39" font-family="Times,serif" font-size="14.00">logcat_receiver</text>
</g>
<!-- metrics -->
<g id="node10" class="node">
<title>metrics</title>
<ellipse fill="none" stroke="black" cx="652.27" cy="-1269.09" rx="37.09" ry="18"/>
<text text-anchor="middle" x="652.27" y="-1265.39" font-family="Times,serif" font-size="14.00">metrics</text>
</g>
<!-- modem_simulator -->
<g id="node11" class="node">
<title>modem_simulator</title>
<ellipse fill="none" stroke="black" cx="652.27" cy="-1215.09" rx="76.09" ry="18"/>
<text text-anchor="middle" x="652.27" y="-1211.39" font-family="Times,serif" font-size="14.00">modem_simulator</text>
</g>
<!-- powerwash_cvd&#45;&gt;launcher_monitor_socket -->
<g id="edge10" class="edge">
<title>powerwash_cvd&#45;&gt;launcher_monitor_socket</title>
<path fill="none" stroke="black" d="M211.67,-905.43C227.99,-900.31 246.18,-894.6 263.33,-889.22"/>
<polygon fill="black" stroke="black" points="210.51,-902.13 202.02,-908.46 212.61,-908.8 210.51,-902.13"/>
<polygon fill="black" stroke="black" points="264.79,-892.43 273.29,-886.1 262.7,-885.75 264.79,-892.43"/>
</g>
<!-- restart_cvd&#45;&gt;launcher_monitor_socket -->
<g id="edge11" class="edge">
<title>restart_cvd&#45;&gt;launcher_monitor_socket</title>
<path fill="none" stroke="black" d="M218.27,-868.09C228.86,-868.09 240.05,-868.09 251.09,-868.09"/>
<polygon fill="black" stroke="black" points="217.91,-864.59 207.91,-868.09 217.91,-871.59 217.91,-864.59"/>
<polygon fill="black" stroke="black" points="251.17,-871.59 261.17,-868.09 251.17,-864.59 251.17,-871.59"/>
</g>
<!-- run_cvd&#45;&gt;config_server -->
<g id="edge16" class="edge">
<title>run_cvd&#45;&gt;config_server</title>
<path fill="none" stroke="black" d="M487.46,-859.17C492.27,-961.04 517.96,-1460.39 561.08,-1512.09 567.82,-1520.17 576.88,-1525.9 586.67,-1529.94"/>
<polygon fill="black" stroke="black" points="585.62,-1533.28 596.22,-1533.32 587.96,-1526.68 585.62,-1533.28"/>
</g>
<!-- run_cvd&#45;&gt;console_forwarder -->
<g id="edge17" class="edge">
<title>run_cvd&#45;&gt;console_forwarder</title>
<path fill="none" stroke="black" stroke-dasharray="5,2" d="M486.25,-859.14C484.68,-950.83 482.1,-1364.32 561.08,-1458.09 565.61,-1463.46 571.16,-1467.79 577.26,-1471.28"/>
<polygon fill="black" stroke="black" points="576.02,-1474.57 586.54,-1475.81 579.09,-1468.28 576.02,-1474.57"/>
</g>
<!-- run_cvd&#45;&gt;gnss_grpc_proxy -->
<g id="edge21" class="edge">
<title>run_cvd&#45;&gt;gnss_grpc_proxy</title>
<path fill="none" stroke="black" stroke-dasharray="5,2" d="M486.48,-859.26C486.13,-946.26 488.9,-1319.38 561.08,-1404.09 566.22,-1410.12 572.66,-1414.84 579.7,-1418.52"/>
<polygon fill="black" stroke="black" points="578.36,-1421.75 588.91,-1422.65 581.22,-1415.37 578.36,-1421.75"/>
</g>
<!-- run_cvd&#45;&gt;kernel_log_monitor -->
<g id="edge22" class="edge">
<title>run_cvd&#45;&gt;kernel_log_monitor</title>
<path fill="none" stroke="black" d="M486.76,-859.14C487.72,-940.72 495.61,-1274.31 561.08,-1350.09 565.29,-1354.96 570.33,-1358.97 575.86,-1362.27"/>
<polygon fill="black" stroke="black" points="574.4,-1365.45 584.9,-1366.89 577.59,-1359.22 574.4,-1365.45"/>
</g>
<!-- run_cvd&#45;&gt;logcat_receiver -->
<g id="edge23" class="edge">
<title>run_cvd&#45;&gt;logcat_receiver</title>
<path fill="none" stroke="black" d="M487.11,-859.24C489.49,-935.53 502.36,-1229.28 561.08,-1296.09 567.04,-1302.86 574.62,-1307.98 582.85,-1311.82"/>
<polygon fill="black" stroke="black" points="581.79,-1315.17 592.37,-1315.65 584.4,-1308.67 581.79,-1315.17"/>
</g>
<!-- run_cvd&#45;&gt;metrics -->
<g id="edge24" class="edge">
<title>run_cvd&#45;&gt;metrics</title>
<path fill="none" stroke="black" d="M487.55,-859.21C491.46,-929.64 509.04,-1184.14 561.08,-1242.09 572.38,-1254.67 589.29,-1261.5 605.43,-1265.16"/>
<polygon fill="black" stroke="black" points="604.83,-1268.61 615.31,-1267.05 606.15,-1261.73 604.83,-1268.61"/>
</g>
<!-- run_cvd&#45;&gt;modem_simulator -->
<g id="edge25" class="edge">
<title>run_cvd&#45;&gt;modem_simulator</title>
<path fill="none" stroke="black" d="M488.13,-859.37C493.77,-923.79 515.73,-1138.97 561.08,-1188.09 566.04,-1193.45 572.01,-1197.77 578.49,-1201.24"/>
<polygon fill="black" stroke="black" points="577.06,-1204.43 587.61,-1205.46 580.01,-1198.08 577.06,-1204.43"/>
</g>
<!-- secure_env -->
<g id="node17" class="node">
<title>secure_env</title>
<ellipse fill="none" stroke="black" cx="652.27" cy="-1161.09" rx="50.09" ry="18"/>
<text text-anchor="middle" x="652.27" y="-1157.39" font-family="Times,serif" font-size="14.00">secure_env</text>
</g>
<!-- run_cvd&#45;&gt;secure_env -->
<g id="edge35" class="edge">
<title>run_cvd&#45;&gt;secure_env</title>
<path fill="none" stroke="black" d="M488.9,-859.29C496.43,-916.87 522.3,-1093.64 561.08,-1134.09 569.92,-1143.3 581.76,-1149.41 593.95,-1153.44"/>
<polygon fill="black" stroke="black" points="593.17,-1156.86 603.75,-1156.26 595.1,-1150.13 593.17,-1156.86"/>
</g>
<!-- tombstone_receiver -->
<g id="node19" class="node">
<title>tombstone_receiver</title>
<ellipse fill="none" stroke="black" cx="652.27" cy="-1107.09" rx="80.69" ry="18"/>
<text text-anchor="middle" x="652.27" y="-1103.39" font-family="Times,serif" font-size="14.00">tombstone_receiver</text>
</g>
<!-- run_cvd&#45;&gt;tombstone_receiver -->
<g id="edge37" class="edge">
<title>run_cvd&#45;&gt;tombstone_receiver</title>
<path fill="none" stroke="black" d="M486.47,-859.19C487.08,-904.36 495.24,-1022.89 561.08,-1085.09 564.63,-1088.44 568.6,-1091.3 572.84,-1093.75"/>
<polygon fill="black" stroke="black" points="571.37,-1096.93 581.89,-1098.22 574.47,-1090.65 571.37,-1096.93"/>
</g>
<!-- adb_connector -->
<g id="node20" class="node">
<title>adb_connector</title>
<ellipse fill="none" stroke="black" cx="652.27" cy="-1032.09" rx="62.29" ry="18"/>
<text text-anchor="middle" x="652.27" y="-1028.39" font-family="Times,serif" font-size="14.00">adb_connector</text>
</g>
<!-- run_cvd&#45;&gt;adb_connector -->
<g id="edge14" class="edge">
<title>run_cvd&#45;&gt;adb_connector</title>
<path fill="none" stroke="black" stroke-dasharray="5,2" d="M489.73,-859.04C496.49,-892.71 515.74,-965.5 561.08,-1005.09 568.56,-1011.62 577.57,-1016.57 586.96,-1020.32"/>
<polygon fill="black" stroke="black" points="585.84,-1023.64 596.44,-1023.69 588.19,-1017.04 585.84,-1023.64"/>
</g>
<!-- socket_vsock_proxy -->
<g id="node21" class="node">
<title>socket_vsock_proxy</title>
<ellipse fill="none" stroke="black" cx="652.27" cy="-978.09" rx="83.39" ry="18"/>
<text text-anchor="middle" x="652.27" y="-974.39" font-family="Times,serif" font-size="14.00">socket_vsock_proxy</text>
</g>
<!-- run_cvd&#45;&gt;socket_vsock_proxy -->
<g id="edge36" class="edge">
<title>run_cvd&#45;&gt;socket_vsock_proxy</title>
<path fill="none" stroke="black" stroke-dasharray="5,2" d="M494.55,-858.92C505.96,-882.6 529.18,-924.24 561.08,-948.09 568.09,-953.33 576.07,-957.68 584.31,-961.3"/>
<polygon fill="black" stroke="black" points="583.11,-964.59 593.69,-965.07 585.72,-958.09 583.11,-964.59"/>
</g>
<!-- bt_connector -->
<g id="node22" class="node">
<title>bt_connector</title>
<ellipse fill="none" stroke="black" cx="652.27" cy="-895.09" rx="56.59" ry="18"/>
<text text-anchor="middle" x="652.27" y="-891.39" font-family="Times,serif" font-size="14.00">bt_connector</text>
</g>
<!-- run_cvd&#45;&gt;bt_connector -->
<g id="edge15" class="edge">
<title>run_cvd&#45;&gt;bt_connector</title>
<path fill="none" stroke="black" stroke-dasharray="5,2" d="M519.85,-853.59C532.67,-858.3 547.5,-863.6 561.08,-868.09 573.45,-872.18 586.86,-876.34 599.46,-880.13"/>
<polygon fill="black" stroke="black" points="598.77,-883.57 609.36,-883.08 600.77,-876.87 598.77,-883.57"/>
</g>
<!-- netsim -->
<g id="node23" class="node">
<title>netsim</title>
<ellipse fill="none" stroke="black" cx="652.27" cy="-841.09" rx="34.39" ry="18"/>
<text text-anchor="middle" x="652.27" y="-837.39" font-family="Times,serif" font-size="14.00">netsim</text>
</g>
<!-- run_cvd&#45;&gt;netsim -->
<g id="edge26" class="edge">
<title>run_cvd&#45;&gt;netsim</title>
<path fill="none" stroke="black" stroke-dasharray="5,2" d="M533.37,-841.09C556.7,-841.09 584.76,-841.09 607.64,-841.09"/>
<polygon fill="black" stroke="black" points="607.76,-844.59 617.76,-841.09 607.76,-837.59 607.76,-844.59"/>
</g>
<!-- root_canal -->
<g id="node24" class="node">
<title>root_canal</title>
<ellipse fill="none" stroke="black" cx="868.96" cy="-787.09" rx="46.29" ry="18"/>
<text text-anchor="middle" x="868.96" y="-783.39" font-family="Times,serif" font-size="14.00">root&#45;canal</text>
</g>
<!-- run_cvd&#45;&gt;root_canal -->
<g id="edge28" class="edge">
<title>run_cvd&#45;&gt;root_canal</title>
<path fill="none" stroke="black" stroke-dasharray="5,2" d="M496.56,-823.53C508.82,-803.84 531.7,-772.99 561.08,-760.09 649.22,-721.38 765.11,-750.45 826.16,-771.12"/>
<polygon fill="black" stroke="black" points="825.24,-774.5 835.83,-774.48 827.54,-767.89 825.24,-774.5"/>
</g>
<!-- root_canal_log_tee -->
<g id="node25" class="node">
<title>root_canal_log_tee</title>
<ellipse fill="none" stroke="black" cx="652.27" cy="-787.09" rx="36.29" ry="18"/>
<text text-anchor="middle" x="652.27" y="-783.39" font-family="Times,serif" font-size="14.00">log_tee</text>
</g>
<!-- run_cvd&#45;&gt;root_canal_log_tee -->
<g id="edge29" class="edge">
<title>run_cvd&#45;&gt;root_canal_log_tee</title>
<path fill="none" stroke="black" stroke-dasharray="5,2" d="M519.85,-828.58C532.67,-823.87 547.5,-818.58 561.08,-814.09 577.12,-808.78 594.91,-803.36 610.42,-798.78"/>
<polygon fill="black" stroke="black" points="611.63,-802.07 620.25,-795.9 609.67,-795.35 611.63,-802.07"/>
</g>
<!-- nfc_connector -->
<g id="node26" class="node">
<title>nfc_connector</title>
<ellipse fill="none" stroke="black" cx="652.27" cy="-674.09" rx="61.19" ry="18"/>
<text text-anchor="middle" x="652.27" y="-670.39" font-family="Times,serif" font-size="14.00">nfc_connector</text>
</g>
<!-- run_cvd&#45;&gt;nfc_connector -->
<g id="edge31" class="edge">
<title>run_cvd&#45;&gt;nfc_connector</title>
<path fill="none" stroke="black" stroke-dasharray="5,2" d="M495.08,-823.06C507.08,-798.92 530.98,-755.8 561.08,-727.09 574.92,-713.88 592.64,-702.57 608.7,-693.83"/>
<polygon fill="black" stroke="black" points="610.7,-696.74 617.93,-688.99 607.45,-690.54 610.7,-696.74"/>
</g>
<!-- casimir -->
<g id="node27" class="node">
<title>casimir</title>
<ellipse fill="none" stroke="black" cx="868.96" cy="-620.09" rx="97.48" ry="18"/>
<text text-anchor="middle" x="868.96" y="-616.39" font-family="Times,serif" font-size="14.00">casimir (NFC rootcanal)</text>
</g>
<!-- run_cvd&#45;&gt;casimir -->
<g id="edge32" class="edge">
<title>run_cvd&#45;&gt;casimir</title>
<path fill="none" stroke="black" stroke-dasharray="5,2" d="M489.26,-823.04C497.25,-770.8 523.12,-621.33 561.08,-593.09 638.43,-535.55 758.99,-572.42 823.56,-599.28"/>
<polygon fill="black" stroke="black" points="822.48,-602.62 833.05,-603.32 825.23,-596.18 822.48,-602.62"/>
</g>
<!-- casimir_log_tee -->
<g id="node28" class="node">
<title>casimir_log_tee</title>
<ellipse fill="none" stroke="black" cx="652.27" cy="-620.09" rx="36.29" ry="18"/>
<text text-anchor="middle" x="652.27" y="-616.39" font-family="Times,serif" font-size="14.00">log_tee</text>
</g>
<!-- run_cvd&#45;&gt;casimir_log_tee -->
<g id="edge33" class="edge">
<title>run_cvd&#45;&gt;casimir_log_tee</title>
<path fill="none" stroke="black" stroke-dasharray="5,2" d="M488.33,-822.91C492.89,-784.69 508.83,-695.53 561.08,-647.09 573.37,-635.69 590.28,-629.09 606.15,-625.28"/>
<polygon fill="black" stroke="black" points="607.28,-628.61 616.36,-623.15 605.86,-621.76 607.28,-628.61"/>
</g>
<!-- vmm -->
<g id="node34" class="node">
<title>vmm</title>
<polygon fill="none" stroke="black" points="652.27,-471.09 625.27,-453.09 652.27,-435.09 679.27,-453.09 652.27,-471.09"/>
</g>
<!-- run_cvd&#45;&gt;vmm -->
<g id="edge38" class="edge">
<title>run_cvd&#45;&gt;vmm</title>
<path fill="none" stroke="black" d="M488.64,-823C494.32,-776.85 513.33,-651.87 561.08,-560.09 579.69,-524.31 612.08,-489.95 632.56,-470.21"/>
<polygon fill="black" stroke="black" points="635.16,-472.56 640.02,-463.15 630.35,-467.47 635.16,-472.56"/>
</g>
<!-- operator_proxy -->
<g id="node35" class="node">
<title>operator_proxy</title>
<ellipse fill="none" stroke="black" cx="652.27" cy="-262.09" rx="64.99" ry="18"/>
<text text-anchor="middle" x="652.27" y="-258.39" font-family="Times,serif" font-size="14.00">operator_proxy</text>
</g>
<!-- run_cvd&#45;&gt;operator_proxy -->
<g id="edge27" class="edge">
<title>run_cvd&#45;&gt;operator_proxy</title>
<path fill="none" stroke="black" stroke-dasharray="5,2" d="M487.12,-823.06C489.65,-740.77 503.48,-401.11 561.08,-315.09 571.05,-300.2 586.72,-288.92 602.23,-280.67"/>
<polygon fill="black" stroke="black" points="603.9,-283.75 611.3,-276.16 600.78,-277.48 603.9,-283.75"/>
</g>
<!-- webrtc -->
<g id="node36" class="node">
<title>webrtc</title>
<ellipse fill="none" stroke="black" cx="652.27" cy="-208.09" rx="34.39" ry="18"/>
<text text-anchor="middle" x="652.27" y="-204.39" font-family="Times,serif" font-size="14.00">webrtc</text>
</g>
<!-- run_cvd&#45;&gt;webrtc -->
<g id="edge39" class="edge">
<title>run_cvd&#45;&gt;webrtc</title>
<path fill="none" stroke="black" stroke-dasharray="5,2" d="M486.3,-823.06C484.96,-732.39 483.47,-327.02 561.08,-235.09 572.52,-221.54 590.46,-214.62 607.34,-211.15"/>
<polygon fill="black" stroke="black" points="608.36,-214.53 617.64,-209.41 607.2,-207.63 608.36,-214.53"/>
</g>
<!-- crosvm_openwrt -->
<g id="node37" class="node">
<title>crosvm_openwrt</title>
<ellipse fill="none" stroke="black" cx="868.96" cy="-116.09" rx="77.99" ry="18"/>
<text text-anchor="middle" x="868.96" y="-112.39" font-family="Times,serif" font-size="14.00">OpenWRT crosvm</text>
</g>
<!-- run_cvd&#45;&gt;crosvm_openwrt -->
<g id="edge18" class="edge">
<title>run_cvd&#45;&gt;crosvm_openwrt</title>
<path fill="none" stroke="black" d="M487.41,-822.81C491.91,-721.03 515.95,-226.87 561.08,-178.09 617.13,-117.5 662.6,-159.61 743.46,-143.09 762.57,-139.18 783.27,-134.77 802.22,-130.65"/>
<polygon fill="black" stroke="black" points="803.22,-134.02 812.24,-128.47 801.73,-127.18 803.22,-134.02"/>
</g>
<!-- crosvm_openwrt_log_tee -->
<g id="node38" class="node">
<title>crosvm_openwrt_log_tee</title>
<ellipse fill="none" stroke="black" cx="652.27" cy="-116.09" rx="36.29" ry="18"/>
<text text-anchor="middle" x="652.27" y="-112.39" font-family="Times,serif" font-size="14.00">log_tee</text>
</g>
<!-- run_cvd&#45;&gt;crosvm_openwrt_log_tee -->
<g id="edge19" class="edge">
<title>run_cvd&#45;&gt;crosvm_openwrt_log_tee</title>
<path fill="none" stroke="black" d="M487.45,-822.78C492.23,-718.56 517.96,-202.69 561.08,-148.09 572.08,-134.16 589.61,-126.28 606.29,-121.83"/>
<polygon fill="black" stroke="black" points="607.55,-125.13 616.51,-119.48 605.98,-118.31 607.55,-125.13"/>
</g>
<!-- wmediumd -->
<g id="node39" class="node">
<title>wmediumd</title>
<ellipse fill="none" stroke="black" cx="868.96" cy="-62.09" rx="51.19" ry="18"/>
<text text-anchor="middle" x="868.96" y="-58.39" font-family="Times,serif" font-size="14.00">wmediumd</text>
</g>
<!-- run_cvd&#45;&gt;wmediumd -->
<g id="edge40" class="edge">
<title>run_cvd&#45;&gt;wmediumd</title>
<path fill="none" stroke="black" d="M486.88,-822.98C488.62,-708.67 500.79,-90.06 561.08,-35.09 635.32,32.61 765.85,-13.58 830.08,-42.97"/>
<polygon fill="black" stroke="black" points="828.89,-46.28 839.43,-47.35 831.86,-39.94 828.89,-46.28"/>
</g>
<!-- wmediumd_log_tee -->
<g id="node40" class="node">
<title>wmediumd_log_tee</title>
<ellipse fill="none" stroke="black" cx="652.27" cy="-62.09" rx="36.29" ry="18"/>
<text text-anchor="middle" x="652.27" y="-58.39" font-family="Times,serif" font-size="14.00">log_tee</text>
</g>
<!-- run_cvd&#45;&gt;wmediumd_log_tee -->
<g id="edge41" class="edge">
<title>run_cvd&#45;&gt;wmediumd_log_tee</title>
<path fill="none" stroke="black" d="M487.23,-823C491.01,-714.03 512.84,-147.62 561.08,-89.09 572.01,-75.82 589.19,-68.9 605.63,-65.34"/>
<polygon fill="black" stroke="black" points="606.48,-68.75 615.7,-63.54 605.24,-61.86 606.48,-68.75"/>
</g>
<!-- stop_cvd&#45;&gt;launcher_monitor_socket -->
<g id="edge12" class="edge">
<title>stop_cvd&#45;&gt;launcher_monitor_socket</title>
<path fill="none" stroke="black" d="M201.74,-827.62C220.39,-833.48 242.66,-840.46 263.4,-846.97"/>
<polygon fill="black" stroke="black" points="202.77,-824.28 192.18,-824.63 200.68,-830.96 202.77,-824.28"/>
<polygon fill="black" stroke="black" points="262.53,-850.37 273.12,-850.02 264.63,-843.69 262.53,-850.37"/>
</g>
<!-- root_canal_log_tee&#45;&gt;root_canal -->
<g id="edge30" class="edge">
<title>root_canal_log_tee&#45;&gt;root_canal</title>
<path fill="none" stroke="black" d="M699.08,-787.09C735.58,-787.09 786.4,-787.09 822.74,-787.09"/>
<polygon fill="black" stroke="black" points="698.72,-783.59 688.72,-787.09 698.72,-790.59 698.72,-783.59"/>
</g>
<!-- casimir_log_tee&#45;&gt;casimir -->
<g id="edge34" class="edge">
<title>casimir_log_tee&#45;&gt;casimir</title>
<path fill="none" stroke="black" d="M699,-620.09C720.15,-620.09 746.12,-620.09 771.3,-620.09"/>
<polygon fill="black" stroke="black" points="698.72,-616.59 688.72,-620.09 698.72,-623.59 698.72,-616.59"/>
</g>
<!-- crosvm_android -->
<g id="node29" class="node">
<title>crosvm_android</title>
<ellipse fill="none" stroke="black" cx="1071.34" cy="-372.09" rx="68.79" ry="18"/>
<text text-anchor="middle" x="1071.34" y="-368.39" font-family="Times,serif" font-size="14.00">Android crosvm</text>
</g>
<!-- crosvm_android_log_tee -->
<g id="node30" class="node">
<title>crosvm_android_log_tee</title>
<ellipse fill="none" stroke="black" cx="868.96" cy="-345.09" rx="36.29" ry="18"/>
<text text-anchor="middle" x="868.96" y="-341.39" font-family="Times,serif" font-size="14.00">log_tee</text>
</g>
<!-- crosvm_android_log_tee&#45;&gt;crosvm_android -->
<g id="edge43" class="edge">
<title>crosvm_android_log_tee&#45;&gt;crosvm_android</title>
<path fill="none" stroke="black" stroke-dasharray="5,2" d="M914.32,-351.06C942.35,-354.84 978.95,-359.77 1009.66,-363.91"/>
<polygon fill="black" stroke="black" points="914.78,-347.59 904.4,-349.73 913.85,-354.53 914.78,-347.59"/>
</g>
<!-- crosvm_android_restarter -->
<g id="node31" class="node">
<title>crosvm_android_restarter</title>
<ellipse fill="none" stroke="black" cx="868.96" cy="-399.09" rx="70.39" ry="18"/>
<text text-anchor="middle" x="868.96" y="-395.39" font-family="Times,serif" font-size="14.00">process_restarter</text>
</g>
<!-- crosvm_android_restarter&#45;&gt;crosvm_android -->
<g id="edge45" class="edge">
<title>crosvm_android_restarter&#45;&gt;crosvm_android</title>
<path fill="none" stroke="black" d="M931.44,-390.8C952.99,-387.9 977.36,-384.61 999.61,-381.62"/>
<polygon fill="black" stroke="black" points="1000.22,-385.07 1009.66,-380.26 999.28,-378.13 1000.22,-385.07"/>
</g>
<!-- gem5 -->
<g id="node32" class="node">
<title>gem5</title>
<ellipse fill="none" stroke="black" cx="868.96" cy="-453.09" rx="30.59" ry="18"/>
<text text-anchor="middle" x="868.96" y="-449.39" font-family="Times,serif" font-size="14.00">gem5</text>
</g>
<!-- qemu -->
<g id="node33" class="node">
<title>qemu</title>
<ellipse fill="none" stroke="black" cx="868.96" cy="-507.09" rx="37.09" ry="18"/>
<text text-anchor="middle" x="868.96" y="-503.39" font-family="Times,serif" font-size="14.00">QEMU</text>
</g>
<!-- vmm&#45;&gt;crosvm_android_log_tee -->
<g id="edge46" class="edge">
<title>vmm&#45;&gt;crosvm_android_log_tee</title>
<path fill="none" stroke="black" stroke-dasharray="5,2" d="M664.89,-443.16C685.21,-426.28 729.09,-391.87 771.46,-372.09 788.33,-364.21 807.95,-358.2 825.08,-353.88"/>
<polygon fill="black" stroke="black" points="825.94,-357.27 834.84,-351.52 824.3,-350.46 825.94,-357.27"/>
</g>
<!-- vmm&#45;&gt;crosvm_android_restarter -->
<g id="edge44" class="edge">
<title>vmm&#45;&gt;crosvm_android_restarter</title>
<path fill="none" stroke="black" stroke-dasharray="5,2" d="M672.32,-448.29C702.54,-440.69 762.68,-425.56 808.35,-414.08"/>
<polygon fill="black" stroke="black" points="809.31,-417.45 818.16,-411.61 807.6,-410.66 809.31,-417.45"/>
</g>
<!-- vmm&#45;&gt;gem5 -->
<g id="edge47" class="edge">
<title>vmm&#45;&gt;gem5</title>
<path fill="none" stroke="black" stroke-dasharray="5,2" d="M679.6,-453.09C716.73,-453.09 784.79,-453.09 828.13,-453.09"/>
<polygon fill="black" stroke="black" points="828.32,-456.59 838.32,-453.09 828.32,-449.59 828.32,-456.59"/>
</g>
<!-- vmm&#45;&gt;qemu -->
<g id="edge48" class="edge">
<title>vmm&#45;&gt;qemu</title>
<path fill="none" stroke="black" stroke-dasharray="5,2" d="M672.32,-457.88C706.55,-466.49 779.2,-484.76 825.69,-496.45"/>
<polygon fill="black" stroke="black" points="824.93,-499.87 835.48,-498.92 826.63,-493.08 824.93,-499.87"/>
</g>
<!-- crosvm_openwrt_log_tee&#45;&gt;crosvm_openwrt -->
<g id="edge20" class="edge">
<title>crosvm_openwrt_log_tee&#45;&gt;crosvm_openwrt</title>
<path fill="none" stroke="black" d="M698.89,-116.09C725.52,-116.09 759.82,-116.09 790.56,-116.09"/>
<polygon fill="black" stroke="black" points="698.72,-112.59 688.72,-116.09 698.72,-119.59 698.72,-112.59"/>
</g>
<!-- wmediumd_log_tee&#45;&gt;wmediumd -->
<g id="edge42" class="edge">
<title>wmediumd_log_tee&#45;&gt;wmediumd</title>
<path fill="none" stroke="black" d="M699.08,-62.09C733.88,-62.09 781.72,-62.09 817.59,-62.09"/>
<polygon fill="black" stroke="black" points="698.72,-58.59 688.72,-62.09 698.72,-65.59 698.72,-58.59"/>
</g>
</g>
</svg>
