<?xml version="1.0" encoding="UTF-8" standalone="no"?>
<!DOCTYPE svg PUBLIC "-//W3C//DTD SVG 1.1//EN"
 "http://www.w3.org/Graphics/SVG/1.1/DTD/svg11.dtd">
<!-- Generated by graphviz version 2.43.0 (0)
 -->
<!-- Title: %3 Pages: 1 -->
<svg width="402pt" height="564pt"
 viewBox="0.00 0.00 401.83 564.00" xmlns="http://www.w3.org/2000/svg" xmlns:xlink="http://www.w3.org/1999/xlink">
<g id="graph0" class="graph" transform="scale(1 1) rotate(0) translate(4 560)">
<title>%3</title>
<polygon fill="white" stroke="transparent" points="-4,4 -4,-560 397.83,-560 397.83,4 -4,4"/>
<g id="clust1" class="cluster">
<title>cluster_android</title>
<polygon fill="none" stroke="black" points="149.34,-8 149.34,-204 289.34,-204 289.34,-8 149.34,-8"/>
</g>
<!-- adb_connector -->
<g id="node1" class="node">
<title>adb_connector</title>
<ellipse fill="none" stroke="black" stroke-width="2" cx="322.34" cy="-466" rx="71.49" ry="18"/>
<text text-anchor="start" x="275.34" y="-463.3" font-family="Times,serif" font-size="14.00"> </text>
<text text-anchor="start" x="279.34" y="-463.3" font-family="Times,serif" font-weight="bold" font-size="14.00">adb_connector</text>
<text text-anchor="start" x="365.34" y="-463.3" font-family="Times,serif" font-size="14.00"> </text>
</g>
<!-- adb_server -->
<g id="node3" class="node">
<title>adb_server</title>
<ellipse fill="none" stroke="black" cx="219.34" cy="-394" rx="54.69" ry="18"/>
<text text-anchor="middle" x="219.34" y="-390.3" font-family="Times,serif" font-size="14.00">ADB Server</text>
</g>
<!-- adb_connector&#45;&#45;adb_server -->
<g id="edge2" class="edge">
<title>adb_connector&#45;&#45;adb_server</title>
<path fill="none" stroke="black" d="M298.71,-448.94C281.72,-437.4 258.95,-421.92 242.15,-410.5"/>
</g>
<!-- adb_client -->
<g id="node2" class="node">
<title>adb_client</title>
<ellipse fill="none" stroke="black" cx="116.34" cy="-466" rx="116.18" ry="18"/>
<text text-anchor="middle" x="116.34" y="-462.3" font-family="Times,serif" font-size="14.00">ADB command line interface</text>
</g>
<!-- adb_client&#45;&#45;adb_server -->
<g id="edge4" class="edge">
<title>adb_client&#45;&#45;adb_server</title>
<path fill="none" stroke="black" d="M141.01,-448.23C157.91,-436.75 180.16,-421.62 196.63,-410.43"/>
</g>
<!-- host_vsock -->
<g id="node6" class="node">
<title>host_vsock</title>
<polygon fill="none" stroke="black" points="274.84,-340 163.84,-340 163.84,-304 274.84,-304 274.84,-340"/>
<text text-anchor="middle" x="219.34" y="-318.3" font-family="Times,serif" font-size="14.00">/dev/vhost_vsock</text>
</g>
<!-- adb_server&#45;&#45;host_vsock -->
<g id="edge8" class="edge">
<title>adb_server&#45;&#45;host_vsock</title>
<path fill="none" stroke="black" d="M219.34,-375.7C219.34,-364.85 219.34,-350.92 219.34,-340.1"/>
</g>
<!-- user -->
<g id="node4" class="node">
<title>user</title>
<ellipse fill="none" stroke="black" cx="116.34" cy="-538" rx="48.19" ry="18"/>
<text text-anchor="middle" x="116.34" y="-534.3" font-family="Times,serif" font-size="14.00">User input</text>
</g>
<!-- user&#45;&#45;adb_client -->
<g id="edge3" class="edge">
<title>user&#45;&#45;adb_client</title>
<path fill="none" stroke="black" d="M116.34,-519.7C116.34,-508.85 116.34,-494.92 116.34,-484.1"/>
</g>
<!-- vmm -->
<g id="node5" class="node">
<title>vmm</title>
<ellipse fill="none" stroke="black" cx="219.34" cy="-250" rx="64.19" ry="18"/>
<text text-anchor="middle" x="219.34" y="-246.3" font-family="Times,serif" font-size="14.00">crosvm / qemu</text>
</g>
<!-- android_vsock -->
<g id="node8" class="node">
<title>android_vsock</title>
<polygon fill="none" stroke="black" points="274.84,-196 163.84,-196 163.84,-160 274.84,-160 274.84,-196"/>
<text text-anchor="middle" x="219.34" y="-174.3" font-family="Times,serif" font-size="14.00">/dev/vhost_vsock</text>
</g>
<!-- vmm&#45;&#45;android_vsock -->
<g id="edge6" class="edge">
<title>vmm&#45;&#45;android_vsock</title>
<path fill="none" stroke="black" d="M219.34,-231.7C219.34,-220.85 219.34,-206.92 219.34,-196.1"/>
</g>
<!-- host_vsock&#45;&#45;vmm -->
<g id="edge7" class="edge">
<title>host_vsock&#45;&#45;vmm</title>
<path fill="none" stroke="black" d="M219.34,-303.7C219.34,-292.85 219.34,-278.92 219.34,-268.1"/>
</g>
<!-- adb_daemon -->
<g id="node7" class="node">
<title>adb_daemon</title>
<ellipse fill="none" stroke="black" cx="219.34" cy="-106" rx="61.99" ry="18"/>
<text text-anchor="middle" x="219.34" y="-102.3" font-family="Times,serif" font-size="14.00">ADB Daemon</text>
</g>
<!-- shell -->
<g id="node9" class="node">
<title>shell</title>
<ellipse fill="none" stroke="black" cx="219.34" cy="-34" rx="50.09" ry="18"/>
<text text-anchor="middle" x="219.34" y="-30.3" font-family="Times,serif" font-size="14.00">toybox / sh</text>
</g>
<!-- adb_daemon&#45;&#45;shell -->
<g id="edge9" class="edge">
<title>adb_daemon&#45;&#45;shell</title>
<path fill="none" stroke="black" d="M219.34,-87.7C219.34,-76.85 219.34,-62.92 219.34,-52.1"/>
</g>
<!-- android_vsock&#45;&#45;adb_daemon -->
<g id="edge5" class="edge">
<title>android_vsock&#45;&#45;adb_daemon</title>
<path fill="none" stroke="black" d="M219.34,-159.7C219.34,-148.85 219.34,-134.92 219.34,-124.1"/>
</g>
<!-- run_cvd -->
<g id="node10" class="node">
<title>run_cvd</title>
<ellipse fill="none" stroke="black" cx="322.34" cy="-538" rx="39.79" ry="18"/>
<text text-anchor="middle" x="322.34" y="-534.3" font-family="Times,serif" font-size="14.00">run_cvd</text>
</g>
<!-- run_cvd&#45;&#45;adb_connector -->
<g id="edge1" class="edge">
<title>run_cvd&#45;&#45;adb_connector</title>
<path fill="none" stroke="black" d="M322.34,-519.7C322.34,-508.85 322.34,-494.92 322.34,-484.1"/>
</g>
</g>
</svg>
