<?xml version="1.0" encoding="UTF-8" standalone="no"?>
<!DOCTYPE svg PUBLIC "-//W3C//DTD SVG 1.1//EN"
 "http://www.w3.org/Graphics/SVG/1.1/DTD/svg11.dtd">
<!-- Generated by graphviz version 2.43.0 (0)
 -->
<!-- Title: %3 Pages: 1 -->
<svg width="1009pt" height="479pt"
 viewBox="0.00 0.00 1008.52 479.00" xmlns="http://www.w3.org/2000/svg" xmlns:xlink="http://www.w3.org/1999/xlink">
<g id="graph0" class="graph" transform="scale(1 1) rotate(0) translate(4 475)">
<title>%3</title>
<polygon fill="white" stroke="transparent" points="-4,4 -4,-475 1004.52,-475 1004.52,4 -4,4"/>
<g id="clust1" class="cluster">
<title>cluster_android</title>
<polygon fill="none" stroke="black" points="538,-64 538,-283 977,-283 977,-64 538,-64"/>
<text text-anchor="middle" x="757.5" y="-267.8" font-family="Times,serif" font-size="14.00">Android VM</text>
</g>
<!-- browser -->
<g id="node1" class="node">
<title>browser</title>
<ellipse fill="none" stroke="black" cx="346" cy="-453" rx="40.09" ry="18"/>
<text text-anchor="middle" x="346" y="-449.3" font-family="Times,serif" font-size="14.00">Browser</text>
</g>
<!-- webRTC -->
<g id="node12" class="node">
<title>webRTC</title>
<ellipse fill="none" stroke="black" cx="346" cy="-381" rx="42.49" ry="18"/>
<text text-anchor="middle" x="346" y="-377.3" font-family="Times,serif" font-size="14.00">webRTC</text>
</g>
<!-- browser&#45;&gt;webRTC -->
<g id="edge1" class="edge">
<title>browser&#45;&gt;webRTC</title>
<path fill="none" stroke="black" d="M346,-434.7C346,-426.98 346,-417.71 346,-409.11"/>
<polygon fill="black" stroke="black" points="349.5,-409.1 346,-399.1 342.5,-409.1 349.5,-409.1"/>
</g>
<!-- confirmationui_sign -->
<g id="node2" class="node">
<title>confirmationui_sign</title>
<polygon fill="none" stroke="black" points="287,-327 133,-327 133,-291 287,-291 287,-327"/>
<text text-anchor="middle" x="210" y="-305.3" font-family="Times,serif" font-size="14.00">internal/confui_sign.sock</text>
</g>
<!-- secure_env -->
<g id="node10" class="node">
<title>secure_env</title>
<ellipse fill="none" stroke="black" stroke-width="2" cx="210" cy="-234" rx="57.39" ry="18"/>
<text text-anchor="start" x="174" y="-231.3" font-family="Times,serif" font-size="14.00"> </text>
<text text-anchor="start" x="178" y="-231.3" font-family="Times,serif" font-weight="bold" font-size="14.00">secure_env</text>
<text text-anchor="start" x="242" y="-231.3" font-family="Times,serif" font-size="14.00"> </text>
</g>
<!-- confirmationui_sign&#45;&gt;secure_env -->
<g id="edge32" class="edge">
<title>confirmationui_sign&#45;&gt;secure_env</title>
<path fill="none" stroke="black" d="M204.16,-290.7C203.27,-282.18 203.03,-271.72 203.45,-262.17"/>
<polygon fill="black" stroke="black" points="206.96,-262.15 204.2,-251.92 199.98,-261.64 206.96,-262.15"/>
</g>
<!-- confirmationui_sign&#45;&gt;webRTC -->
<g id="edge30" class="edge">
<title>confirmationui_sign&#45;&gt;webRTC</title>
<path fill="none" stroke="black" d="M248.98,-327.03C269.91,-337.25 295.27,-350.27 314.88,-360.85"/>
<polygon fill="black" stroke="black" points="313.27,-363.95 323.72,-365.67 316.62,-357.81 313.27,-363.95"/>
</g>
<!-- host_confirmationui_in -->
<g id="node3" class="node">
<title>host_confirmationui_in</title>
<polygon fill="none" stroke="red" points="586.5,-327 425.5,-327 425.5,-291 586.5,-291 586.5,-327"/>
<text text-anchor="middle" x="506" y="-305.3" font-family="Times,serif" font-size="14.00">internal/confui_fifo_vm.in</text>
</g>
<!-- vmm -->
<g id="node11" class="node">
<title>vmm</title>
<ellipse fill="none" stroke="black" cx="466" cy="-90" rx="64.19" ry="18"/>
<text text-anchor="middle" x="466" y="-86.3" font-family="Times,serif" font-size="14.00">crosvm / qemu</text>
</g>
<!-- host_confirmationui_in&#45;&gt;vmm -->
<g id="edge10" class="edge">
<title>host_confirmationui_in&#45;&gt;vmm</title>
<path fill="none" stroke="red" d="M508.5,-290.73C512.24,-260.25 517.27,-195.32 501,-144 497.88,-134.17 492.37,-124.45 486.63,-116.07"/>
<polygon fill="red" stroke="red" points="489.38,-113.9 480.66,-107.88 483.72,-118.02 489.38,-113.9"/>
</g>
<!-- host_confirmationui_out -->
<g id="node4" class="node">
<title>host_confirmationui_out</title>
<polygon fill="none" stroke="red" points="860,-36 692,-36 692,0 860,0 860,-36"/>
<text text-anchor="middle" x="776" y="-14.3" font-family="Times,serif" font-size="14.00">internal/confui_fifo_vm.out</text>
</g>
<!-- host_confirmationui_out&#45;&gt;webRTC -->
<g id="edge3" class="edge">
<title>host_confirmationui_out&#45;&gt;webRTC</title>
<path fill="none" stroke="red" d="M860.12,-27.89C909.02,-34.83 964.23,-46.32 981,-64 1011.07,-95.7 997,-117.31 997,-161 997,-235 997,-235 997,-235 997,-257.49 998.19,-268.51 981,-283 893.01,-357.16 534.22,-374.79 398.42,-378.84"/>
<polygon fill="red" stroke="red" points="398.16,-375.34 388.27,-379.13 398.36,-382.34 398.16,-375.34"/>
</g>
<!-- host_gatekeeper_in -->
<g id="node5" class="node">
<title>host_gatekeeper_in</title>
<polygon fill="none" stroke="green" points="492.5,-180 307.5,-180 307.5,-144 492.5,-144 492.5,-180"/>
<text text-anchor="middle" x="400" y="-158.3" font-family="Times,serif" font-size="14.00">internal/gatekeeper_fifo_vm.in</text>
</g>
<!-- host_gatekeeper_in&#45;&gt;vmm -->
<g id="edge12" class="edge">
<title>host_gatekeeper_in&#45;&gt;vmm</title>
<path fill="none" stroke="green" d="M416.31,-143.7C424.43,-135.09 434.36,-124.55 443.21,-115.17"/>
<polygon fill="green" stroke="green" points="446.01,-117.3 450.33,-107.62 440.92,-112.5 446.01,-117.3"/>
</g>
<!-- host_gatekeeper_out -->
<g id="node6" class="node">
<title>host_gatekeeper_out</title>
<polygon fill="none" stroke="green" points="508,-36 316,-36 316,0 508,0 508,-36"/>
<text text-anchor="middle" x="412" y="-14.3" font-family="Times,serif" font-size="14.00">internal/gatekeeper_fifo_vm.out</text>
</g>
<!-- host_gatekeeper_out&#45;&gt;secure_env -->
<g id="edge5" class="edge">
<title>host_gatekeeper_out&#45;&gt;secure_env</title>
<path fill="none" stroke="green" d="M315.74,-28.77C242.24,-41.85 145.59,-72.45 97,-144 88.01,-157.24 88.42,-166.5 97,-180 109.71,-199.99 132.17,-212.58 153.73,-220.43"/>
<polygon fill="green" stroke="green" points="152.62,-223.75 163.22,-223.62 154.85,-217.11 152.62,-223.75"/>
</g>
<!-- host_keymint_in -->
<g id="node7" class="node">
<title>host_keymint_in</title>
<polygon fill="none" stroke="blue" points="289.5,-180 106.5,-180 106.5,-144 289.5,-144 289.5,-180"/>
<text text-anchor="middle" x="198" y="-158.3" font-family="Times,serif" font-size="14.00">internal/keymaster_fifo_vm.in</text>
</g>
<!-- host_keymint_in&#45;&gt;vmm -->
<g id="edge14" class="edge">
<title>host_keymint_in&#45;&gt;vmm</title>
<path fill="none" stroke="blue" d="M263.22,-143.97C308.5,-132.14 368.15,-116.56 411.02,-105.36"/>
<polygon fill="blue" stroke="blue" points="411.92,-108.74 420.72,-102.83 410.16,-101.97 411.92,-108.74"/>
</g>
<!-- host_keymint_out -->
<g id="node8" class="node">
<title>host_keymint_out</title>
<polygon fill="none" stroke="blue" points="190,-36 0,-36 0,0 190,0 190,-36"/>
<text text-anchor="middle" x="95" y="-14.3" font-family="Times,serif" font-size="14.00">internal/keymaster_fifo_vm.out</text>
</g>
<!-- host_keymint_out&#45;&gt;secure_env -->
<g id="edge7" class="edge">
<title>host_keymint_out&#45;&gt;secure_env</title>
<path fill="none" stroke="blue" d="M79.6,-36.07C73.48,-43.97 67.16,-53.85 64,-64 48.68,-113.23 34.41,-137.78 64,-180 82.49,-206.39 115.53,-219.69 145.51,-226.37"/>
<polygon fill="blue" stroke="blue" points="145.04,-229.85 155.53,-228.39 146.42,-222.98 145.04,-229.85"/>
</g>
<!-- run_cvd -->
<g id="node9" class="node">
<title>run_cvd</title>
<ellipse fill="none" stroke="black" cx="345" cy="-309" rx="39.79" ry="18"/>
<text text-anchor="middle" x="345" y="-305.3" font-family="Times,serif" font-size="14.00">run_cvd</text>
</g>
<!-- run_cvd&#45;&gt;secure_env -->
<g id="edge2" class="edge">
<title>run_cvd&#45;&gt;secure_env</title>
<path fill="none" stroke="black" d="M320.55,-294.78C299.89,-283.61 270,-267.44 246.5,-254.74"/>
<polygon fill="black" stroke="black" points="247.98,-251.56 237.52,-249.88 244.65,-257.72 247.98,-251.56"/>
</g>
<!-- secure_env&#45;&gt;confirmationui_sign -->
<g id="edge31" class="edge">
<title>secure_env&#45;&gt;confirmationui_sign</title>
<path fill="none" stroke="black" d="M215.8,-251.92C216.72,-260.47 216.97,-271.06 216.55,-280.72"/>
<polygon fill="black" stroke="black" points="213.06,-280.48 215.84,-290.7 220.05,-280.98 213.06,-280.48"/>
</g>
<!-- secure_env&#45;&gt;host_gatekeeper_in -->
<g id="edge6" class="edge">
<title>secure_env&#45;&gt;host_gatekeeper_in</title>
<path fill="none" stroke="green" d="M245.74,-219.83C273.4,-209.64 312.24,-195.33 344.02,-183.62"/>
<polygon fill="green" stroke="green" points="345.46,-186.82 353.63,-180.08 343.04,-180.25 345.46,-186.82"/>
</g>
<!-- secure_env&#45;&gt;host_keymint_in -->
<g id="edge8" class="edge">
<title>secure_env&#45;&gt;host_keymint_in</title>
<path fill="none" stroke="blue" d="M207.03,-215.7C205.71,-207.98 204.12,-198.71 202.65,-190.11"/>
<polygon fill="blue" stroke="blue" points="206.07,-189.37 200.93,-180.1 199.17,-190.55 206.07,-189.37"/>
</g>
<!-- vmm&#45;&gt;host_confirmationui_out -->
<g id="edge9" class="edge">
<title>vmm&#45;&gt;host_confirmationui_out</title>
<path fill="none" stroke="red" d="M500.93,-74.88C511.44,-70.98 523.08,-67 534,-64 582.08,-50.79 636.6,-40.28 681.71,-32.74"/>
<polygon fill="red" stroke="red" points="682.47,-36.16 691.77,-31.08 681.34,-29.26 682.47,-36.16"/>
</g>
<!-- vmm&#45;&gt;host_gatekeeper_out -->
<g id="edge11" class="edge">
<title>vmm&#45;&gt;host_gatekeeper_out</title>
<path fill="none" stroke="green" d="M452.93,-72.05C446.52,-63.75 438.68,-53.58 431.58,-44.38"/>
<polygon fill="green" stroke="green" points="434.21,-42.06 425.33,-36.28 428.66,-46.33 434.21,-42.06"/>
</g>
<!-- vmm&#45;&gt;host_keymint_out -->
<g id="edge13" class="edge">
<title>vmm&#45;&gt;host_keymint_out</title>
<path fill="none" stroke="blue" d="M414.02,-79.19C357.57,-68.54 266.02,-51.27 195.44,-37.95"/>
<polygon fill="blue" stroke="blue" points="195.66,-34.43 185.19,-36.02 194.36,-41.31 195.66,-34.43"/>
</g>
<!-- confirmationui_console -->
<g id="node15" class="node">
<title>confirmationui_console</title>
<polygon fill="none" stroke="red" points="776,-180 706,-180 706,-144 776,-144 776,-180"/>
<text text-anchor="middle" x="741" y="-158.3" font-family="Times,serif" font-size="14.00">/dev/hvc8</text>
</g>
<!-- vmm&#45;&gt;confirmationui_console -->
<g id="edge15" class="edge">
<title>vmm&#45;&gt;confirmationui_console</title>
<path fill="none" stroke="red" d="M514.28,-102C565.63,-114.52 646.01,-134.96 696.05,-148.19"/>
<polygon fill="red" stroke="red" points="695.38,-151.64 705.94,-150.82 697.17,-144.87 695.38,-151.64"/>
</g>
<!-- gatekeeper_console -->
<g id="node17" class="node">
<title>gatekeeper_console</title>
<polygon fill="none" stroke="green" points="635,-180 565,-180 565,-144 635,-144 635,-180"/>
<text text-anchor="middle" x="600" y="-158.3" font-family="Times,serif" font-size="14.00">/dev/hvc4</text>
</g>
<!-- vmm&#45;&gt;gatekeeper_console -->
<g id="edge17" class="edge">
<title>vmm&#45;&gt;gatekeeper_console</title>
<path fill="none" stroke="green" d="M499.52,-105.58C519.26,-115.25 544.14,-128.12 564.25,-139.02"/>
<polygon fill="green" stroke="green" points="562.66,-142.15 573.12,-143.88 566.02,-136.01 562.66,-142.15"/>
</g>
<!-- keymint_console -->
<g id="node19" class="node">
<title>keymint_console</title>
<polygon fill="none" stroke="blue" points="903,-180 833,-180 833,-144 903,-144 903,-180"/>
<text text-anchor="middle" x="868" y="-158.3" font-family="Times,serif" font-size="14.00">/dev/hvc3</text>
</g>
<!-- vmm&#45;&gt;keymint_console -->
<g id="edge19" class="edge">
<title>vmm&#45;&gt;keymint_console</title>
<path fill="none" stroke="blue" d="M514.88,-101.75C524.24,-104 533.92,-106.22 543,-108 653.59,-129.7 682.97,-124.68 794,-144 803.36,-145.63 813.29,-147.52 822.75,-149.43"/>
<polygon fill="blue" stroke="blue" points="822.29,-152.91 832.79,-151.51 823.71,-146.06 822.29,-152.91"/>
</g>
<!-- webRTC&#45;&gt;confirmationui_sign -->
<g id="edge29" class="edge">
<title>webRTC&#45;&gt;confirmationui_sign</title>
<path fill="none" stroke="black" d="M317.04,-367.81C296.25,-357.89 268.24,-343.65 246.02,-331.79"/>
<polygon fill="black" stroke="black" points="247.67,-328.7 237.21,-327.03 244.35,-334.86 247.67,-328.7"/>
</g>
<!-- webRTC&#45;&gt;host_confirmationui_in -->
<g id="edge4" class="edge">
<title>webRTC&#45;&gt;host_confirmationui_in</title>
<path fill="none" stroke="red" d="M374.6,-367.49C397.68,-357.39 430.65,-342.96 457.79,-331.09"/>
<polygon fill="red" stroke="red" points="459.36,-334.22 467.12,-327.01 456.56,-327.81 459.36,-334.22"/>
</g>
<!-- u_boot -->
<g id="node13" class="node">
<title>u_boot</title>
<ellipse fill="none" stroke="black" cx="935" cy="-234" rx="33.6" ry="18"/>
<text text-anchor="middle" x="935" y="-230.3" font-family="Times,serif" font-size="14.00">u&#45;boot</text>
</g>
<!-- u_boot&#45;&gt;keymint_console -->
<g id="edge27" class="edge">
<title>u_boot&#45;&gt;keymint_console</title>
<path fill="none" stroke="blue" d="M915.89,-218.83C906.18,-209.92 894.63,-198.17 885.21,-187.75"/>
<polygon fill="blue" stroke="blue" points="887.72,-185.31 878.48,-180.11 882.46,-189.93 887.72,-185.31"/>
</g>
<!-- confirmationui -->
<g id="node14" class="node">
<title>confirmationui</title>
<ellipse fill="none" stroke="red" cx="795" cy="-234" rx="88.28" ry="18"/>
<text text-anchor="middle" x="795" y="-230.3" font-family="Times,serif" font-size="14.00">ConfirmationUI HAL</text>
</g>
<!-- confirmationui&#45;&gt;confirmationui_console -->
<g id="edge22" class="edge">
<title>confirmationui&#45;&gt;confirmationui_console</title>
<path fill="none" stroke="red" d="M776.05,-216.05C768.84,-207.84 760.87,-197.79 754.26,-188.66"/>
<polygon fill="red" stroke="red" points="757.01,-186.47 748.41,-180.28 751.26,-190.48 757.01,-186.47"/>
</g>
<!-- confirmationui_console&#45;&gt;vmm -->
<g id="edge16" class="edge">
<title>confirmationui_console&#45;&gt;vmm</title>
<path fill="none" stroke="red" d="M705.81,-153.17C658.48,-141.79 574.22,-120.44 519.17,-105.97"/>
<polygon fill="red" stroke="red" points="519.81,-102.52 509.25,-103.36 518.03,-109.29 519.81,-102.52"/>
</g>
<!-- confirmationui_console&#45;&gt;confirmationui -->
<g id="edge21" class="edge">
<title>confirmationui_console&#45;&gt;confirmationui</title>
<path fill="none" stroke="red" d="M760.24,-180.28C767.47,-188.54 775.43,-198.6 782,-207.71"/>
<polygon fill="red" stroke="red" points="779.22,-209.84 787.81,-216.05 784.97,-205.85 779.22,-209.84"/>
</g>
<!-- gatekeeper -->
<g id="node16" class="node">
<title>gatekeeper</title>
<ellipse fill="none" stroke="green" cx="617" cy="-234" rx="71.49" ry="18"/>
<text text-anchor="middle" x="617" y="-230.3" font-family="Times,serif" font-size="14.00">Gatekeeper HAL</text>
</g>
<!-- gatekeeper&#45;&gt;gatekeeper_console -->
<g id="edge24" class="edge">
<title>gatekeeper&#45;&gt;gatekeeper_console</title>
<path fill="none" stroke="green" d="M607.01,-216.05C604.32,-208.35 601.81,-199.03 600.04,-190.36"/>
<polygon fill="green" stroke="green" points="603.45,-189.53 598.28,-180.28 596.55,-190.73 603.45,-189.53"/>
</g>
<!-- gatekeeper_console&#45;&gt;vmm -->
<g id="edge18" class="edge">
<title>gatekeeper_console&#45;&gt;vmm</title>
<path fill="none" stroke="green" d="M564.89,-145.64C544.59,-135.66 519.28,-122.52 499.29,-111.64"/>
<polygon fill="green" stroke="green" points="500.96,-108.56 490.51,-106.81 497.59,-114.7 500.96,-108.56"/>
</g>
<!-- gatekeeper_console&#45;&gt;gatekeeper -->
<g id="edge23" class="edge">
<title>gatekeeper_console&#45;&gt;gatekeeper</title>
<path fill="none" stroke="green" d="M610.05,-180.1C612.72,-187.79 615.21,-197.05 616.97,-205.67"/>
<polygon fill="green" stroke="green" points="613.55,-206.45 618.71,-215.7 620.44,-205.24 613.55,-206.45"/>
</g>
<!-- keymint -->
<g id="node18" class="node">
<title>keymint</title>
<ellipse fill="none" stroke="blue" cx="868" cy="-90" rx="62.29" ry="18"/>
<text text-anchor="middle" x="868" y="-86.3" font-family="Times,serif" font-size="14.00">Keymint HAL</text>
</g>
<!-- keymint&#45;&gt;keymint_console -->
<g id="edge25" class="edge">
<title>keymint&#45;&gt;keymint_console</title>
<path fill="none" stroke="blue" d="M873.9,-108.1C874.7,-115.79 874.94,-125.05 874.6,-133.67"/>
<polygon fill="blue" stroke="blue" points="871.11,-133.48 873.92,-143.7 878.09,-133.96 871.11,-133.48"/>
</g>
<!-- keymint_console&#45;&gt;vmm -->
<g id="edge20" class="edge">
<title>keymint_console&#45;&gt;vmm</title>
<path fill="none" stroke="blue" d="M832.94,-155C815.62,-151.54 794.69,-147.25 776,-144 664.97,-124.68 635.59,-129.7 525,-108 522.2,-107.45 519.35,-106.86 516.47,-106.24"/>
<polygon fill="blue" stroke="blue" points="517.23,-102.82 506.7,-104.03 515.68,-109.65 517.23,-102.82"/>
</g>
<!-- keymint_console&#45;&gt;u_boot -->
<g id="edge28" class="edge">
<title>keymint_console&#45;&gt;u_boot</title>
<path fill="none" stroke="blue" d="M890.37,-180.2C899.52,-188.82 909.84,-199.41 918.33,-208.84"/>
<polygon fill="blue" stroke="blue" points="915.74,-211.2 924.96,-216.41 921,-206.58 915.74,-211.2"/>
</g>
<!-- keymint_console&#45;&gt;keymint -->
<g id="edge26" class="edge">
<title>keymint_console&#45;&gt;keymint</title>
<path fill="none" stroke="blue" d="M862.08,-143.7C861.29,-135.98 861.06,-126.71 861.4,-118.11"/>
<polygon fill="blue" stroke="blue" points="864.9,-118.32 862.1,-108.1 857.92,-117.84 864.9,-118.32"/>
</g>
</g>
</svg>
