<?xml version="1.0" encoding="UTF-8" standalone="no"?>
<!DOCTYPE svg PUBLIC "-//W3C//DTD SVG 1.1//EN"
 "http://www.w3.org/Graphics/SVG/1.1/DTD/svg11.dtd">
<!-- Generated by graphviz version 2.43.0 (0)
 -->
<!-- Title: %3 Pages: 1 -->
<svg width="324pt" height="188pt"
 viewBox="0.00 0.00 324.19 188.00" xmlns="http://www.w3.org/2000/svg" xmlns:xlink="http://www.w3.org/1999/xlink">
<g id="graph0" class="graph" transform="scale(1 1) rotate(0) translate(4 184)">
<title>%3</title>
<polygon fill="white" stroke="transparent" points="-4,4 -4,-184 320.19,-184 320.19,4 -4,4"/>
<!-- assemble_cvd -->
<g id="node1" class="node">
<title>assemble_cvd</title>
<ellipse fill="none" stroke="black" cx="135" cy="-18" rx="60.39" ry="18"/>
<text text-anchor="middle" x="135" y="-14.3" font-family="Times,serif" font-size="14.00">assemble_cvd</text>
</g>
<!-- cvd -->
<g id="node2" class="node">
<title>cvd</title>
<ellipse fill="none" stroke="black" cx="27" cy="-90" rx="27" ry="18"/>
<text text-anchor="middle" x="27" y="-86.3" font-family="Times,serif" font-size="14.00">cvd</text>
</g>
<!-- cvd_internal_start -->
<g id="node3" class="node">
<title>cvd_internal_start</title>
<ellipse fill="none" stroke="black" cx="194" cy="-90" rx="122.38" ry="18"/>
<text text-anchor="middle" x="194" y="-86.3" font-family="Times,serif" font-size="14.00">launch_cvd / cvd_internal_start</text>
</g>
<!-- cvd_internal_start&#45;&gt;assemble_cvd -->
<g id="edge3" class="edge">
<title>cvd_internal_start&#45;&gt;assemble_cvd</title>
<path fill="none" stroke="black" d="M179.72,-72.05C172.54,-63.54 163.71,-53.07 155.8,-43.68"/>
<polygon fill="black" stroke="black" points="158.27,-41.18 149.15,-35.79 152.92,-45.69 158.27,-41.18"/>
</g>
<!-- run_cvd -->
<g id="node4" class="node">
<title>run_cvd</title>
<ellipse fill="none" stroke="black" cx="253" cy="-18" rx="39.79" ry="18"/>
<text text-anchor="middle" x="253" y="-14.3" font-family="Times,serif" font-size="14.00">run_cvd</text>
</g>
<!-- cvd_internal_start&#45;&gt;run_cvd -->
<g id="edge4" class="edge">
<title>cvd_internal_start&#45;&gt;run_cvd</title>
<path fill="none" stroke="black" d="M208.28,-72.05C215.64,-63.33 224.73,-52.54 232.79,-42.98"/>
<polygon fill="black" stroke="black" points="235.49,-45.21 239.26,-35.31 230.13,-40.7 235.49,-45.21"/>
</g>
<!-- user -->
<g id="node5" class="node">
<title>user</title>
<ellipse fill="none" stroke="black" cx="110" cy="-162" rx="44.39" ry="18"/>
<text text-anchor="middle" x="110" y="-158.3" font-family="Times,serif" font-size="14.00">User CLI</text>
</g>
<!-- user&#45;&gt;cvd -->
<g id="edge1" class="edge">
<title>user&#45;&gt;cvd</title>
<path fill="none" stroke="black" d="M91.58,-145.46C79.56,-135.32 63.74,-121.99 50.77,-111.05"/>
<polygon fill="black" stroke="black" points="53.03,-108.37 43.13,-104.6 48.51,-113.72 53.03,-108.37"/>
</g>
<!-- user&#45;&gt;cvd_internal_start -->
<g id="edge2" class="edge">
<title>user&#45;&gt;cvd_internal_start</title>
<path fill="none" stroke="black" d="M128.64,-145.46C139.59,-136.35 153.63,-124.64 165.89,-114.42"/>
<polygon fill="black" stroke="black" points="168.2,-117.05 173.65,-107.96 163.72,-111.67 168.2,-117.05"/>
</g>
</g>
</svg>
