<?xml version="1.0" encoding="UTF-8" standalone="no"?>
<!DOCTYPE svg PUBLIC "-//W3C//DTD SVG 1.1//EN"
 "http://www.w3.org/Graphics/SVG/1.1/DTD/svg11.dtd">
<!-- Generated by graphviz version 2.43.0 (0)
 -->
<!-- Title: %3 Pages: 1 -->
<svg width="1533pt" height="656pt"
 viewBox="0.00 0.00 1532.70 656.00" xmlns="http://www.w3.org/2000/svg" xmlns:xlink="http://www.w3.org/1999/xlink">
<g id="graph0" class="graph" transform="scale(1 1) rotate(0) translate(4 652)">
<title>%3</title>
<polygon fill="white" stroke="transparent" points="-4,4 -4,-652 1528.7,-652 1528.7,4 -4,4"/>
<g id="clust1" class="cluster">
<title>cluster_cvd_client</title>
<polygon fill="none" stroke="black" points="8,-13 8,-88 117.59,-88 117.59,-13 8,-13"/>
<text text-anchor="middle" x="62.8" y="-72.8" font-family="Times,serif" font-size="14.00">cvd (client)</text>
</g>
<g id="clust2" class="cluster">
<title>cluster_cvd_server</title>
<polygon fill="none" stroke="black" points="195.59,-41 195.59,-640 1282.21,-640 1282.21,-41 195.59,-41"/>
<text text-anchor="middle" x="738.9" y="-624.8" font-family="Times,serif" font-size="14.00">cvd (server)</text>
</g>
<!-- CvdClient -->
<g id="node1" class="node">
<title>CvdClient</title>
<ellipse fill="none" stroke="black" cx="62.8" cy="-39" rx="46.59" ry="18"/>
<text text-anchor="middle" x="62.8" y="-35.3" font-family="Times,serif" font-size="14.00">CvdClient</text>
</g>
<!-- CvdServer -->
<g id="node2" class="node">
<title>CvdServer</title>
<ellipse fill="none" stroke="black" cx="317.33" cy="-401" rx="48.19" ry="18"/>
<text text-anchor="middle" x="317.33" y="-397.3" font-family="Times,serif" font-size="14.00">CvdServer</text>
</g>
<!-- CvdClient&#45;&gt;CvdServer -->
<g id="edge1" class="edge">
<title>CvdClient&#45;&gt;CvdServer</title>
<path fill="none" stroke="black" d="M70.7,-56.95C87.73,-99.92 134.84,-210.99 195.59,-290 222.21,-324.63 260.28,-357.61 286.52,-378.49"/>
<polygon fill="black" stroke="black" points="284.57,-381.41 294.6,-384.83 288.89,-375.9 284.57,-381.41"/>
<text text-anchor="middle" x="156.59" y="-274.8" font-family="Times,serif" font-size="14.00">AF_UNIX</text>
</g>
<!-- acloud -->
<g id="node30" class="node">
<title>acloud</title>
<ellipse fill="none" stroke="black" cx="1443.45" cy="-18" rx="66.89" ry="18"/>
<text text-anchor="middle" x="1443.45" y="-14.3" font-family="Times,serif" font-size="14.00">acloud (python)</text>
</g>
<!-- CvdClient&#45;&gt;acloud -->
<g id="edge2" class="edge">
<title>CvdClient&#45;&gt;acloud</title>
<path fill="none" stroke="black" d="M107.5,-33.15C157.78,-26.94 242.86,-18 316.33,-18 316.33,-18 316.33,-18 1143.27,-18 1219.13,-18 1305.81,-18 1366.28,-18"/>
<polygon fill="black" stroke="black" points="1366.5,-21.5 1376.5,-18 1366.5,-14.5 1366.5,-21.5"/>
<text text-anchor="middle" x="665.46" y="-21.8" font-family="Times,serif" font-size="14.00">fork/exec</text>
</g>
<!-- CvdServerHandler -->
<g id="node3" class="node">
<title>CvdServerHandler</title>
<ellipse fill="none" stroke="black" stroke-dasharray="5,2" cx="544.76" cy="-346" rx="76.89" ry="18"/>
<text text-anchor="middle" x="544.76" y="-342.3" font-family="Times,serif" font-size="14.00">CvdServerHandler</text>
</g>
<!-- CvdServer&#45;&gt;CvdServerHandler -->
<g id="edge3" class="edge">
<title>CvdServer&#45;&gt;CvdServerHandler</title>
<path fill="none" stroke="black" d="M358.12,-391.29C392.14,-382.99 441.71,-370.9 481.06,-361.3"/>
<polygon fill="black" stroke="black" points="481.95,-364.68 490.84,-358.91 480.29,-357.88 481.95,-364.68"/>
</g>
<!-- AcloudMixSuperImageCommand -->
<g id="node5" class="node">
<title>AcloudMixSuperImageCommand</title>
<ellipse fill="none" stroke="black" cx="1142.27" cy="-209" rx="131.88" ry="18"/>
<text text-anchor="middle" x="1142.27" y="-205.3" font-family="Times,serif" font-size="14.00">AcloudMixSuperImageCommand</text>
</g>
<!-- CvdServerHandler&#45;&gt;AcloudMixSuperImageCommand -->
<g id="edge7" class="edge">
<title>CvdServerHandler&#45;&gt;AcloudMixSuperImageCommand</title>
<path fill="none" stroke="black" d="M600.82,-333.64C632.46,-326.94 673.03,-319.03 709.46,-314 771.94,-305.38 942.81,-330.06 992.33,-291 1012.53,-275.07 991.15,-253.13 1010.33,-236 1015.45,-231.43 1021.13,-227.55 1027.18,-224.28"/>
<polygon fill="black" stroke="black" points="1028.8,-227.38 1036.28,-219.89 1025.75,-221.08 1028.8,-227.38"/>
</g>
<!-- CvdFetchCommandHandler -->
<g id="node6" class="node">
<title>CvdFetchCommandHandler</title>
<ellipse fill="none" stroke="black" cx="1142.27" cy="-263" rx="110.48" ry="18"/>
<text text-anchor="middle" x="1142.27" y="-259.3" font-family="Times,serif" font-size="14.00">CvdFetchCommandHandler</text>
</g>
<!-- CvdServerHandler&#45;&gt;CvdFetchCommandHandler -->
<g id="edge9" class="edge">
<title>CvdServerHandler&#45;&gt;CvdFetchCommandHandler</title>
<path fill="none" stroke="black" d="M616.24,-339.22C645.12,-336.52 678.88,-333.48 709.46,-331 772.27,-325.9 936.05,-339.34 992.33,-311 1003.31,-305.47 999.75,-296.24 1010.33,-290 1020,-284.3 1030.68,-279.79 1041.66,-276.23"/>
<polygon fill="black" stroke="black" points="1042.78,-279.54 1051.36,-273.33 1040.77,-272.84 1042.78,-279.54"/>
</g>
<!-- CvdFleetCommandHandler -->
<g id="node7" class="node">
<title>CvdFleetCommandHandler</title>
<ellipse fill="none" stroke="black" cx="1142.27" cy="-587" rx="108.58" ry="18"/>
<text text-anchor="middle" x="1142.27" y="-583.3" font-family="Times,serif" font-size="14.00">CvdFleetCommandHandler</text>
</g>
<!-- CvdServerHandler&#45;&gt;CvdFleetCommandHandler -->
<g id="edge10" class="edge">
<title>CvdServerHandler&#45;&gt;CvdFleetCommandHandler</title>
<path fill="none" stroke="black" d="M598.68,-358.84C606.72,-362.08 614.6,-366.07 621.46,-371 632.29,-378.78 628.77,-387.02 639.46,-395 666.05,-414.86 677.25,-412.99 709.46,-421 766.86,-435.28 927.35,-418.79 973.33,-456 1011.47,-486.87 973.33,-527.79 1010.33,-560 1017.68,-566.39 1026.13,-571.41 1035.12,-575.34"/>
<polygon fill="black" stroke="black" points="1034.09,-578.69 1044.68,-579.05 1036.62,-572.17 1034.09,-578.69"/>
</g>
<!-- CvdHelpHandler -->
<g id="node8" class="node">
<title>CvdHelpHandler</title>
<ellipse fill="none" stroke="black" cx="1142.27" cy="-425" rx="70.69" ry="18"/>
<text text-anchor="middle" x="1142.27" y="-421.3" font-family="Times,serif" font-size="14.00">CvdHelpHandler</text>
</g>
<!-- CvdServerHandler&#45;&gt;CvdHelpHandler -->
<g id="edge13" class="edge">
<title>CvdServerHandler&#45;&gt;CvdHelpHandler</title>
<path fill="none" stroke="black" d="M613.68,-354.05C719.98,-366.7 920.89,-390.85 992.33,-401 1018.77,-404.76 1047.78,-409.33 1073.11,-413.47"/>
<polygon fill="black" stroke="black" points="1072.56,-416.93 1082.99,-415.09 1073.69,-410.02 1072.56,-416.93"/>
</g>
<!-- CvdGenericCommandHandler -->
<g id="node9" class="node">
<title>CvdGenericCommandHandler</title>
<ellipse fill="none" stroke="black" cx="1142.27" cy="-371" rx="118.88" ry="18"/>
<text text-anchor="middle" x="1142.27" y="-367.3" font-family="Times,serif" font-size="14.00">CvdGenericCommandHandler</text>
</g>
<!-- CvdServerHandler&#45;&gt;CvdGenericCommandHandler -->
<g id="edge11" class="edge">
<title>CvdServerHandler&#45;&gt;CvdGenericCommandHandler</title>
<path fill="none" stroke="black" d="M619.66,-350.04C626.36,-350.37 633.03,-350.7 639.46,-351 767.76,-356.98 914.57,-362.7 1016.11,-366.48"/>
<polygon fill="black" stroke="black" points="1016.28,-369.99 1026.4,-366.86 1016.54,-362.99 1016.28,-369.99"/>
</g>
<!-- CvdResetCommandHandler -->
<g id="node10" class="node">
<title>CvdResetCommandHandler</title>
<ellipse fill="none" stroke="black" cx="1142.27" cy="-479" rx="110.48" ry="18"/>
<text text-anchor="middle" x="1142.27" y="-475.3" font-family="Times,serif" font-size="14.00">CvdResetCommandHandler</text>
</g>
<!-- CvdServerHandler&#45;&gt;CvdResetCommandHandler -->
<g id="edge15" class="edge">
<title>CvdServerHandler&#45;&gt;CvdResetCommandHandler</title>
<path fill="none" stroke="black" d="M595.23,-359.68C627.54,-368.22 670.76,-378.9 709.46,-386 771.76,-397.43 939.49,-386.08 992.33,-421 1005.63,-429.78 997.41,-442.69 1010.33,-452 1018.68,-458.01 1028.07,-462.75 1037.88,-466.48"/>
<polygon fill="black" stroke="black" points="1036.8,-469.81 1047.4,-469.75 1039.08,-463.19 1036.8,-469.81"/>
</g>
<!-- CvdShutdownHandler -->
<g id="node11" class="node">
<title>CvdShutdownHandler</title>
<ellipse fill="none" stroke="black" cx="1142.27" cy="-533" rx="89.08" ry="18"/>
<text text-anchor="middle" x="1142.27" y="-529.3" font-family="Times,serif" font-size="14.00">CvdShutdownHandler</text>
</g>
<!-- CvdServerHandler&#45;&gt;CvdShutdownHandler -->
<g id="edge18" class="edge">
<title>CvdServerHandler&#45;&gt;CvdShutdownHandler</title>
<path fill="none" stroke="black" d="M582.76,-361.66C615.47,-374.83 664.81,-393.06 709.46,-403 771.37,-416.78 944.53,-399.32 992.33,-441 1014.93,-460.7 988.44,-485.52 1010.33,-506 1020.29,-515.31 1032.57,-521.77 1045.59,-526.2"/>
<polygon fill="black" stroke="black" points="1044.59,-529.56 1055.17,-529.08 1046.6,-522.85 1044.59,-529.56"/>
</g>
<!-- CvdStartCommandHandler -->
<g id="node12" class="node">
<title>CvdStartCommandHandler</title>
<ellipse fill="none" stroke="black" cx="1142.27" cy="-317" rx="107.78" ry="18"/>
<text text-anchor="middle" x="1142.27" y="-313.3" font-family="Times,serif" font-size="14.00">CvdStartCommandHandler</text>
</g>
<!-- CvdServerHandler&#45;&gt;CvdStartCommandHandler -->
<g id="edge19" class="edge">
<title>CvdServerHandler&#45;&gt;CvdStartCommandHandler</title>
<path fill="none" stroke="black" d="M621.69,-344.84C710.6,-343.16 862.28,-339.29 992.33,-331 1007.64,-330.02 1023.82,-328.75 1039.64,-327.38"/>
<polygon fill="black" stroke="black" points="1040.32,-330.83 1049.97,-326.46 1039.7,-323.86 1040.32,-330.83"/>
</g>
<!-- CvdVersionHandler -->
<g id="node13" class="node">
<title>CvdVersionHandler</title>
<ellipse fill="none" stroke="black" cx="1142.27" cy="-101" rx="80.69" ry="18"/>
<text text-anchor="middle" x="1142.27" y="-97.3" font-family="Times,serif" font-size="14.00">CvdVersionHandler</text>
</g>
<!-- CvdServerHandler&#45;&gt;CvdVersionHandler -->
<g id="edge20" class="edge">
<title>CvdServerHandler&#45;&gt;CvdVersionHandler</title>
<path fill="none" stroke="black" d="M572.33,-329.11C590.62,-318.1 615.79,-304.14 639.46,-295 738.45,-256.79 957.51,-268.96 973.33,-256 1019.15,-218.48 966.86,-168.21 1010.33,-128 1021.94,-117.27 1036.63,-110.34 1051.95,-105.94"/>
<polygon fill="black" stroke="black" points="1053.23,-109.23 1062.08,-103.41 1051.53,-102.44 1053.23,-109.23"/>
</g>
<!-- TryAcloudCommand -->
<g id="node14" class="node">
<title>TryAcloudCommand</title>
<ellipse fill="none" stroke="black" cx="1142.27" cy="-155" rx="87.18" ry="18"/>
<text text-anchor="middle" x="1142.27" y="-151.3" font-family="Times,serif" font-size="14.00">TryAcloudCommand</text>
</g>
<!-- CvdServerHandler&#45;&gt;TryAcloudCommand -->
<g id="edge4" class="edge">
<title>CvdServerHandler&#45;&gt;TryAcloudCommand</title>
<path fill="none" stroke="black" d="M584.58,-330.56C601.29,-324.27 621.16,-317.25 639.46,-312 670.04,-303.22 678,-301.8 709.46,-297 771.86,-287.48 945.36,-313.17 992.33,-271 1022.37,-244.04 981.85,-210.59 1010.33,-182 1020.29,-172.01 1032.89,-165.24 1046.32,-160.73"/>
<polygon fill="black" stroke="black" points="1047.62,-164 1056.23,-157.82 1045.65,-157.28 1047.62,-164"/>
</g>
<!-- AcloudCommand -->
<g id="node15" class="node">
<title>AcloudCommand</title>
<ellipse fill="none" stroke="black" cx="841.4" cy="-591" rx="74.19" ry="18"/>
<text text-anchor="middle" x="841.4" y="-587.3" font-family="Times,serif" font-size="14.00">AcloudCommand</text>
</g>
<!-- CvdServerHandler&#45;&gt;AcloudCommand -->
<g id="edge6" class="edge">
<title>CvdServerHandler&#45;&gt;AcloudCommand</title>
<path fill="none" stroke="black" d="M556.85,-364.08C572.92,-389.33 604.59,-435.68 639.46,-468 659.71,-486.77 675.03,-479.8 691.46,-502 708.53,-525.06 688.38,-544.53 709.46,-564 722.69,-576.23 739.94,-583.52 757.55,-587.75"/>
<polygon fill="black" stroke="black" points="756.84,-591.18 767.35,-589.79 758.27,-584.32 756.84,-591.18"/>
</g>
<!-- AcloudTranslatorCommand -->
<g id="node16" class="node">
<title>AcloudTranslatorCommand</title>
<ellipse fill="none" stroke="black" cx="841.4" cy="-537" rx="110.48" ry="18"/>
<text text-anchor="middle" x="841.4" y="-533.3" font-family="Times,serif" font-size="14.00">AcloudTranslatorCommand</text>
</g>
<!-- CvdServerHandler&#45;&gt;AcloudTranslatorCommand -->
<g id="edge5" class="edge">
<title>CvdServerHandler&#45;&gt;AcloudTranslatorCommand</title>
<path fill="none" stroke="black" d="M556.79,-364.14C572.34,-388.25 602.92,-430.62 639.46,-455 659.68,-468.49 673.21,-455.93 691.46,-472 705.48,-484.35 694.76,-498.46 709.46,-510 717.11,-516.01 725.77,-520.78 734.9,-524.55"/>
<polygon fill="black" stroke="black" points="733.97,-527.94 744.56,-528.12 736.4,-521.37 733.97,-527.94"/>
</g>
<!-- CvdServerHandlerProxy -->
<g id="node17" class="node">
<title>CvdServerHandlerProxy</title>
<ellipse fill="none" stroke="black" cx="841.4" cy="-175" rx="97.48" ry="18"/>
<text text-anchor="middle" x="841.4" y="-171.3" font-family="Times,serif" font-size="14.00">CvdServerHandlerProxy</text>
</g>
<!-- CvdServerHandler&#45;&gt;CvdServerHandlerProxy -->
<g id="edge12" class="edge">
<title>CvdServerHandler&#45;&gt;CvdServerHandlerProxy</title>
<path fill="none" stroke="black" d="M559.57,-328.27C576.68,-307.09 607.52,-271.46 639.46,-247 660.3,-231.04 670.18,-234.37 691.46,-219 700.38,-212.56 699.7,-207.08 709.46,-202 721.63,-195.66 735.17,-190.81 748.79,-187.1"/>
<polygon fill="black" stroke="black" points="749.87,-190.43 758.71,-184.59 748.16,-183.65 749.87,-190.43"/>
</g>
<!-- CvdVmControlCommandHandler -->
<g id="node18" class="node">
<title>CvdVmControlCommandHandler</title>
<ellipse fill="none" stroke="black" cx="841.4" cy="-121" rx="131.88" ry="18"/>
<text text-anchor="middle" x="841.4" y="-117.3" font-family="Times,serif" font-size="14.00">CvdVmControlCommandHandler</text>
</g>
<!-- CvdServerHandler&#45;&gt;CvdVmControlCommandHandler -->
<g id="edge8" class="edge">
<title>CvdServerHandler&#45;&gt;CvdVmControlCommandHandler</title>
<path fill="none" stroke="black" d="M557.06,-328.21C573.61,-302.75 606.15,-255 639.46,-219 660.21,-196.56 671.04,-196.74 691.46,-174 700.85,-163.54 697.74,-155.75 709.46,-148 716.42,-143.4 724,-139.56 731.9,-136.35"/>
<polygon fill="black" stroke="black" points="733.13,-139.63 741.3,-132.88 730.7,-133.06 733.13,-139.63"/>
</g>
<!-- LoadConfigsCommand -->
<g id="node19" class="node">
<title>LoadConfigsCommand</title>
<ellipse fill="none" stroke="black" cx="841.4" cy="-229" rx="94.48" ry="18"/>
<text text-anchor="middle" x="841.4" y="-225.3" font-family="Times,serif" font-size="14.00">LoadConfigsCommand</text>
</g>
<!-- CvdServerHandler&#45;&gt;LoadConfigsCommand -->
<g id="edge14" class="edge">
<title>CvdServerHandler&#45;&gt;LoadConfigsCommand</title>
<path fill="none" stroke="black" d="M559.93,-328.32C576.71,-308.71 606.56,-277.77 639.46,-262 658.87,-252.7 705.27,-244.78 748.6,-239.03"/>
<polygon fill="black" stroke="black" points="749.19,-242.49 758.66,-237.73 748.29,-235.54 749.19,-242.49"/>
</g>
<!-- SerialLaunchCommand -->
<g id="node20" class="node">
<title>SerialLaunchCommand</title>
<ellipse fill="none" stroke="black" cx="841.4" cy="-483" rx="94.78" ry="18"/>
<text text-anchor="middle" x="841.4" y="-479.3" font-family="Times,serif" font-size="14.00">SerialLaunchCommand</text>
</g>
<!-- CvdServerHandler&#45;&gt;SerialLaunchCommand -->
<g id="edge16" class="edge">
<title>CvdServerHandler&#45;&gt;SerialLaunchCommand</title>
<path fill="none" stroke="black" d="M556.88,-364.11C572.31,-387.57 602.53,-427.82 639.46,-448 642.24,-449.52 704.9,-460.31 759.51,-469.51"/>
<polygon fill="black" stroke="black" points="759.15,-473 769.59,-471.21 760.31,-466.1 759.15,-473"/>
</g>
<!-- SerialPreset -->
<g id="node21" class="node">
<title>SerialPreset</title>
<ellipse fill="none" stroke="black" cx="841.4" cy="-67" rx="52.79" ry="18"/>
<text text-anchor="middle" x="841.4" y="-63.3" font-family="Times,serif" font-size="14.00">SerialPreset</text>
</g>
<!-- CvdServerHandler&#45;&gt;SerialPreset -->
<g id="edge17" class="edge">
<title>CvdServerHandler&#45;&gt;SerialPreset</title>
<path fill="none" stroke="black" d="M551.21,-327.81C566.71,-279.58 616.15,-148.38 709.46,-94 730.42,-81.78 756.09,-75.04 779.14,-71.34"/>
<polygon fill="black" stroke="black" points="779.78,-74.79 789.17,-69.89 778.77,-67.86 779.78,-74.79"/>
</g>
<!-- CommandSequenceExecutor -->
<g id="node4" class="node">
<title>CommandSequenceExecutor</title>
<ellipse fill="none" stroke="black" cx="317.33" cy="-263" rx="113.98" ry="18"/>
<text text-anchor="middle" x="317.33" y="-259.3" font-family="Times,serif" font-size="14.00">CommandSequenceExecutor</text>
</g>
<!-- CommandSequenceExecutor&#45;&gt;CvdServerHandler -->
<g id="edge28" class="edge">
<title>CommandSequenceExecutor&#45;&gt;CvdServerHandler</title>
<path fill="none" stroke="black" d="M363.14,-279.5C400.55,-293.27 453.86,-312.9 492.87,-327.26"/>
<polygon fill="black" stroke="black" points="491.87,-330.62 502.46,-330.79 494.28,-324.05 491.87,-330.62"/>
</g>
<!-- CommandSequenceExecutor&#45;&gt;AcloudCommand -->
<g id="edge22" class="edge">
<title>CommandSequenceExecutor&#45;&gt;AcloudCommand</title>
<path fill="none" stroke="black" d="M348.5,-287.39C373.06,-308.41 407.42,-340.55 431.07,-374 453.46,-405.65 440.56,-425.68 468.07,-453 552.45,-536.79 692.17,-570.32 774.33,-583.28"/>
<polygon fill="black" stroke="black" points="350.47,-284.48 340.57,-280.71 345.96,-289.83 350.47,-284.48"/>
</g>
<!-- CommandSequenceExecutor&#45;&gt;AcloudTranslatorCommand -->
<g id="edge21" class="edge">
<title>CommandSequenceExecutor&#45;&gt;AcloudTranslatorCommand</title>
<path fill="none" stroke="black" d="M345.08,-287.97C368.37,-310.03 402.76,-343.38 431.07,-374 448.42,-392.76 447.21,-403.24 468.07,-418 554.67,-479.25 593.31,-461.78 691.46,-502 699.56,-505.32 701.12,-507.32 709.46,-510 726.81,-515.57 745.83,-520.27 763.86,-524.1"/>
<polygon fill="black" stroke="black" points="347.3,-285.25 337.63,-280.94 342.5,-290.34 347.3,-285.25"/>
</g>
<!-- CommandSequenceExecutor&#45;&gt;CvdServerHandlerProxy -->
<g id="edge23" class="edge">
<title>CommandSequenceExecutor&#45;&gt;CvdServerHandlerProxy</title>
<path fill="none" stroke="black" d="M405.89,-248.24C507.78,-231.07 674.1,-203.03 768.68,-187.09"/>
<polygon fill="black" stroke="black" points="405.21,-244.81 395.93,-249.92 406.37,-251.71 405.21,-244.81"/>
</g>
<!-- CommandSequenceExecutor&#45;&gt;CvdVmControlCommandHandler -->
<g id="edge27" class="edge">
<title>CommandSequenceExecutor&#45;&gt;CvdVmControlCommandHandler</title>
<path fill="none" stroke="black" d="M369.61,-242.6C398.31,-231.58 434.89,-218.19 468.07,-208 573.75,-175.56 601.66,-172.5 709.46,-148 727.68,-143.86 747.39,-139.65 765.85,-135.83"/>
<polygon fill="black" stroke="black" points="368.26,-239.37 360.19,-246.24 370.78,-245.9 368.26,-239.37"/>
</g>
<!-- CommandSequenceExecutor&#45;&gt;LoadConfigsCommand -->
<g id="edge24" class="edge">
<title>CommandSequenceExecutor&#45;&gt;LoadConfigsCommand</title>
<path fill="none" stroke="black" d="M432.76,-255.55C528.76,-249.3 663.89,-240.49 751.81,-234.77"/>
<polygon fill="black" stroke="black" points="432.48,-252.06 422.72,-256.2 432.93,-259.04 432.48,-252.06"/>
</g>
<!-- CommandSequenceExecutor&#45;&gt;SerialLaunchCommand -->
<g id="edge26" class="edge">
<title>CommandSequenceExecutor&#45;&gt;SerialLaunchCommand</title>
<path fill="none" stroke="black" d="M347.06,-287.38C400.46,-331.01 520.45,-421.2 639.46,-457 675,-467.69 715.37,-473.98 750.56,-477.69"/>
<polygon fill="black" stroke="black" points="349.01,-284.45 339.07,-280.79 344.56,-289.86 349.01,-284.45"/>
</g>
<!-- CommandSequenceExecutor&#45;&gt;SerialPreset -->
<g id="edge25" class="edge">
<title>CommandSequenceExecutor&#45;&gt;SerialPreset</title>
<path fill="none" stroke="black" d="M348.46,-238.76C377.57,-216.37 423.66,-183.56 468.07,-163 578.17,-112.02 719.6,-85.04 792.39,-73.68"/>
<polygon fill="black" stroke="black" points="346.1,-236.16 340.36,-245.06 350.4,-241.69 346.1,-236.16"/>
</g>
<!-- cvd_status -->
<g id="node27" class="node">
<title>cvd_status</title>
<ellipse fill="none" stroke="black" cx="1443.45" cy="-587" rx="48.19" ry="18"/>
<text text-anchor="middle" x="1443.45" y="-583.3" font-family="Times,serif" font-size="14.00">cvd_status</text>
</g>
<!-- CvdFleetCommandHandler&#45;&gt;cvd_status -->
<g id="edge34" class="edge">
<title>CvdFleetCommandHandler&#45;&gt;cvd_status</title>
<path fill="none" stroke="black" d="M1250.86,-587C1296.03,-587 1346.77,-587 1384.67,-587"/>
<polygon fill="black" stroke="black" points="1385.01,-590.5 1395.01,-587 1385.01,-583.5 1385.01,-590.5"/>
<text text-anchor="middle" x="1318.21" y="-590.8" font-family="Times,serif" font-size="14.00">fork/exec</text>
</g>
<!-- all_cvd -->
<g id="node26" class="node">
<title>all_cvd</title>
<ellipse fill="none" stroke="black" cx="1443.45" cy="-533" rx="32.49" ry="18"/>
<text text-anchor="middle" x="1443.45" y="-529.3" font-family="Times,serif" font-size="14.00">*_cvd</text>
</g>
<!-- CvdHelpHandler&#45;&gt;all_cvd -->
<g id="edge33" class="edge">
<title>CvdHelpHandler&#45;&gt;all_cvd</title>
<path fill="none" stroke="black" d="M1211.89,-428.47C1235.53,-432.14 1261.31,-439.08 1282.21,-452 1288.41,-455.83 1286.74,-460.18 1292.21,-465 1319.26,-488.84 1329.4,-491.06 1362.21,-506 1375.67,-512.13 1390.94,-517.61 1404.52,-522"/>
<polygon fill="black" stroke="black" points="1403.47,-525.34 1414.06,-525.01 1405.57,-518.66 1403.47,-525.34"/>
<text text-anchor="middle" x="1318.21" y="-500.8" font-family="Times,serif" font-size="14.00">fork/exec</text>
</g>
<!-- restart_cvd -->
<g id="node23" class="node">
<title>restart_cvd</title>
<ellipse fill="none" stroke="black" cx="1443.45" cy="-317" rx="50.09" ry="18"/>
<text text-anchor="middle" x="1443.45" y="-313.3" font-family="Times,serif" font-size="14.00">restart_cvd</text>
</g>
<!-- CvdGenericCommandHandler&#45;&gt;restart_cvd -->
<g id="edge30" class="edge">
<title>CvdGenericCommandHandler&#45;&gt;restart_cvd</title>
<path fill="none" stroke="black" d="M1219.54,-357.23C1272.28,-347.71 1341.18,-335.28 1388.34,-326.77"/>
<polygon fill="black" stroke="black" points="1389.13,-330.18 1398.35,-324.96 1387.89,-323.29 1389.13,-330.18"/>
<text text-anchor="middle" x="1318.21" y="-347.8" font-family="Times,serif" font-size="14.00">fork/exec</text>
</g>
<!-- powerbtn_cvd -->
<g id="node24" class="node">
<title>powerbtn_cvd</title>
<ellipse fill="none" stroke="black" cx="1443.45" cy="-263" rx="61.19" ry="18"/>
<text text-anchor="middle" x="1443.45" y="-259.3" font-family="Times,serif" font-size="14.00">powerbtn_cvd</text>
</g>
<!-- CvdGenericCommandHandler&#45;&gt;powerbtn_cvd -->
<g id="edge31" class="edge">
<title>CvdGenericCommandHandler&#45;&gt;powerbtn_cvd</title>
<path fill="none" stroke="black" d="M1248.44,-362.77C1260.73,-358.41 1272.38,-352.35 1282.21,-344 1291.97,-335.72 1283.22,-326.11 1292.21,-317 1315.63,-293.26 1330.85,-301.32 1362.21,-290 1371.85,-286.52 1382.2,-282.93 1392.15,-279.55"/>
<polygon fill="black" stroke="black" points="1393.57,-282.77 1401.92,-276.26 1391.33,-276.13 1393.57,-282.77"/>
<text text-anchor="middle" x="1318.21" y="-320.8" font-family="Times,serif" font-size="14.00">fork/exec</text>
</g>
<!-- powerwash_cvd -->
<g id="node25" class="node">
<title>powerwash_cvd</title>
<ellipse fill="none" stroke="black" cx="1443.45" cy="-479" rx="67.69" ry="18"/>
<text text-anchor="middle" x="1443.45" y="-475.3" font-family="Times,serif" font-size="14.00">powerwash_cvd</text>
</g>
<!-- CvdGenericCommandHandler&#45;&gt;powerwash_cvd -->
<g id="edge32" class="edge">
<title>CvdGenericCommandHandler&#45;&gt;powerwash_cvd</title>
<path fill="none" stroke="black" d="M1248.34,-379.35C1260.65,-383.69 1272.33,-389.71 1282.21,-398 1291.7,-405.95 1283.52,-415.19 1292.21,-424 1315.75,-447.85 1330.76,-440.43 1362.21,-452 1371.22,-455.31 1380.86,-458.7 1390.21,-461.89"/>
<polygon fill="black" stroke="black" points="1389.23,-465.25 1399.82,-465.15 1391.47,-458.62 1389.23,-465.25"/>
<text text-anchor="middle" x="1318.21" y="-449.8" font-family="Times,serif" font-size="14.00">fork/exec</text>
</g>
<!-- stop_cvd -->
<g id="node28" class="node">
<title>stop_cvd</title>
<ellipse fill="none" stroke="black" cx="1443.45" cy="-425" rx="42.49" ry="18"/>
<text text-anchor="middle" x="1443.45" y="-421.3" font-family="Times,serif" font-size="14.00">stop_cvd</text>
</g>
<!-- CvdGenericCommandHandler&#45;&gt;stop_cvd -->
<g id="edge35" class="edge">
<title>CvdGenericCommandHandler&#45;&gt;stop_cvd</title>
<path fill="none" stroke="black" d="M1219.54,-384.77C1274.54,-394.69 1347.11,-407.79 1394.27,-416.3"/>
<polygon fill="black" stroke="black" points="1393.76,-419.77 1404.22,-418.1 1395,-412.88 1393.76,-419.77"/>
<text text-anchor="middle" x="1318.21" y="-408.8" font-family="Times,serif" font-size="14.00">fork/exec</text>
</g>
<!-- cvd_host_bugreport -->
<g id="node29" class="node">
<title>cvd_host_bugreport</title>
<ellipse fill="none" stroke="black" cx="1443.45" cy="-371" rx="81.49" ry="18"/>
<text text-anchor="middle" x="1443.45" y="-367.3" font-family="Times,serif" font-size="14.00">cvd_host_bugreport</text>
</g>
<!-- CvdGenericCommandHandler&#45;&gt;cvd_host_bugreport -->
<g id="edge36" class="edge">
<title>CvdGenericCommandHandler&#45;&gt;cvd_host_bugreport</title>
<path fill="none" stroke="black" d="M1261.52,-371C1291.48,-371 1323.21,-371 1351.58,-371"/>
<polygon fill="black" stroke="black" points="1351.87,-374.5 1361.87,-371 1351.87,-367.5 1351.87,-374.5"/>
<text text-anchor="middle" x="1318.21" y="-374.8" font-family="Times,serif" font-size="14.00">fork/exec</text>
</g>
<!-- launch_cvd -->
<g id="node22" class="node">
<title>launch_cvd</title>
<ellipse fill="none" stroke="black" cx="1443.45" cy="-209" rx="51.19" ry="18"/>
<text text-anchor="middle" x="1443.45" y="-205.3" font-family="Times,serif" font-size="14.00">launch_cvd</text>
</g>
<!-- CvdStartCommandHandler&#45;&gt;launch_cvd -->
<g id="edge29" class="edge">
<title>CvdStartCommandHandler&#45;&gt;launch_cvd</title>
<path fill="none" stroke="black" d="M1246.3,-311.95C1259.78,-307.26 1272.32,-300.26 1282.21,-290 1302.19,-269.27 1271.43,-245.92 1292.21,-226 1316.92,-202.32 1355.43,-198.35 1387.28,-200.16"/>
<polygon fill="black" stroke="black" points="1387.12,-203.65 1397.36,-200.93 1387.66,-196.67 1387.12,-203.65"/>
<text text-anchor="middle" x="1318.21" y="-229.8" font-family="Times,serif" font-size="14.00">fork/exec</text>
</g>
</g>
</svg>
