<?xml version="1.0" encoding="UTF-8" standalone="no"?>
<!DOCTYPE svg PUBLIC "-//W3C//DTD SVG 1.1//EN"
 "http://www.w3.org/Graphics/SVG/1.1/DTD/svg11.dtd">
<!-- Generated by graphviz version 2.43.0 (0)
 -->
<!-- Title: %3 Pages: 1 -->
<svg width="1533pt" height="656pt"
 viewBox="0.00 0.00 1532.70 656.00" xmlns="http://www.w3.org/2000/svg" xmlns:xlink="http://www.w3.org/1999/xlink">
<g id="graph0" class="graph" transform="scale(1 1) rotate(0) translate(4 652)">
<title>%3</title>
<polygon fill="white" stroke="transparent" points="-4,4 -4,-652 1528.7,-652 1528.7,4 -4,4"/>
<g id="clust1" class="cluster">
<title>cluster_cvd_client</title>
<polygon fill="none" stroke="black" points="8,-13 8,-88 117.59,-88 117.59,-13 8,-13"/>
<text text-anchor="middle" x="62.8" y="-72.8" font-family="Times,serif" font-size="14.00">cvd (client)</text>
</g>
<g id="clust2" class="cluster">
<title>cluster_cvd_server</title>
<polygon fill="none" stroke="black" points="195.59,-41 195.59,-640 1282.21,-640 1282.21,-41 195.59,-41"/>
<text text-anchor="middle" x="738.9" y="-624.8" font-family="Times,serif" font-size="14.00">cvd (server)</text>
</g>
<!-- CvdClient -->
<g id="node1" class="node">
<title>CvdClient</title>
<ellipse fill="none" stroke="black" cx="62.8" cy="-39" rx="46.59" ry="18"/>
<text text-anchor="middle" x="62.8" y="-35.3" font-family="Times,serif" font-size="14.00">CvdClient</text>
</g>
<!-- CvdServer -->
<g id="node2" class="node">
<title>CvdServer</title>
<ellipse fill="none" stroke="black" cx="317.33" cy="-400" rx="48.19" ry="18"/>
<text text-anchor="middle" x="317.33" y="-396.3" font-family="Times,serif" font-size="14.00">CvdServer</text>
</g>
<!-- CvdClient&#45;&gt;CvdServer -->
<g id="edge1" class="edge">
<title>CvdClient&#45;&gt;CvdServer</title>
<path fill="none" stroke="black" d="M70.75,-56.79C87.91,-99.37 135.27,-209.44 195.59,-288 222.46,-322.99 260.8,-356.49 287.03,-377.58"/>
<polygon fill="black" stroke="black" points="285.08,-380.5 295.09,-383.98 289.43,-375.02 285.08,-380.5"/>
<text text-anchor="middle" x="156.59" y="-272.8" font-family="Times,serif" font-size="14.00">AF_UNIX</text>
</g>
<!-- acloud -->
<g id="node29" class="node">
<title>acloud</title>
<ellipse fill="none" stroke="black" cx="1443.45" cy="-18" rx="66.89" ry="18"/>
<text text-anchor="middle" x="1443.45" y="-14.3" font-family="Times,serif" font-size="14.00">acloud (python)</text>
</g>
<!-- CvdClient&#45;&gt;acloud -->
<g id="edge2" class="edge">
<title>CvdClient&#45;&gt;acloud</title>
<path fill="none" stroke="black" d="M107.5,-33.15C157.78,-26.94 242.86,-18 316.33,-18 316.33,-18 316.33,-18 1143.27,-18 1219.13,-18 1305.81,-18 1366.28,-18"/>
<polygon fill="black" stroke="black" points="1366.5,-21.5 1376.5,-18 1366.5,-14.5 1366.5,-21.5"/>
<text text-anchor="middle" x="665.46" y="-21.8" font-family="Times,serif" font-size="14.00">fork/exec</text>
</g>
<!-- CvdServerHandler -->
<g id="node3" class="node">
<title>CvdServerHandler</title>
<ellipse fill="none" stroke="black" stroke-dasharray="5,2" cx="544.76" cy="-346" rx="76.89" ry="18"/>
<text text-anchor="middle" x="544.76" y="-342.3" font-family="Times,serif" font-size="14.00">CvdServerHandler</text>
</g>
<!-- CvdServer&#45;&gt;CvdServerHandler -->
<g id="edge3" class="edge">
<title>CvdServer&#45;&gt;CvdServerHandler</title>
<path fill="none" stroke="black" d="M358.37,-390.41C392.32,-382.28 441.59,-370.48 480.8,-361.08"/>
<polygon fill="black" stroke="black" points="481.63,-364.48 490.54,-358.75 480,-357.68 481.63,-364.48"/>
</g>
<!-- AcloudMixSuperImageCommand -->
<g id="node5" class="node">
<title>AcloudMixSuperImageCommand</title>
<ellipse fill="none" stroke="black" cx="1142.27" cy="-208" rx="131.88" ry="18"/>
<text text-anchor="middle" x="1142.27" y="-204.3" font-family="Times,serif" font-size="14.00">AcloudMixSuperImageCommand</text>
</g>
<!-- CvdServerHandler&#45;&gt;AcloudMixSuperImageCommand -->
<g id="edge7" class="edge">
<title>CvdServerHandler&#45;&gt;AcloudMixSuperImageCommand</title>
<path fill="none" stroke="black" d="M600.82,-333.64C632.46,-326.94 673.03,-319.03 709.46,-314 771.94,-305.38 942.92,-330.19 992.33,-291 1012.82,-274.76 990.88,-252.46 1010.33,-235 1015.44,-230.42 1021.11,-226.53 1027.15,-223.24"/>
<polygon fill="black" stroke="black" points="1028.77,-226.35 1036.24,-218.84 1025.72,-220.05 1028.77,-226.35"/>
</g>
<!-- CvdFetchCommandHandler -->
<g id="node6" class="node">
<title>CvdFetchCommandHandler</title>
<ellipse fill="none" stroke="black" cx="1142.27" cy="-262" rx="110.48" ry="18"/>
<text text-anchor="middle" x="1142.27" y="-258.3" font-family="Times,serif" font-size="14.00">CvdFetchCommandHandler</text>
</g>
<!-- CvdServerHandler&#45;&gt;CvdFetchCommandHandler -->
<g id="edge9" class="edge">
<title>CvdServerHandler&#45;&gt;CvdFetchCommandHandler</title>
<path fill="none" stroke="black" d="M616.24,-339.22C645.12,-336.52 678.88,-333.48 709.46,-331 772.27,-325.9 936.37,-339.98 992.33,-311 1003.55,-305.19 999.53,-295.54 1010.33,-289 1019.86,-283.24 1030.41,-278.69 1041.26,-275.1"/>
<polygon fill="black" stroke="black" points="1042.31,-278.43 1050.87,-272.18 1040.28,-271.74 1042.31,-278.43"/>
</g>
<!-- CvdFleetCommandHandler -->
<g id="node7" class="node">
<title>CvdFleetCommandHandler</title>
<ellipse fill="none" stroke="black" cx="1142.27" cy="-586" rx="108.58" ry="18"/>
<text text-anchor="middle" x="1142.27" y="-582.3" font-family="Times,serif" font-size="14.00">CvdFleetCommandHandler</text>
</g>
<!-- CvdServerHandler&#45;&gt;CvdFleetCommandHandler -->
<g id="edge10" class="edge">
<title>CvdServerHandler&#45;&gt;CvdFleetCommandHandler</title>
<path fill="none" stroke="black" d="M600.34,-358.6C607.81,-361.64 615.09,-365.39 621.46,-370 632.55,-378.03 628.57,-386.7 639.46,-395 665.85,-415.12 677.25,-412.99 709.46,-421 766.86,-435.28 927.3,-418.86 973.33,-456 1011.19,-486.54 973.59,-527.12 1010.33,-559 1017.69,-565.38 1026.14,-570.39 1035.14,-574.32"/>
<polygon fill="black" stroke="black" points="1034.11,-577.67 1044.7,-578.02 1036.64,-571.14 1034.11,-577.67"/>
</g>
<!-- CvdHelpHandler -->
<g id="node8" class="node">
<title>CvdHelpHandler</title>
<ellipse fill="none" stroke="black" cx="1142.27" cy="-424" rx="70.69" ry="18"/>
<text text-anchor="middle" x="1142.27" y="-420.3" font-family="Times,serif" font-size="14.00">CvdHelpHandler</text>
</g>
<!-- CvdServerHandler&#45;&gt;CvdHelpHandler -->
<g id="edge13" class="edge">
<title>CvdServerHandler&#45;&gt;CvdHelpHandler</title>
<path fill="none" stroke="black" d="M613.68,-354.1C719.97,-366.83 920.86,-391.08 992.33,-401 1018.3,-404.6 1046.76,-408.91 1071.77,-412.82"/>
<polygon fill="black" stroke="black" points="1071.48,-416.31 1081.9,-414.4 1072.57,-409.4 1071.48,-416.31"/>
</g>
<!-- CvdGenericCommandHandler -->
<g id="node9" class="node">
<title>CvdGenericCommandHandler</title>
<ellipse fill="none" stroke="black" cx="1142.27" cy="-370" rx="118.88" ry="18"/>
<text text-anchor="middle" x="1142.27" y="-366.3" font-family="Times,serif" font-size="14.00">CvdGenericCommandHandler</text>
</g>
<!-- CvdServerHandler&#45;&gt;CvdGenericCommandHandler -->
<g id="edge11" class="edge">
<title>CvdServerHandler&#45;&gt;CvdGenericCommandHandler</title>
<path fill="none" stroke="black" d="M619.66,-350.05C626.36,-350.39 633.03,-350.71 639.46,-351 767.55,-356.84 914.09,-362.24 1015.6,-365.78"/>
<polygon fill="black" stroke="black" points="1015.79,-369.29 1025.9,-366.14 1016.03,-362.29 1015.79,-369.29"/>
</g>
<!-- CvdResetCommandHandler -->
<g id="node10" class="node">
<title>CvdResetCommandHandler</title>
<ellipse fill="none" stroke="black" cx="1142.27" cy="-478" rx="110.48" ry="18"/>
<text text-anchor="middle" x="1142.27" y="-474.3" font-family="Times,serif" font-size="14.00">CvdResetCommandHandler</text>
</g>
<!-- CvdServerHandler&#45;&gt;CvdResetCommandHandler -->
<g id="edge15" class="edge">
<title>CvdServerHandler&#45;&gt;CvdResetCommandHandler</title>
<path fill="none" stroke="black" d="M595.23,-359.68C627.54,-368.22 670.76,-378.9 709.46,-386 771.76,-397.43 939.24,-386.46 992.33,-421 1005.37,-429.48 997.65,-442.01 1010.33,-451 1018.73,-456.95 1028.14,-461.65 1037.97,-465.36"/>
<polygon fill="black" stroke="black" points="1036.9,-468.69 1047.5,-468.61 1039.17,-462.07 1036.9,-468.69"/>
</g>
<!-- CvdShutdownHandler -->
<g id="node11" class="node">
<title>CvdShutdownHandler</title>
<ellipse fill="none" stroke="black" cx="1142.27" cy="-532" rx="89.08" ry="18"/>
<text text-anchor="middle" x="1142.27" y="-528.3" font-family="Times,serif" font-size="14.00">CvdShutdownHandler</text>
</g>
<!-- CvdServerHandler&#45;&gt;CvdShutdownHandler -->
<g id="edge18" class="edge">
<title>CvdServerHandler&#45;&gt;CvdShutdownHandler</title>
<path fill="none" stroke="black" d="M582.76,-361.66C615.47,-374.83 664.81,-393.06 709.46,-403 771.37,-416.78 944.45,-399.41 992.33,-441 1014.64,-460.37 988.71,-484.86 1010.33,-505 1020.31,-514.29 1032.6,-520.74 1045.62,-525.17"/>
<polygon fill="black" stroke="black" points="1044.63,-528.52 1055.21,-528.04 1046.64,-521.82 1044.63,-528.52"/>
</g>
<!-- CvdStartCommandHandler -->
<g id="node12" class="node">
<title>CvdStartCommandHandler</title>
<ellipse fill="none" stroke="black" cx="1142.27" cy="-316" rx="107.78" ry="18"/>
<text text-anchor="middle" x="1142.27" y="-312.3" font-family="Times,serif" font-size="14.00">CvdStartCommandHandler</text>
</g>
<!-- CvdServerHandler&#45;&gt;CvdStartCommandHandler -->
<g id="edge19" class="edge">
<title>CvdServerHandler&#45;&gt;CvdStartCommandHandler</title>
<path fill="none" stroke="black" d="M621.7,-344.99C710.62,-343.46 862.3,-339.72 992.33,-331 1008.33,-329.93 1025.27,-328.5 1041.76,-326.95"/>
<polygon fill="black" stroke="black" points="1042.34,-330.41 1051.96,-325.97 1041.68,-323.44 1042.34,-330.41"/>
</g>
<!-- CvdVersionHandler -->
<g id="node13" class="node">
<title>CvdVersionHandler</title>
<ellipse fill="none" stroke="black" cx="1142.27" cy="-100" rx="80.69" ry="18"/>
<text text-anchor="middle" x="1142.27" y="-96.3" font-family="Times,serif" font-size="14.00">CvdVersionHandler</text>
</g>
<!-- CvdServerHandler&#45;&gt;CvdVersionHandler -->
<g id="edge20" class="edge">
<title>CvdServerHandler&#45;&gt;CvdVersionHandler</title>
<path fill="none" stroke="black" d="M572.33,-329.11C590.62,-318.1 615.79,-304.14 639.46,-295 738.47,-256.78 957.57,-268.94 973.33,-256 1019.44,-218.16 966.59,-167.54 1010.33,-127 1021.93,-116.26 1036.61,-109.32 1051.93,-104.92"/>
<polygon fill="black" stroke="black" points="1053.21,-108.21 1062.06,-102.38 1051.51,-101.42 1053.21,-108.21"/>
</g>
<!-- TryAcloudCommand -->
<g id="node14" class="node">
<title>TryAcloudCommand</title>
<ellipse fill="none" stroke="black" cx="1142.27" cy="-154" rx="87.18" ry="18"/>
<text text-anchor="middle" x="1142.27" y="-150.3" font-family="Times,serif" font-size="14.00">TryAcloudCommand</text>
</g>
<!-- CvdServerHandler&#45;&gt;TryAcloudCommand -->
<g id="edge4" class="edge">
<title>CvdServerHandler&#45;&gt;TryAcloudCommand</title>
<path fill="none" stroke="black" d="M584.58,-330.56C601.29,-324.27 621.16,-317.25 639.46,-312 670.04,-303.22 678,-301.8 709.46,-297 771.86,-287.48 945.4,-313.22 992.33,-271 1022.66,-243.72 981.58,-209.93 1010.33,-181 1020.28,-171 1032.87,-164.22 1046.31,-159.71"/>
<polygon fill="black" stroke="black" points="1047.6,-162.98 1056.21,-156.8 1045.63,-156.26 1047.6,-162.98"/>
</g>
<!-- AcloudCommand -->
<g id="node15" class="node">
<title>AcloudCommand</title>
<ellipse fill="none" stroke="black" cx="841.4" cy="-591" rx="74.19" ry="18"/>
<text text-anchor="middle" x="841.4" y="-587.3" font-family="Times,serif" font-size="14.00">AcloudCommand</text>
</g>
<!-- CvdServerHandler&#45;&gt;AcloudCommand -->
<g id="edge6" class="edge">
<title>CvdServerHandler&#45;&gt;AcloudCommand</title>
<path fill="none" stroke="black" d="M556.85,-364.08C572.92,-389.33 604.59,-435.68 639.46,-468 659.71,-486.77 675.03,-479.8 691.46,-502 708.53,-525.06 688.38,-544.53 709.46,-564 722.69,-576.23 739.94,-583.52 757.55,-587.75"/>
<polygon fill="black" stroke="black" points="756.84,-591.18 767.35,-589.79 758.27,-584.32 756.84,-591.18"/>
</g>
<!-- AcloudTranslatorCommand -->
<g id="node16" class="node">
<title>AcloudTranslatorCommand</title>
<ellipse fill="none" stroke="black" cx="841.4" cy="-537" rx="110.48" ry="18"/>
<text text-anchor="middle" x="841.4" y="-533.3" font-family="Times,serif" font-size="14.00">AcloudTranslatorCommand</text>
</g>
<!-- CvdServerHandler&#45;&gt;AcloudTranslatorCommand -->
<g id="edge5" class="edge">
<title>CvdServerHandler&#45;&gt;AcloudTranslatorCommand</title>
<path fill="none" stroke="black" d="M556.79,-364.14C572.34,-388.25 602.92,-430.62 639.46,-455 659.68,-468.49 673.21,-455.93 691.46,-472 705.48,-484.35 694.76,-498.46 709.46,-510 717.11,-516.01 725.77,-520.78 734.9,-524.55"/>
<polygon fill="black" stroke="black" points="733.97,-527.94 744.56,-528.12 736.4,-521.37 733.97,-527.94"/>
</g>
<!-- CvdServerHandlerProxy -->
<g id="node17" class="node">
<title>CvdServerHandlerProxy</title>
<ellipse fill="none" stroke="black" cx="841.4" cy="-175" rx="97.48" ry="18"/>
<text text-anchor="middle" x="841.4" y="-171.3" font-family="Times,serif" font-size="14.00">CvdServerHandlerProxy</text>
</g>
<!-- CvdServerHandler&#45;&gt;CvdServerHandlerProxy -->
<g id="edge12" class="edge">
<title>CvdServerHandler&#45;&gt;CvdServerHandlerProxy</title>
<path fill="none" stroke="black" d="M558.87,-328.27C583.9,-296.03 642.07,-228.69 709.46,-202 723.62,-196.39 739.13,-191.88 754.35,-188.28"/>
<polygon fill="black" stroke="black" points="755.32,-191.65 764.31,-186.04 753.78,-184.82 755.32,-191.65"/>
</g>
<!-- CvdVmControlCommandHandler -->
<g id="node18" class="node">
<title>CvdVmControlCommandHandler</title>
<ellipse fill="none" stroke="black" cx="841.4" cy="-121" rx="131.88" ry="18"/>
<text text-anchor="middle" x="841.4" y="-117.3" font-family="Times,serif" font-size="14.00">CvdVmControlCommandHandler</text>
</g>
<!-- CvdServerHandler&#45;&gt;CvdVmControlCommandHandler -->
<g id="edge8" class="edge">
<title>CvdServerHandler&#45;&gt;CvdVmControlCommandHandler</title>
<path fill="none" stroke="black" d="M555.97,-328.08C571.91,-300.86 604.54,-248.13 639.46,-209 659.81,-186.2 668.48,-184.15 691.46,-164 699.5,-156.94 699.89,-152.8 709.46,-148 718.5,-143.46 728.25,-139.69 738.22,-136.55"/>
<polygon fill="black" stroke="black" points="739.22,-139.91 747.82,-133.73 737.24,-133.19 739.22,-139.91"/>
</g>
<!-- LoadConfigsCommand -->
<g id="node19" class="node">
<title>LoadConfigsCommand</title>
<ellipse fill="none" stroke="black" cx="841.4" cy="-229" rx="94.48" ry="18"/>
<text text-anchor="middle" x="841.4" y="-225.3" font-family="Times,serif" font-size="14.00">LoadConfigsCommand</text>
</g>
<!-- CvdServerHandler&#45;&gt;LoadConfigsCommand -->
<g id="edge14" class="edge">
<title>CvdServerHandler&#45;&gt;LoadConfigsCommand</title>
<path fill="none" stroke="black" d="M559.87,-328.08C576.59,-308.2 606.39,-276.87 639.46,-261 658.74,-251.75 704.72,-244.09 747.84,-238.59"/>
<polygon fill="black" stroke="black" points="748.36,-242.05 757.85,-237.34 747.5,-235.1 748.36,-242.05"/>
</g>
<!-- SerialLaunchCommand -->
<g id="node20" class="node">
<title>SerialLaunchCommand</title>
<ellipse fill="none" stroke="black" cx="841.4" cy="-483" rx="94.78" ry="18"/>
<text text-anchor="middle" x="841.4" y="-479.3" font-family="Times,serif" font-size="14.00">SerialLaunchCommand</text>
</g>
<!-- CvdServerHandler&#45;&gt;SerialLaunchCommand -->
<g id="edge16" class="edge">
<title>CvdServerHandler&#45;&gt;SerialLaunchCommand</title>
<path fill="none" stroke="black" d="M556.88,-364.11C572.31,-387.57 602.53,-427.82 639.46,-448 642.24,-449.52 704.9,-460.31 759.51,-469.51"/>
<polygon fill="black" stroke="black" points="759.15,-473 769.59,-471.21 760.31,-466.1 759.15,-473"/>
</g>
<!-- SerialPreset -->
<g id="node21" class="node">
<title>SerialPreset</title>
<ellipse fill="none" stroke="black" cx="841.4" cy="-67" rx="52.79" ry="18"/>
<text text-anchor="middle" x="841.4" y="-63.3" font-family="Times,serif" font-size="14.00">SerialPreset</text>
</g>
<!-- CvdServerHandler&#45;&gt;SerialPreset -->
<g id="edge17" class="edge">
<title>CvdServerHandler&#45;&gt;SerialPreset</title>
<path fill="none" stroke="black" d="M550.9,-327.82C565.81,-279.02 614.17,-145.36 709.46,-94 730.82,-82.49 756.56,-75.88 779.55,-72.08"/>
<polygon fill="black" stroke="black" points="780.19,-75.52 789.56,-70.57 779.15,-68.6 780.19,-75.52"/>
</g>
<!-- CommandSequenceExecutor -->
<g id="node4" class="node">
<title>CommandSequenceExecutor</title>
<ellipse fill="none" stroke="black" cx="317.33" cy="-261" rx="113.98" ry="18"/>
<text text-anchor="middle" x="317.33" y="-257.3" font-family="Times,serif" font-size="14.00">CommandSequenceExecutor</text>
</g>
<!-- CommandSequenceExecutor&#45;&gt;CvdServerHandler -->
<g id="edge28" class="edge">
<title>CommandSequenceExecutor&#45;&gt;CvdServerHandler</title>
<path fill="none" stroke="black" d="M362.33,-277.59C400.01,-291.8 454.26,-312.25 493.62,-327.09"/>
<polygon fill="black" stroke="black" points="492.69,-330.48 503.28,-330.74 495.16,-323.93 492.69,-330.48"/>
</g>
<!-- CommandSequenceExecutor&#45;&gt;AcloudCommand -->
<g id="edge22" class="edge">
<title>CommandSequenceExecutor&#45;&gt;AcloudCommand</title>
<path fill="none" stroke="black" d="M348.48,-285.66C373.03,-306.9 407.39,-339.35 431.07,-373 453.39,-404.7 440.61,-424.63 468.07,-452 552.5,-536.13 692.53,-570.01 774.67,-583.15"/>
<polygon fill="black" stroke="black" points="350.44,-282.74 340.56,-278.91 345.9,-288.06 350.44,-282.74"/>
</g>
<!-- CommandSequenceExecutor&#45;&gt;AcloudTranslatorCommand -->
<g id="edge21" class="edge">
<title>CommandSequenceExecutor&#45;&gt;AcloudTranslatorCommand</title>
<path fill="none" stroke="black" d="M344.64,-285.83C367.92,-308.12 402.54,-341.99 431.07,-373 448.37,-391.8 447.24,-402.2 468.07,-417 554.68,-478.51 593.24,-461.52 691.46,-502 699.55,-505.34 701.12,-507.32 709.46,-510 726.81,-515.57 745.83,-520.27 763.86,-524.1"/>
<polygon fill="black" stroke="black" points="346.85,-283.11 337.2,-278.74 342.02,-288.18 346.85,-283.11"/>
</g>
<!-- CommandSequenceExecutor&#45;&gt;CvdServerHandlerProxy -->
<g id="edge23" class="edge">
<title>CommandSequenceExecutor&#45;&gt;CvdServerHandlerProxy</title>
<path fill="none" stroke="black" d="M406.72,-246.44C508.48,-229.68 673.69,-202.46 768.11,-186.91"/>
<polygon fill="black" stroke="black" points="406.07,-243 396.77,-248.08 407.21,-249.91 406.07,-243"/>
</g>
<!-- CommandSequenceExecutor&#45;&gt;CvdVmControlCommandHandler -->
<g id="edge27" class="edge">
<title>CommandSequenceExecutor&#45;&gt;CvdVmControlCommandHandler</title>
<path fill="none" stroke="black" d="M370.24,-240.74C398.85,-229.96 435.15,-216.93 468.07,-207 573.81,-175.11 601.72,-172.27 709.46,-148 727.8,-143.87 747.64,-139.65 766.2,-135.81"/>
<polygon fill="black" stroke="black" points="368.96,-237.48 360.85,-244.3 371.44,-244.03 368.96,-237.48"/>
</g>
<!-- CommandSequenceExecutor&#45;&gt;LoadConfigsCommand -->
<g id="edge24" class="edge">
<title>CommandSequenceExecutor&#45;&gt;LoadConfigsCommand</title>
<path fill="none" stroke="black" d="M433.68,-253.93C529.43,-248.06 663.65,-239.83 751.29,-234.46"/>
<polygon fill="black" stroke="black" points="433.43,-250.44 423.67,-254.54 433.86,-257.43 433.43,-250.44"/>
</g>
<!-- CommandSequenceExecutor&#45;&gt;SerialLaunchCommand -->
<g id="edge26" class="edge">
<title>CommandSequenceExecutor&#45;&gt;SerialLaunchCommand</title>
<path fill="none" stroke="black" d="M346.6,-285.36C399.7,-329.39 519.83,-421.01 639.46,-457 675,-467.69 715.37,-473.98 750.56,-477.69"/>
<polygon fill="black" stroke="black" points="348.58,-282.45 338.66,-278.71 344.08,-287.82 348.58,-282.45"/>
</g>
<!-- CommandSequenceExecutor&#45;&gt;SerialPreset -->
<g id="edge25" class="edge">
<title>CommandSequenceExecutor&#45;&gt;SerialPreset</title>
<path fill="none" stroke="black" d="M349.05,-236.9C378.25,-214.99 424.1,-183.11 468.07,-163 578.4,-112.54 719.74,-85.34 792.45,-73.81"/>
<polygon fill="black" stroke="black" points="346.77,-234.24 340.91,-243.07 351,-239.82 346.77,-234.24"/>
</g>
<!-- cvd_status -->
<g id="node26" class="node">
<title>cvd_status</title>
<ellipse fill="none" stroke="black" cx="1443.45" cy="-586" rx="48.19" ry="18"/>
<text text-anchor="middle" x="1443.45" y="-582.3" font-family="Times,serif" font-size="14.00">cvd_status</text>
</g>
<!-- CvdFleetCommandHandler&#45;&gt;cvd_status -->
<g id="edge33" class="edge">
<title>CvdFleetCommandHandler&#45;&gt;cvd_status</title>
<path fill="none" stroke="black" d="M1250.86,-586C1296.03,-586 1346.77,-586 1384.67,-586"/>
<polygon fill="black" stroke="black" points="1385.01,-589.5 1395.01,-586 1385.01,-582.5 1385.01,-589.5"/>
<text text-anchor="middle" x="1318.21" y="-589.8" font-family="Times,serif" font-size="14.00">fork/exec</text>
</g>
<!-- all_cvd -->
<g id="node25" class="node">
<title>all_cvd</title>
<ellipse fill="none" stroke="black" cx="1443.45" cy="-505" rx="32.49" ry="18"/>
<text text-anchor="middle" x="1443.45" y="-501.3" font-family="Times,serif" font-size="14.00">*_cvd</text>
</g>
<!-- CvdHelpHandler&#45;&gt;all_cvd -->
<g id="edge32" class="edge">
<title>CvdHelpHandler&#45;&gt;all_cvd</title>
<path fill="none" stroke="black" d="M1202.14,-433.64C1227.02,-438.18 1256.2,-444.12 1282.21,-451 1318.49,-460.6 1326.65,-466.02 1362.21,-478 1376.45,-482.8 1392.1,-488.07 1405.78,-492.67"/>
<polygon fill="black" stroke="black" points="1404.74,-496.01 1415.34,-495.88 1406.98,-489.38 1404.74,-496.01"/>
<text text-anchor="middle" x="1318.21" y="-474.8" font-family="Times,serif" font-size="14.00">fork/exec</text>
</g>
<!-- restart_cvd -->
<g id="node23" class="node">
<title>restart_cvd</title>
<ellipse fill="none" stroke="black" cx="1443.45" cy="-451" rx="50.09" ry="18"/>
<text text-anchor="middle" x="1443.45" y="-447.3" font-family="Times,serif" font-size="14.00">restart_cvd</text>
</g>
<!-- CvdGenericCommandHandler&#45;&gt;restart_cvd -->
<g id="edge30" class="edge">
<title>CvdGenericCommandHandler&#45;&gt;restart_cvd</title>
<path fill="none" stroke="black" d="M1236.75,-380.94C1252.41,-384.79 1268.14,-389.98 1282.21,-397 1287.56,-399.67 1287,-403.07 1292.21,-406 1322.07,-422.78 1358.86,-433.93 1388.56,-440.94"/>
<polygon fill="black" stroke="black" points="1387.81,-444.36 1398.34,-443.16 1389.36,-437.53 1387.81,-444.36"/>
<text text-anchor="middle" x="1318.21" y="-431.8" font-family="Times,serif" font-size="14.00">fork/exec</text>
</g>
<!-- powerwash_cvd -->
<g id="node24" class="node">
<title>powerwash_cvd</title>
<ellipse fill="none" stroke="black" cx="1443.45" cy="-397" rx="67.69" ry="18"/>
<text text-anchor="middle" x="1443.45" y="-393.3" font-family="Times,serif" font-size="14.00">powerwash_cvd</text>
</g>
<!-- CvdGenericCommandHandler&#45;&gt;powerwash_cvd -->
<g id="edge31" class="edge">
<title>CvdGenericCommandHandler&#45;&gt;powerwash_cvd</title>
<path fill="none" stroke="black" d="M1244.98,-379.18C1285.55,-382.84 1331.37,-386.98 1368.65,-390.34"/>
<polygon fill="black" stroke="black" points="1368.66,-393.85 1378.93,-391.27 1369.29,-386.88 1368.66,-393.85"/>
<text text-anchor="middle" x="1318.21" y="-390.8" font-family="Times,serif" font-size="14.00">fork/exec</text>
</g>
<!-- stop_cvd -->
<g id="node27" class="node">
<title>stop_cvd</title>
<ellipse fill="none" stroke="black" cx="1443.45" cy="-343" rx="42.49" ry="18"/>
<text text-anchor="middle" x="1443.45" y="-339.3" font-family="Times,serif" font-size="14.00">stop_cvd</text>
</g>
<!-- CvdGenericCommandHandler&#45;&gt;stop_cvd -->
<g id="edge34" class="edge">
<title>CvdGenericCommandHandler&#45;&gt;stop_cvd</title>
<path fill="none" stroke="black" d="M1244.98,-360.82C1294.38,-356.36 1351.57,-351.2 1391.65,-347.59"/>
<polygon fill="black" stroke="black" points="1392.06,-351.06 1401.71,-346.68 1391.43,-344.09 1392.06,-351.06"/>
<text text-anchor="middle" x="1318.21" y="-359.8" font-family="Times,serif" font-size="14.00">fork/exec</text>
</g>
<!-- cvd_host_bugreport -->
<g id="node28" class="node">
<title>cvd_host_bugreport</title>
<ellipse fill="none" stroke="black" cx="1443.45" cy="-289" rx="81.49" ry="18"/>
<text text-anchor="middle" x="1443.45" y="-285.3" font-family="Times,serif" font-size="14.00">cvd_host_bugreport</text>
</g>
<!-- CvdGenericCommandHandler&#45;&gt;cvd_host_bugreport -->
<g id="edge35" class="edge">
<title>CvdGenericCommandHandler&#45;&gt;cvd_host_bugreport</title>
<path fill="none" stroke="black" d="M1238.53,-359.31C1253.67,-355.42 1268.76,-350.15 1282.21,-343 1287.76,-340.05 1286.8,-336.21 1292.21,-333 1315.64,-319.11 1343.74,-309.35 1369.27,-302.62"/>
<polygon fill="black" stroke="black" points="1370.45,-305.94 1379.29,-300.1 1368.74,-299.15 1370.45,-305.94"/>
<text text-anchor="middle" x="1318.21" y="-336.8" font-family="Times,serif" font-size="14.00">fork/exec</text>
</g>
<!-- launch_cvd -->
<g id="node22" class="node">
<title>launch_cvd</title>
<ellipse fill="none" stroke="black" cx="1443.45" cy="-235" rx="51.19" ry="18"/>
<text text-anchor="middle" x="1443.45" y="-231.3" font-family="Times,serif" font-size="14.00">launch_cvd</text>
</g>
<!-- CvdStartCommandHandler&#45;&gt;launch_cvd -->
<g id="edge29" class="edge">
<title>CvdStartCommandHandler&#45;&gt;launch_cvd</title>
<path fill="none" stroke="black" d="M1244.62,-310.19C1258.5,-305.63 1271.6,-298.88 1282.21,-289 1294.68,-277.4 1279.29,-263.1 1292.21,-252 1317.61,-230.18 1355.01,-225.88 1386.14,-227.07"/>
<polygon fill="black" stroke="black" points="1386.24,-230.58 1396.43,-227.66 1386.65,-223.59 1386.24,-230.58"/>
<text text-anchor="middle" x="1318.21" y="-255.8" font-family="Times,serif" font-size="14.00">fork/exec</text>
</g>
</g>
</svg>
