<?xml version="1.0" encoding="UTF-8" standalone="no"?>
<!DOCTYPE svg PUBLIC "-//W3C//DTD SVG 1.1//EN"
 "http://www.w3.org/Graphics/SVG/1.1/DTD/svg11.dtd">
<!-- Generated by graphviz version 2.43.0 (0)
 -->
<!-- Title: %3 Pages: 1 -->
<svg width="901pt" height="179pt"
 viewBox="0.00 0.00 900.86 179.00" xmlns="http://www.w3.org/2000/svg" xmlns:xlink="http://www.w3.org/1999/xlink">
<g id="graph0" class="graph" transform="scale(1 1) rotate(0) translate(4 175)">
<title>%3</title>
<polygon fill="white" stroke="transparent" points="-4,4 -4,-175 896.86,-175 896.86,4 -4,4"/>
<g id="clust1" class="cluster">
<title>cluster_cvd_client</title>
<polygon fill="none" stroke="black" points="8,-88 8,-163 117.59,-163 117.59,-88 8,-88"/>
<text text-anchor="middle" x="62.8" y="-147.8" font-family="Times,serif" font-size="14.00">cvd (client)</text>
</g>
<g id="clust2" class="cluster">
<title>cluster_cvd_server</title>
<polygon fill="none" stroke="black" points="195.59,-8 195.59,-163 710.17,-163 710.17,-8 195.59,-8"/>
<text text-anchor="middle" x="452.88" y="-147.8" font-family="Times,serif" font-size="14.00">cvd (server)</text>
</g>
<!-- CvdClient -->
<g id="node1" class="node">
<title>CvdClient</title>
<ellipse fill="none" stroke="black" cx="62.8" cy="-114" rx="46.59" ry="18"/>
<text text-anchor="middle" x="62.8" y="-110.3" font-family="Times,serif" font-size="14.00">CvdClient</text>
</g>
<!-- CvdServer -->
<g id="node2" class="node">
<title>CvdServer</title>
<ellipse fill="none" stroke="black" cx="251.69" cy="-114" rx="48.19" ry="18"/>
<text text-anchor="middle" x="251.69" y="-110.3" font-family="Times,serif" font-size="14.00">CvdServer</text>
</g>
<!-- CvdClient&#45;&gt;CvdServer -->
<g id="edge1" class="edge">
<title>CvdClient&#45;&gt;CvdServer</title>
<path fill="none" stroke="black" d="M109.99,-114C135.2,-114 166.64,-114 193.39,-114"/>
<polygon fill="black" stroke="black" points="193.4,-117.5 203.4,-114 193.4,-110.5 193.4,-117.5"/>
<text text-anchor="middle" x="156.59" y="-117.8" font-family="Times,serif" font-size="14.00">AF_UNIX</text>
</g>
<!-- CvdServerHandler -->
<g id="node3" class="node">
<title>CvdServerHandler</title>
<ellipse fill="none" stroke="black" stroke-dasharray="5,2" cx="413.48" cy="-114" rx="76.89" ry="18"/>
<text text-anchor="middle" x="413.48" y="-110.3" font-family="Times,serif" font-size="14.00">CvdServerHandler</text>
</g>
<!-- CvdServer&#45;&gt;CvdServerHandler -->
<g id="edge2" class="edge">
<title>CvdServer&#45;&gt;CvdServerHandler</title>
<path fill="none" stroke="black" d="M300.2,-114C308.55,-114 317.48,-114 326.5,-114"/>
<polygon fill="black" stroke="black" points="326.72,-117.5 336.72,-114 326.72,-110.5 326.72,-117.5"/>
</g>
<!-- Request -->
<g id="node4" class="node">
<title>Request</title>
<polygon fill="none" stroke="black" points="527.17,-16.5 527.17,-131.5 702.17,-131.5 702.17,-16.5 527.17,-16.5"/>
<text text-anchor="middle" x="614.67" y="-116.3" font-family="Times,serif" font-size="14.00">CvdServerHandlerProxy</text>
<polyline fill="none" stroke="black" points="527.17,-108.5 702.17,-108.5 "/>
<text text-anchor="middle" x="614.67" y="-93.3" font-family="Times,serif" font-size="14.00">CommandSequenceExecutor</text>
<polyline fill="none" stroke="black" points="527.17,-85.5 702.17,-85.5 "/>
<text text-anchor="middle" x="614.67" y="-70.3" font-family="Times,serif" font-size="14.00">CvdLoadConfigsCommand</text>
<polyline fill="none" stroke="black" points="527.17,-62.5 702.17,-62.5 "/>
<text text-anchor="middle" x="614.67" y="-47.3" font-family="Times,serif" font-size="14.00">CommandSequenceExecutor</text>
<polyline fill="none" stroke="black" points="527.17,-39.5 702.17,-39.5 "/>
<text text-anchor="middle" x="614.67" y="-24.3" font-family="Times,serif" font-size="14.00">CvdStartCommandHandler</text>
</g>
<!-- CvdServerHandler&#45;&gt;Request -->
<g id="edge3" class="edge">
<title>CvdServerHandler&#45;&gt;Request:proxy</title>
<path fill="none" stroke="black" d="M487.19,-119.01C497.06,-119.45 507.18,-119.78 517.03,-119.92"/>
<polygon fill="black" stroke="black" points="517.14,-123.42 527.17,-120 517.2,-116.43 517.14,-123.42"/>
</g>
<!-- launch_cvd -->
<g id="node5" class="node">
<title>launch_cvd</title>
<ellipse fill="none" stroke="black" cx="841.51" cy="-28" rx="51.19" ry="18"/>
<text text-anchor="middle" x="841.51" y="-24.3" font-family="Times,serif" font-size="14.00">launch_cvd</text>
</g>
<!-- Request&#45;&gt;launch_cvd -->
<g id="edge4" class="edge">
<title>Request:start&#45;&gt;launch_cvd</title>
<path fill="none" stroke="black" d="M703.67,-28C728.61,-28 756.1,-28 779.86,-28"/>
<polygon fill="black" stroke="black" points="780.15,-31.5 790.15,-28 780.15,-24.5 780.15,-31.5"/>
<text text-anchor="middle" x="746.17" y="-31.8" font-family="Times,serif" font-size="14.00">fork/exec</text>
</g>
</g>
</svg>
