<?xml version="1.0" encoding="UTF-8" standalone="no"?>
<!DOCTYPE svg PUBLIC "-//W3C//DTD SVG 1.1//EN"
 "http://www.w3.org/Graphics/SVG/1.1/DTD/svg11.dtd">
<!-- Generated by graphviz version 2.43.0 (0)
 -->
<!-- Title: %3 Pages: 1 -->
<svg width="1567pt" height="434pt"
 viewBox="0.00 0.00 1566.50 434.00" xmlns="http://www.w3.org/2000/svg" xmlns:xlink="http://www.w3.org/1999/xlink">
<g id="graph0" class="graph" transform="scale(1 1) rotate(0) translate(4 430)">
<title>%3</title>
<polygon fill="white" stroke="transparent" points="-4,4 -4,-430 1562.5,-430 1562.5,4 -4,4"/>
<g id="clust2" class="cluster">
<title>cluster_android</title>
<polygon fill="none" stroke="black" points="319.5,-8 319.5,-166 1154.5,-166 1154.5,-8 319.5,-8"/>
<text text-anchor="middle" x="737" y="-150.8" font-family="Times,serif" font-size="14.00">Android VM</text>
</g>
<g id="clust3" class="cluster">
<title>cluster_keymint</title>
<polygon fill="none" stroke="black" stroke-dasharray="1,5" points="327.5,-16 327.5,-91 713.5,-91 713.5,-16 327.5,-16"/>
<text text-anchor="middle" x="520.5" y="-75.8" font-family="Times,serif" font-size="14.00">One of:</text>
</g>
<!-- browser -->
<g id="node1" class="node">
<title>browser</title>
<ellipse fill="none" stroke="black" cx="1291.5" cy="-408" rx="40.09" ry="18"/>
<text text-anchor="middle" x="1291.5" y="-404.3" font-family="Times,serif" font-size="14.00">Browser</text>
</g>
<!-- webRTC -->
<g id="node6" class="node">
<title>webRTC</title>
<ellipse fill="none" stroke="black" cx="1291.5" cy="-336" rx="42.49" ry="18"/>
<text text-anchor="middle" x="1291.5" y="-332.3" font-family="Times,serif" font-size="14.00">webRTC</text>
</g>
<!-- browser&#45;&gt;webRTC -->
<g id="edge1" class="edge">
<title>browser&#45;&gt;webRTC</title>
<path fill="none" stroke="black" d="M1291.5,-389.7C1291.5,-381.98 1291.5,-372.71 1291.5,-364.11"/>
<polygon fill="black" stroke="black" points="1295,-364.1 1291.5,-354.1 1288,-364.1 1295,-364.1"/>
</g>
<!-- confirmationui_sign -->
<g id="node2" class="node">
<title>confirmationui_sign</title>
<polygon fill="none" stroke="red" points="1085.5,-354 931.5,-354 931.5,-318 1085.5,-318 1085.5,-354"/>
<text text-anchor="middle" x="1008.5" y="-332.3" font-family="Times,serif" font-size="14.00">internal/confui_sign.sock</text>
</g>
<!-- confirmationui_sign&#45;&gt;webRTC -->
<g id="edge10" class="edge">
<title>confirmationui_sign&#45;&gt;webRTC</title>
<path fill="none" stroke="red" d="M1095.81,-336C1143.44,-336 1191.08,-336 1238.71,-336"/>
<polygon fill="red" stroke="red" points="1095.61,-332.5 1085.61,-336 1095.61,-339.5 1095.61,-332.5"/>
<polygon fill="red" stroke="red" points="1238.87,-339.5 1248.87,-336 1238.87,-332.5 1238.87,-339.5"/>
</g>
<!-- run_cvd -->
<g id="node3" class="node">
<title>run_cvd</title>
<ellipse fill="none" stroke="black" cx="709.5" cy="-408" rx="39.79" ry="18"/>
<text text-anchor="middle" x="709.5" y="-404.3" font-family="Times,serif" font-size="14.00">run_cvd</text>
</g>
<!-- secure_env -->
<g id="node4" class="node">
<title>secure_env</title>
<ellipse fill="none" stroke="black" stroke-width="2" cx="709.5" cy="-336" rx="57.39" ry="18"/>
<text text-anchor="start" x="673.5" y="-333.3" font-family="Times,serif" font-size="14.00"> </text>
<text text-anchor="start" x="677.5" y="-333.3" font-family="Times,serif" font-weight="bold" font-size="14.00">secure_env</text>
<text text-anchor="start" x="741.5" y="-333.3" font-family="Times,serif" font-size="14.00"> </text>
</g>
<!-- run_cvd&#45;&gt;secure_env -->
<g id="edge2" class="edge">
<title>run_cvd&#45;&gt;secure_env</title>
<path fill="none" stroke="black" d="M709.5,-389.7C709.5,-381.98 709.5,-372.71 709.5,-364.11"/>
<polygon fill="black" stroke="black" points="713,-364.1 709.5,-354.1 706,-364.1 713,-364.1"/>
</g>
<!-- secure_env&#45;&gt;confirmationui_sign -->
<g id="edge9" class="edge">
<title>secure_env&#45;&gt;confirmationui_sign</title>
<path fill="none" stroke="red" d="M777,-336C824.94,-336 872.89,-336 920.83,-336"/>
<polygon fill="red" stroke="red" points="776.73,-332.5 766.73,-336 776.73,-339.5 776.73,-332.5"/>
<polygon fill="red" stroke="red" points="921.06,-339.5 931.06,-336 921.06,-332.5 921.06,-339.5"/>
</g>
<!-- host_keymaster_in -->
<g id="node7" class="node">
<title>host_keymaster_in</title>
<polygon fill="none" stroke="blue" points="183,-282 0,-282 0,-246 183,-246 183,-282"/>
<text text-anchor="middle" x="91.5" y="-260.3" font-family="Times,serif" font-size="14.00">internal/keymaster_fifo_vm.in</text>
</g>
<!-- secure_env&#45;&gt;host_keymaster_in -->
<g id="edge19" class="edge">
<title>secure_env&#45;&gt;host_keymaster_in</title>
<path fill="none" stroke="blue" d="M654.65,-330.55C561.89,-322.77 367.94,-305.39 193.27,-282.05"/>
<polygon fill="blue" stroke="blue" points="193.5,-278.55 183.12,-280.69 192.56,-285.49 193.5,-278.55"/>
</g>
<!-- host_keymaster_out -->
<g id="node8" class="node">
<title>host_keymaster_out</title>
<polygon fill="none" stroke="blue" points="391.5,-282 201.5,-282 201.5,-246 391.5,-246 391.5,-282"/>
<text text-anchor="middle" x="296.5" y="-260.3" font-family="Times,serif" font-size="14.00">internal/keymaster_fifo_vm.out</text>
</g>
<!-- secure_env&#45;&gt;host_keymaster_out -->
<g id="edge17" class="edge">
<title>secure_env&#45;&gt;host_keymaster_out</title>
<path fill="none" stroke="blue" d="M650.46,-324.99C582.95,-313.55 471.47,-294.66 391.65,-281.13"/>
<polygon fill="blue" stroke="blue" points="650.06,-328.47 660.5,-326.7 651.23,-321.57 650.06,-328.47"/>
</g>
<!-- host_gatekeeper_in -->
<g id="node9" class="node">
<title>host_gatekeeper_in</title>
<polygon fill="none" stroke="green" points="595,-282 410,-282 410,-246 595,-246 595,-282"/>
<text text-anchor="middle" x="502.5" y="-260.3" font-family="Times,serif" font-size="14.00">internal/gatekeeper_fifo_vm.in</text>
</g>
<!-- secure_env&#45;&gt;host_gatekeeper_in -->
<g id="edge13" class="edge">
<title>secure_env&#45;&gt;host_gatekeeper_in</title>
<path fill="none" stroke="green" d="M672.01,-322.32C641.56,-312.02 598.01,-297.3 562.68,-285.35"/>
<polygon fill="green" stroke="green" points="563.54,-281.95 552.95,-282.06 561.3,-288.58 563.54,-281.95"/>
</g>
<!-- host_gatekeeper_out -->
<g id="node10" class="node">
<title>host_gatekeeper_out</title>
<polygon fill="none" stroke="green" points="805.5,-282 613.5,-282 613.5,-246 805.5,-246 805.5,-282"/>
<text text-anchor="middle" x="709.5" y="-260.3" font-family="Times,serif" font-size="14.00">internal/gatekeeper_fifo_vm.out</text>
</g>
<!-- secure_env&#45;&gt;host_gatekeeper_out -->
<g id="edge11" class="edge">
<title>secure_env&#45;&gt;host_gatekeeper_out</title>
<path fill="none" stroke="green" d="M709.5,-307.67C709.5,-299.05 709.5,-289.79 709.5,-282.1"/>
<polygon fill="green" stroke="green" points="706,-307.7 709.5,-317.7 713,-307.7 706,-307.7"/>
</g>
<!-- host_keymint_in -->
<g id="node13" class="node">
<title>host_keymint_in</title>
<polygon fill="none" stroke="blue" points="995.5,-282 823.5,-282 823.5,-246 995.5,-246 995.5,-282"/>
<text text-anchor="middle" x="909.5" y="-260.3" font-family="Times,serif" font-size="14.00">internal/keymint_fifo_vm.in</text>
</g>
<!-- secure_env&#45;&gt;host_keymint_in -->
<g id="edge26" class="edge">
<title>secure_env&#45;&gt;host_keymint_in</title>
<path fill="none" stroke="blue" d="M746.18,-322.16C775.44,-311.92 816.97,-297.39 850.83,-285.54"/>
<polygon fill="blue" stroke="blue" points="852.33,-288.72 860.61,-282.11 850.02,-282.11 852.33,-288.72"/>
</g>
<!-- host_keymint_out -->
<g id="node14" class="node">
<title>host_keymint_out</title>
<polygon fill="none" stroke="blue" points="1193,-282 1014,-282 1014,-246 1193,-246 1193,-282"/>
<text text-anchor="middle" x="1103.5" y="-260.3" font-family="Times,serif" font-size="14.00">internal/keymint_fifo_vm.out</text>
</g>
<!-- secure_env&#45;&gt;host_keymint_out -->
<g id="edge24" class="edge">
<title>secure_env&#45;&gt;host_keymint_out</title>
<path fill="none" stroke="blue" d="M768.27,-324.56C833.18,-313.03 938.45,-294.32 1013.71,-280.95"/>
<polygon fill="blue" stroke="blue" points="767.44,-321.15 758.21,-326.35 768.67,-328.04 767.44,-321.15"/>
</g>
<!-- vmm -->
<g id="node5" class="node">
<title>vmm</title>
<ellipse fill="none" stroke="black" cx="809.5" cy="-192" rx="64.19" ry="18"/>
<text text-anchor="middle" x="809.5" y="-188.3" font-family="Times,serif" font-size="14.00">crosvm / qemu</text>
</g>
<!-- confirmationui_console -->
<g id="node20" class="node">
<title>confirmationui_console</title>
<polygon fill="none" stroke="red" points="1039.5,-135 969.5,-135 969.5,-99 1039.5,-99 1039.5,-135"/>
<text text-anchor="middle" x="1004.5" y="-113.3" font-family="Times,serif" font-size="14.00">/dev/hvc8</text>
</g>
<!-- vmm&#45;&gt;confirmationui_console -->
<g id="edge7" class="edge">
<title>vmm&#45;&gt;confirmationui_console</title>
<path fill="none" stroke="red" d="M868.88,-177.74C881.45,-174.36 894.53,-170.42 906.5,-166 926.14,-158.74 947.09,-148.81 964.56,-139.85"/>
<polygon fill="red" stroke="red" points="867.74,-174.42 858.95,-180.32 869.5,-181.19 867.74,-174.42"/>
<polygon fill="red" stroke="red" points="966.62,-142.73 973.87,-135.01 963.39,-136.52 966.62,-142.73"/>
</g>
<!-- gatekeeper_console -->
<g id="node21" class="node">
<title>gatekeeper_console</title>
<polygon fill="none" stroke="green" points="897.5,-135 827.5,-135 827.5,-99 897.5,-99 897.5,-135"/>
<text text-anchor="middle" x="862.5" y="-113.3" font-family="Times,serif" font-size="14.00">/dev/hvc4</text>
</g>
<!-- vmm&#45;&gt;gatekeeper_console -->
<g id="edge15" class="edge">
<title>vmm&#45;&gt;gatekeeper_console</title>
<path fill="none" stroke="green" d="M827.71,-165.92C833.02,-158.61 838.82,-150.62 844.13,-143.3"/>
<polygon fill="green" stroke="green" points="824.84,-163.92 821.79,-174.07 830.5,-168.03 824.84,-163.92"/>
<polygon fill="green" stroke="green" points="847.05,-145.24 850.09,-135.09 841.38,-141.13 847.05,-145.24"/>
</g>
<!-- keymaster_console -->
<g id="node22" class="node">
<title>keymaster_console</title>
<polygon fill="none" stroke="blue" points="792.5,-135 722.5,-135 722.5,-99 792.5,-99 792.5,-135"/>
<text text-anchor="middle" x="757.5" y="-113.3" font-family="Times,serif" font-size="14.00">/dev/hvc3</text>
</g>
<!-- vmm&#45;&gt;keymaster_console -->
<g id="edge21" class="edge">
<title>vmm&#45;&gt;keymaster_console</title>
<path fill="none" stroke="blue" d="M791.63,-165.92C786.43,-158.61 780.74,-150.62 775.52,-143.3"/>
<polygon fill="blue" stroke="blue" points="788.79,-167.95 797.44,-174.07 794.49,-163.89 788.79,-167.95"/>
<polygon fill="blue" stroke="blue" points="778.33,-141.21 769.68,-135.09 772.63,-145.27 778.33,-141.21"/>
</g>
<!-- keymint_console -->
<g id="node23" class="node">
<title>keymint_console</title>
<polygon fill="none" stroke="blue" points="583,-135 506,-135 506,-99 583,-99 583,-135"/>
<text text-anchor="middle" x="544.5" y="-113.3" font-family="Times,serif" font-size="14.00">/dev/hvc11</text>
</g>
<!-- vmm&#45;&gt;keymint_console -->
<g id="edge28" class="edge">
<title>vmm&#45;&gt;keymint_console</title>
<path fill="none" stroke="blue" d="M753.65,-176.68C740.47,-173.24 726.48,-169.53 713.5,-166 672.65,-154.88 626.42,-141.71 592.65,-131.98"/>
<polygon fill="blue" stroke="blue" points="752.99,-180.12 763.54,-179.25 754.75,-173.35 752.99,-180.12"/>
<polygon fill="blue" stroke="blue" points="593.61,-128.61 583.03,-129.2 591.67,-135.34 593.61,-128.61"/>
</g>
<!-- host_confirmationui_in -->
<g id="node11" class="node">
<title>host_confirmationui_in</title>
<polygon fill="none" stroke="red" points="1372,-282 1211,-282 1211,-246 1372,-246 1372,-282"/>
<text text-anchor="middle" x="1291.5" y="-260.3" font-family="Times,serif" font-size="14.00">internal/confui_fifo_vm.in</text>
</g>
<!-- webRTC&#45;&gt;host_confirmationui_in -->
<g id="edge5" class="edge">
<title>webRTC&#45;&gt;host_confirmationui_in</title>
<path fill="none" stroke="red" d="M1291.5,-317.7C1291.5,-309.98 1291.5,-300.71 1291.5,-292.11"/>
<polygon fill="red" stroke="red" points="1295,-292.1 1291.5,-282.1 1288,-292.1 1295,-292.1"/>
</g>
<!-- host_confirmationui_out -->
<g id="node12" class="node">
<title>host_confirmationui_out</title>
<polygon fill="none" stroke="red" points="1558.5,-282 1390.5,-282 1390.5,-246 1558.5,-246 1558.5,-282"/>
<text text-anchor="middle" x="1474.5" y="-260.3" font-family="Times,serif" font-size="14.00">internal/confui_fifo_vm.out</text>
</g>
<!-- webRTC&#45;&gt;host_confirmationui_out -->
<g id="edge3" class="edge">
<title>webRTC&#45;&gt;host_confirmationui_out</title>
<path fill="none" stroke="red" d="M1331.57,-319.67C1360.65,-308.55 1400,-293.5 1430.05,-282"/>
<polygon fill="red" stroke="red" points="1330.22,-316.44 1322.13,-323.28 1332.72,-322.98 1330.22,-316.44"/>
</g>
<!-- host_keymaster_in&#45;&gt;vmm -->
<g id="edge20" class="edge">
<title>host_keymaster_in&#45;&gt;vmm</title>
<path fill="none" stroke="blue" d="M183.11,-247.25C186.28,-246.81 189.41,-246.39 192.5,-246 388.69,-221.1 621.5,-204.62 737.01,-197.32"/>
<polygon fill="blue" stroke="blue" points="737.38,-200.8 747.14,-196.68 736.94,-193.81 737.38,-200.8"/>
</g>
<!-- host_keymaster_out&#45;&gt;vmm -->
<g id="edge18" class="edge">
<title>host_keymaster_out&#45;&gt;vmm</title>
<path fill="none" stroke="blue" d="M402.02,-245.95C533.47,-226.91 674.52,-209.31 751.65,-199.94"/>
<polygon fill="blue" stroke="blue" points="401.16,-242.54 391.77,-247.44 402.17,-249.47 401.16,-242.54"/>
</g>
<!-- host_gatekeeper_in&#45;&gt;vmm -->
<g id="edge14" class="edge">
<title>host_gatekeeper_in&#45;&gt;vmm</title>
<path fill="none" stroke="green" d="M577.21,-245.97C630.84,-233.74 702.08,-217.49 751.46,-206.23"/>
<polygon fill="green" stroke="green" points="752.37,-209.62 761.34,-203.98 750.82,-202.79 752.37,-209.62"/>
</g>
<!-- host_gatekeeper_out&#45;&gt;vmm -->
<g id="edge12" class="edge">
<title>host_gatekeeper_out&#45;&gt;vmm</title>
<path fill="none" stroke="green" d="M742.22,-240.1C756.75,-229.92 773.51,-218.2 786.66,-208.99"/>
<polygon fill="green" stroke="green" points="740.15,-237.27 733.96,-245.88 744.16,-243.01 740.15,-237.27"/>
</g>
<!-- host_confirmationui_in&#45;&gt;vmm -->
<g id="edge6" class="edge">
<title>host_confirmationui_in&#45;&gt;vmm</title>
<path fill="none" stroke="red" d="M1210.53,-247.34C1207.82,-246.88 1205.14,-246.43 1202.5,-246 1089.02,-227.52 956.35,-210.6 877.82,-201.06"/>
<polygon fill="red" stroke="red" points="877.93,-197.55 867.58,-199.82 877.09,-204.5 877.93,-197.55"/>
</g>
<!-- host_confirmationui_out&#45;&gt;vmm -->
<g id="edge4" class="edge">
<title>host_confirmationui_out&#45;&gt;vmm</title>
<path fill="none" stroke="red" d="M1380.45,-245.92C1189.25,-220.04 974.89,-203.91 871.5,-196.94"/>
<polygon fill="red" stroke="red" points="1380.02,-249.4 1390.4,-247.28 1380.97,-242.46 1380.02,-249.4"/>
</g>
<!-- host_keymint_in&#45;&gt;vmm -->
<g id="edge27" class="edge">
<title>host_keymint_in&#45;&gt;vmm</title>
<path fill="none" stroke="blue" d="M885.04,-245.88C871.73,-236.56 855.11,-224.93 840.86,-214.95"/>
<polygon fill="blue" stroke="blue" points="842.54,-211.85 832.34,-208.99 838.52,-217.59 842.54,-211.85"/>
</g>
<!-- host_keymint_out&#45;&gt;vmm -->
<g id="edge25" class="edge">
<title>host_keymint_out&#45;&gt;vmm</title>
<path fill="none" stroke="blue" d="M1022.21,-243.64C969.06,-230.99 901.49,-214.9 856.94,-204.3"/>
<polygon fill="blue" stroke="blue" points="1021.42,-247.05 1031.96,-245.97 1023.04,-240.24 1021.42,-247.05"/>
</g>
<!-- u_boot -->
<g id="node15" class="node">
<title>u_boot</title>
<ellipse fill="none" stroke="black" cx="757.5" cy="-42" rx="33.6" ry="18"/>
<text text-anchor="middle" x="757.5" y="-38.3" font-family="Times,serif" font-size="14.00">u&#45;boot</text>
</g>
<!-- confirmationui -->
<g id="node16" class="node">
<title>confirmationui</title>
<ellipse fill="none" stroke="red" cx="1058.5" cy="-42" rx="88.28" ry="18"/>
<text text-anchor="middle" x="1058.5" y="-38.3" font-family="Times,serif" font-size="14.00">ConfirmationUI HAL</text>
</g>
<!-- gatekeeper -->
<g id="node17" class="node">
<title>gatekeeper</title>
<ellipse fill="none" stroke="green" cx="880.5" cy="-42" rx="71.49" ry="18"/>
<text text-anchor="middle" x="880.5" y="-38.3" font-family="Times,serif" font-size="14.00">Gatekeeper HAL</text>
</g>
<!-- keymaster -->
<g id="node18" class="node">
<title>keymaster</title>
<ellipse fill="none" stroke="blue" cx="617.5" cy="-42" rx="88.28" ry="18"/>
<text text-anchor="middle" x="617.5" y="-38.3" font-family="Times,serif" font-size="14.00">KeyMint (C++) HAL</text>
</g>
<!-- keymint -->
<g id="node19" class="node">
<title>keymint</title>
<ellipse fill="none" stroke="blue" cx="423.5" cy="-42" rx="87.99" ry="18"/>
<text text-anchor="middle" x="423.5" y="-38.3" font-family="Times,serif" font-size="14.00">KeyMint (Rust) HAL</text>
</g>
<!-- confirmationui_console&#45;&gt;confirmationui -->
<g id="edge8" class="edge">
<title>confirmationui_console&#45;&gt;confirmationui</title>
<path fill="none" stroke="red" d="M1023.32,-90.56C1028.71,-83.27 1034.58,-75.33 1039.96,-68.06"/>
<polygon fill="red" stroke="red" points="1020.43,-88.58 1017.3,-98.7 1026.06,-92.74 1020.43,-88.58"/>
<polygon fill="red" stroke="red" points="1042.85,-70.04 1045.98,-59.92 1037.22,-65.88 1042.85,-70.04"/>
</g>
<!-- gatekeeper_console&#45;&gt;gatekeeper -->
<g id="edge16" class="edge">
<title>gatekeeper_console&#45;&gt;gatekeeper</title>
<path fill="none" stroke="green" d="M869.21,-88.79C870.72,-82.65 872.33,-76.13 873.84,-70"/>
<polygon fill="green" stroke="green" points="865.76,-88.15 866.77,-98.7 872.56,-89.83 865.76,-88.15"/>
<polygon fill="green" stroke="green" points="877.27,-70.72 876.26,-60.18 870.47,-69.05 877.27,-70.72"/>
</g>
<!-- keymaster_console&#45;&gt;u_boot -->
<g id="edge23" class="edge">
<title>keymaster_console&#45;&gt;u_boot</title>
<path fill="none" stroke="blue" d="M757.5,-88.49C757.5,-82.55 757.5,-76.27 757.5,-70.33"/>
<polygon fill="blue" stroke="blue" points="754,-88.7 757.5,-98.7 761,-88.7 754,-88.7"/>
<polygon fill="blue" stroke="blue" points="761,-70.18 757.5,-60.18 754,-70.18 761,-70.18"/>
</g>
<!-- keymaster_console&#45;&gt;keymaster -->
<g id="edge22" class="edge">
<title>keymaster_console&#45;&gt;keymaster</title>
<path fill="none" stroke="blue" d="M715.61,-94.18C713.54,-93.11 711.5,-92.04 709.5,-91 692.41,-82.09 673.53,-72.24 657.35,-63.8"/>
<polygon fill="blue" stroke="blue" points="714.22,-97.41 724.71,-98.92 717.46,-91.2 714.22,-97.41"/>
<polygon fill="blue" stroke="blue" points="658.65,-60.53 648.16,-59.01 655.41,-66.73 658.65,-60.53"/>
</g>
<!-- keymint_console&#45;&gt;keymint -->
<g id="edge29" class="edge">
<title>keymint_console&#45;&gt;keymint</title>
<path fill="none" stroke="blue" d="M507.41,-93.63C492.04,-84.35 474.28,-73.64 459.07,-64.46"/>
<polygon fill="blue" stroke="blue" points="505.76,-96.72 516.13,-98.88 509.38,-90.72 505.76,-96.72"/>
<polygon fill="blue" stroke="blue" points="460.82,-61.43 450.45,-59.26 457.2,-67.42 460.82,-61.43"/>
</g>
</g>
</svg>
