<?xml version="1.0" encoding="UTF-8" standalone="no"?>
<!DOCTYPE svg PUBLIC "-//W3C//DTD SVG 1.1//EN"
 "http://www.w3.org/Graphics/SVG/1.1/DTD/svg11.dtd">
<!-- Generated by graphviz version 2.43.0 (0)
 -->
<!-- Title: %3 Pages: 1 -->
<svg width="268pt" height="567pt"
 viewBox="0.00 0.00 267.50 567.00" xmlns="http://www.w3.org/2000/svg" xmlns:xlink="http://www.w3.org/1999/xlink">
<g id="graph0" class="graph" transform="scale(1 1) rotate(0) translate(4 563)">
<title>%3</title>
<polygon fill="white" stroke="transparent" points="-4,4 -4,-563 263.5,-563 263.5,4 -4,4"/>
<g id="clust1" class="cluster">
<title>cluster_android</title>
<polygon fill="none" stroke="black" points="69.5,-8 69.5,-155 185.5,-155 185.5,-8 69.5,-8"/>
<text text-anchor="middle" x="127.5" y="-139.8" font-family="Times,serif" font-size="14.00">Android VM</text>
</g>
<!-- console_forwarder -->
<g id="node1" class="node">
<title>console_forwarder</title>
<ellipse fill="none" stroke="black" stroke-width="2" cx="127.5" cy="-325" rx="86.38" ry="18"/>
<text text-anchor="start" x="69" y="-322.3" font-family="Times,serif" font-size="14.00"> </text>
<text text-anchor="start" x="73" y="-322.3" font-family="Times,serif" font-weight="bold" font-size="14.00">console_forwarder</text>
<text text-anchor="start" x="182" y="-322.3" font-family="Times,serif" font-size="14.00"> </text>
</g>
<!-- host_console_in -->
<g id="node2" class="node">
<title>host_console_in</title>
<polygon fill="none" stroke="black" points="117,-271 0,-271 0,-235 117,-235 117,-271"/>
<text text-anchor="middle" x="58.5" y="-249.3" font-family="Times,serif" font-size="14.00">internal/console.in</text>
</g>
<!-- console_forwarder&#45;&gt;host_console_in -->
<g id="edge7" class="edge">
<title>console_forwarder&#45;&gt;host_console_in</title>
<path fill="none" stroke="black" d="M110.8,-307.05C102.36,-298.5 91.97,-287.96 82.68,-278.54"/>
<polygon fill="black" stroke="black" points="85.04,-275.94 75.53,-271.28 80.06,-280.85 85.04,-275.94"/>
</g>
<!-- host_console_out -->
<g id="node3" class="node">
<title>host_console_out</title>
<polygon fill="none" stroke="black" points="259.5,-271 135.5,-271 135.5,-235 259.5,-235 259.5,-271"/>
<text text-anchor="middle" x="197.5" y="-249.3" font-family="Times,serif" font-size="14.00">internal/console.out</text>
</g>
<!-- console_forwarder&#45;&gt;host_console_out -->
<g id="edge5" class="edge">
<title>console_forwarder&#45;&gt;host_console_out</title>
<path fill="none" stroke="black" d="M151.67,-299.83C161.07,-290.43 171.62,-279.88 180.22,-271.28"/>
<polygon fill="black" stroke="black" points="149.04,-297.51 144.45,-307.05 153.99,-302.46 149.04,-297.51"/>
</g>
<!-- vmm -->
<g id="node8" class="node">
<title>vmm</title>
<ellipse fill="none" stroke="black" cx="127.5" cy="-181" rx="64.19" ry="18"/>
<text text-anchor="middle" x="127.5" y="-177.3" font-family="Times,serif" font-size="14.00">crosvm / qemu</text>
</g>
<!-- host_console_in&#45;&gt;vmm -->
<g id="edge8" class="edge">
<title>host_console_in&#45;&gt;vmm</title>
<path fill="none" stroke="black" d="M75.56,-234.7C84.12,-226.01 94.63,-215.34 103.95,-205.89"/>
<polygon fill="black" stroke="black" points="106.59,-208.2 111.12,-198.62 101.6,-203.29 106.59,-208.2"/>
</g>
<!-- host_console_out&#45;&gt;vmm -->
<g id="edge6" class="edge">
<title>host_console_out&#45;&gt;vmm</title>
<path fill="none" stroke="black" d="M172.87,-227.37C163.35,-217.85 152.71,-207.21 144.12,-198.62"/>
<polygon fill="black" stroke="black" points="170.65,-230.1 180.2,-234.7 175.6,-225.15 170.65,-230.1"/>
</g>
<!-- host_pty -->
<g id="node4" class="node">
<title>host_pty</title>
<polygon fill="none" stroke="black" points="120,-415 35,-415 35,-379 120,-379 120,-415"/>
<text text-anchor="middle" x="77.5" y="-393.3" font-family="Times,serif" font-size="14.00">/dev/pty/###</text>
</g>
<!-- host_pty&#45;&gt;console_forwarder -->
<g id="edge4" class="edge">
<title>host_pty&#45;&gt;console_forwarder</title>
<path fill="none" stroke="black" d="M95.81,-370.36C100.17,-364.26 104.82,-357.75 109.18,-351.65"/>
<polygon fill="black" stroke="black" points="92.82,-368.52 89.86,-378.7 98.52,-372.59 92.82,-368.52"/>
<polygon fill="black" stroke="black" points="112.32,-353.28 115.28,-343.1 106.62,-349.21 112.32,-353.28"/>
</g>
<!-- run_cvd -->
<g id="node5" class="node">
<title>run_cvd</title>
<ellipse fill="none" stroke="black" cx="177.5" cy="-397" rx="39.79" ry="18"/>
<text text-anchor="middle" x="177.5" y="-393.3" font-family="Times,serif" font-size="14.00">run_cvd</text>
</g>
<!-- run_cvd&#45;&gt;console_forwarder -->
<g id="edge1" class="edge">
<title>run_cvd&#45;&gt;console_forwarder</title>
<path fill="none" stroke="black" d="M165.9,-379.76C159.9,-371.35 152.42,-360.89 145.67,-351.44"/>
<polygon fill="black" stroke="black" points="148.39,-349.23 139.73,-343.12 142.7,-353.3 148.39,-349.23"/>
</g>
<!-- screen -->
<g id="node6" class="node">
<title>screen</title>
<ellipse fill="none" stroke="black" cx="77.5" cy="-469" rx="33.29" ry="18"/>
<text text-anchor="middle" x="77.5" y="-465.3" font-family="Times,serif" font-size="14.00">screen</text>
</g>
<!-- screen&#45;&gt;host_pty -->
<g id="edge3" class="edge">
<title>screen&#45;&gt;host_pty</title>
<path fill="none" stroke="black" d="M77.5,-440.67C77.5,-435.69 77.5,-430.49 77.5,-425.51"/>
<polygon fill="black" stroke="black" points="74,-440.7 77.5,-450.7 81,-440.7 74,-440.7"/>
<polygon fill="black" stroke="black" points="81,-425.1 77.5,-415.1 74,-425.1 81,-425.1"/>
</g>
<!-- user -->
<g id="node7" class="node">
<title>user</title>
<ellipse fill="none" stroke="black" cx="77.5" cy="-541" rx="44.39" ry="18"/>
<text text-anchor="middle" x="77.5" y="-537.3" font-family="Times,serif" font-size="14.00">User CLI</text>
</g>
<!-- user&#45;&gt;screen -->
<g id="edge2" class="edge">
<title>user&#45;&gt;screen</title>
<path fill="none" stroke="black" d="M77.5,-522.7C77.5,-514.98 77.5,-505.71 77.5,-497.11"/>
<polygon fill="black" stroke="black" points="81,-497.1 77.5,-487.1 74,-497.1 81,-497.1"/>
</g>
<!-- vm_console -->
<g id="node9" class="node">
<title>vm_console</title>
<polygon fill="none" stroke="black" points="163.5,-124 91.5,-124 91.5,-88 163.5,-88 163.5,-124"/>
<text text-anchor="middle" x="127.5" y="-102.3" font-family="Times,serif" font-size="14.00">/dev/ttyS0</text>
</g>
<!-- vmm&#45;&gt;vm_console -->
<g id="edge9" class="edge">
<title>vmm&#45;&gt;vm_console</title>
<path fill="none" stroke="black" d="M127.5,-152.49C127.5,-146.55 127.5,-140.27 127.5,-134.33"/>
<polygon fill="black" stroke="black" points="124,-152.7 127.5,-162.7 131,-152.7 124,-152.7"/>
<polygon fill="black" stroke="black" points="131,-134.18 127.5,-124.18 124,-134.18 131,-134.18"/>
</g>
<!-- shell -->
<g id="node10" class="node">
<title>shell</title>
<ellipse fill="none" stroke="black" cx="127.5" cy="-34" rx="50.09" ry="18"/>
<text text-anchor="middle" x="127.5" y="-30.3" font-family="Times,serif" font-size="14.00">toybox / sh</text>
</g>
<!-- vm_console&#45;&gt;shell -->
<g id="edge10" class="edge">
<title>vm_console&#45;&gt;shell</title>
<path fill="none" stroke="black" d="M127.5,-77.67C127.5,-72.69 127.5,-67.49 127.5,-62.51"/>
<polygon fill="black" stroke="black" points="124,-77.7 127.5,-87.7 131,-77.7 124,-77.7"/>
<polygon fill="black" stroke="black" points="131,-62.1 127.5,-52.1 124,-62.1 131,-62.1"/>
</g>
</g>
</svg>
