<?xml version="1.0" encoding="UTF-8" standalone="no"?>
<!DOCTYPE svg PUBLIC "-//W3C//DTD SVG 1.1//EN"
 "http://www.w3.org/Graphics/SVG/1.1/DTD/svg11.dtd">
<!-- Generated by graphviz version 2.43.0 (0)
 -->
<!-- Title: %3 Pages: 1 -->
<svg width="986pt" height="407pt"
 viewBox="0.00 0.00 986.34 407.00" xmlns="http://www.w3.org/2000/svg" xmlns:xlink="http://www.w3.org/1999/xlink">
<g id="graph0" class="graph" transform="scale(1 1) rotate(0) translate(4 403)">
<title>%3</title>
<polygon fill="white" stroke="transparent" points="-4,4 -4,-403 982.34,-403 982.34,4 -4,4"/>
<g id="clust1" class="cluster">
<title>cluster_android</title>
<polygon fill="none" stroke="black" points="175.84,-136 175.84,-283 485.84,-283 485.84,-136 175.84,-136"/>
<text text-anchor="middle" x="330.84" y="-267.8" font-family="Times,serif" font-size="14.00">Android</text>
</g>
<!-- cvd_import_locations -->
<g id="node1" class="node">
<title>cvd_import_locations</title>
<g id="a_node1"><a xlink:href="https://cs.android.com/android/platform/superproject/+/master:device/google/cuttlefish/host/commands/cvd_import_locations/" xlink:title="cvd_import_locations">
<ellipse fill="none" stroke="black" cx="383.84" cy="-381" rx="87.99" ry="18"/>
<text text-anchor="middle" x="383.84" y="-377.3" font-family="Times,serif" font-size="14.00">cvd_import_locations</text>
</a>
</g>
</g>
<!-- gnss_grpc_server -->
<g id="node4" class="node">
<title>gnss_grpc_server</title>
<polygon fill="none" stroke="black" points="422.34,-327 345.34,-327 345.34,-291 422.34,-291 422.34,-327"/>
<text text-anchor="middle" x="383.84" y="-305.3" font-family="Times,serif" font-size="14.00">TCP gRPC</text>
</g>
<!-- cvd_import_locations&#45;&gt;gnss_grpc_server -->
<g id="edge6" class="edge">
<title>cvd_import_locations&#45;&gt;gnss_grpc_server</title>
<path fill="none" stroke="black" d="M377.93,-362.7C377.13,-354.98 376.9,-345.71 377.25,-337.11"/>
<polygon fill="black" stroke="black" points="380.74,-337.32 377.95,-327.1 373.76,-336.84 380.74,-337.32"/>
</g>
<!-- cvd_update_location -->
<g id="node2" class="node">
<title>cvd_update_location</title>
<g id="a_node2"><a xlink:href="https://cs.android.com/android/platform/superproject/+/master:device/google/cuttlefish/host/commands/cvd_update_location/" xlink:title="cvd_update_location">
<ellipse fill="none" stroke="black" cx="83.84" cy="-234" rx="83.69" ry="18"/>
<text text-anchor="middle" x="83.84" y="-230.3" font-family="Times,serif" font-size="14.00">cvd_update_location</text>
</a>
</g>
</g>
<!-- cvd_update_location&#45;&gt;gnss_grpc_server -->
<g id="edge8" class="edge">
<title>cvd_update_location&#45;&gt;gnss_grpc_server</title>
<path fill="none" stroke="black" d="M114.5,-250.85C133.14,-261.75 157.46,-275.55 180.84,-283 231.95,-299.28 293.03,-305.14 334.85,-307.16"/>
<polygon fill="black" stroke="black" points="334.91,-310.67 345.05,-307.6 335.21,-303.68 334.91,-310.67"/>
</g>
<!-- gnss_grpc_proxy -->
<g id="node3" class="node">
<title>gnss_grpc_proxy</title>
<ellipse fill="none" stroke="black" cx="679.84" cy="-234" rx="79.89" ry="18"/>
<text text-anchor="start" x="626.34" y="-231.3" font-family="Times,serif" font-size="14.00"> </text>
<text text-anchor="start" x="630.34" y="-231.3" font-family="Times,serif" font-weight="bold" font-size="14.00">gnss_grpc_proxy</text>
<text text-anchor="start" x="729.34" y="-231.3" font-family="Times,serif" font-size="14.00"> </text>
</g>
<!-- gnss_grpc_proxy&#45;&gt;gnss_grpc_server -->
<g id="edge11" class="edge">
<title>gnss_grpc_proxy&#45;&gt;gnss_grpc_server</title>
<path fill="none" stroke="black" d="M633.8,-248.78C597.23,-258.5 544.95,-271.74 498.84,-283 477.22,-288.28 453.06,-293.99 432.4,-298.62"/>
<polygon fill="black" stroke="black" points="431.58,-295.22 422.57,-300.8 433.09,-302.05 431.58,-295.22"/>
</g>
<!-- host_gnss_console_in -->
<g id="node6" class="node">
<title>host_gnss_console_in</title>
<polygon fill="none" stroke="green" points="665.84,-180 495.84,-180 495.84,-144 665.84,-144 665.84,-180"/>
<text text-anchor="middle" x="580.84" y="-158.3" font-family="Times,serif" font-size="14.00">internal/gnsshvc_fifo_vm.in</text>
</g>
<!-- gnss_grpc_proxy&#45;&gt;host_gnss_console_in -->
<g id="edge12" class="edge">
<title>gnss_grpc_proxy&#45;&gt;host_gnss_console_in</title>
<path fill="none" stroke="green" d="M656.63,-216.59C643.76,-207.49 627.54,-196.02 613.42,-186.03"/>
<polygon fill="green" stroke="green" points="615.13,-182.96 604.94,-180.04 611.09,-188.67 615.13,-182.96"/>
</g>
<!-- host_fixed_location_console_in -->
<g id="node8" class="node">
<title>host_fixed_location_console_in</title>
<polygon fill="none" stroke="blue" points="873.84,-180 683.84,-180 683.84,-144 873.84,-144 873.84,-180"/>
<text text-anchor="middle" x="778.84" y="-158.3" font-family="Times,serif" font-size="14.00">internal/locationhvc_fifo_vm.in</text>
</g>
<!-- gnss_grpc_proxy&#45;&gt;host_fixed_location_console_in -->
<g id="edge16" class="edge">
<title>gnss_grpc_proxy&#45;&gt;host_fixed_location_console_in</title>
<path fill="none" stroke="blue" d="M703.05,-216.59C715.93,-207.49 732.14,-196.02 746.27,-186.03"/>
<polygon fill="blue" stroke="blue" points="748.6,-188.67 754.74,-180.04 744.56,-182.96 748.6,-188.67"/>
</g>
<!-- gnss_grpc_server&#45;&gt;cvd_import_locations -->
<g id="edge7" class="edge">
<title>gnss_grpc_server&#45;&gt;cvd_import_locations</title>
<path fill="none" stroke="black" d="M389.74,-327.1C390.54,-334.79 390.78,-344.05 390.45,-352.67"/>
<polygon fill="black" stroke="black" points="386.95,-352.48 389.76,-362.7 393.93,-352.96 386.95,-352.48"/>
</g>
<!-- gnss_grpc_server&#45;&gt;cvd_update_location -->
<g id="edge9" class="edge">
<title>gnss_grpc_server&#45;&gt;cvd_update_location</title>
<path fill="none" stroke="black" d="M345.26,-307.97C300.14,-307.09 224.29,-302.57 162.84,-283 144.03,-277.01 124.61,-266.9 109.6,-257.5"/>
<polygon fill="black" stroke="black" points="111.15,-254.33 100.86,-251.78 107.31,-260.19 111.15,-254.33"/>
</g>
<!-- gnss_grpc_server&#45;&gt;gnss_grpc_proxy -->
<g id="edge10" class="edge">
<title>gnss_grpc_server&#45;&gt;gnss_grpc_proxy</title>
<path fill="none" stroke="black" d="M422.47,-297.08C440.26,-292.76 461.56,-287.71 480.84,-283 525.44,-272.11 575.82,-259.36 614.8,-249.74"/>
<polygon fill="black" stroke="black" points="616.09,-253.03 624.97,-247.24 614.42,-246.23 616.09,-253.03"/>
</g>
<!-- run_cvd -->
<g id="node5" class="node">
<title>run_cvd</title>
<g id="a_node5"><a xlink:href="https://cs.android.com/android/platform/superproject/+/master:device/google/cuttlefish/host/commands/run_cvd/" xlink:title="run_cvd">
<ellipse fill="none" stroke="black" cx="679.84" cy="-309" rx="39.79" ry="18"/>
<text text-anchor="middle" x="679.84" y="-305.3" font-family="Times,serif" font-size="14.00">run_cvd</text>
</a>
</g>
</g>
<!-- run_cvd&#45;&gt;gnss_grpc_proxy -->
<g id="edge1" class="edge">
<title>run_cvd&#45;&gt;gnss_grpc_proxy</title>
<path fill="none" stroke="black" d="M679.84,-290.7C679.84,-282.25 679.84,-271.87 679.84,-262.37"/>
<polygon fill="black" stroke="black" points="683.34,-262.18 679.84,-252.18 676.34,-262.18 683.34,-262.18"/>
</g>
<!-- vmm -->
<g id="node10" class="node">
<title>vmm</title>
<ellipse fill="none" stroke="black" cx="494.84" cy="-90" rx="64.19" ry="18"/>
<text text-anchor="middle" x="494.84" y="-86.3" font-family="Times,serif" font-size="14.00">crosvm / qemu</text>
</g>
<!-- host_gnss_console_in&#45;&gt;vmm -->
<g id="edge15" class="edge">
<title>host_gnss_console_in&#45;&gt;vmm</title>
<path fill="none" stroke="green" d="M559.58,-143.7C548.43,-134.62 534.63,-123.38 522.64,-113.62"/>
<polygon fill="green" stroke="green" points="524.64,-110.74 514.68,-107.14 520.22,-116.17 524.64,-110.74"/>
</g>
<!-- host_gnss_console_out -->
<g id="node7" class="node">
<title>host_gnss_console_out</title>
<polygon fill="none" stroke="green" points="643.34,-36 466.34,-36 466.34,0 643.34,0 643.34,-36"/>
<text text-anchor="middle" x="554.84" y="-14.3" font-family="Times,serif" font-size="14.00">internal/gnsshvc_fifo_vm.out</text>
</g>
<!-- host_gnss_console_out&#45;&gt;gnss_grpc_proxy -->
<g id="edge13" class="edge">
<title>host_gnss_console_out&#45;&gt;gnss_grpc_proxy</title>
<path fill="none" stroke="green" d="M643.63,-23.63C721.05,-32.93 829.11,-59.78 882.84,-136 894.11,-151.98 894.8,-164.52 882.84,-180 867.24,-200.2 807.87,-214.17 757.34,-222.67"/>
<polygon fill="green" stroke="green" points="756.67,-219.24 747.37,-224.3 757.8,-226.14 756.67,-219.24"/>
</g>
<!-- host_fixed_location_console_in&#45;&gt;vmm -->
<g id="edge19" class="edge">
<title>host_fixed_location_console_in&#45;&gt;vmm</title>
<path fill="none" stroke="blue" d="M709.73,-143.97C661.09,-131.98 596.79,-116.13 551.24,-104.9"/>
<polygon fill="blue" stroke="blue" points="552.08,-101.5 541.53,-102.51 550.4,-108.3 552.08,-101.5"/>
</g>
<!-- host_fixed_location_console_out -->
<g id="node9" class="node">
<title>host_fixed_location_console_out</title>
<polygon fill="none" stroke="blue" points="978.34,-36 781.34,-36 781.34,0 978.34,0 978.34,-36"/>
<text text-anchor="middle" x="879.84" y="-14.3" font-family="Times,serif" font-size="14.00">internal/locationhvc_fifo_vm.out</text>
</g>
<!-- host_fixed_location_console_out&#45;&gt;gnss_grpc_proxy -->
<g id="edge17" class="edge">
<title>host_fixed_location_console_out&#45;&gt;gnss_grpc_proxy</title>
<path fill="none" stroke="blue" d="M889.41,-36.19C905.79,-68.19 934.35,-137.5 900.84,-180 883.33,-202.21 816.1,-216.17 760.34,-224.15"/>
<polygon fill="blue" stroke="blue" points="759.86,-220.68 750.44,-225.52 760.82,-227.62 759.86,-220.68"/>
</g>
<!-- vmm&#45;&gt;host_gnss_console_out -->
<g id="edge14" class="edge">
<title>vmm&#45;&gt;host_gnss_console_out</title>
<path fill="none" stroke="green" d="M509.06,-72.41C516.32,-63.95 525.29,-53.47 533.37,-44.05"/>
<polygon fill="green" stroke="green" points="536.04,-46.32 539.89,-36.45 530.72,-41.76 536.04,-46.32"/>
</g>
<!-- vmm&#45;&gt;host_fixed_location_console_out -->
<g id="edge18" class="edge">
<title>vmm&#45;&gt;host_fixed_location_console_out</title>
<path fill="none" stroke="blue" d="M547.17,-79.49C605.68,-68.85 701.94,-51.35 775.9,-37.9"/>
<polygon fill="blue" stroke="blue" points="776.97,-41.26 786.18,-36.03 775.72,-34.37 776.97,-41.26"/>
</g>
<!-- fixed_location_console -->
<g id="node12" class="node">
<title>fixed_location_console</title>
<polygon fill="none" stroke="blue" points="321.84,-180 183.84,-180 183.84,-144 321.84,-144 321.84,-180"/>
<text text-anchor="middle" x="252.84" y="-158.3" font-family="Times,serif" font-size="14.00">/dev/hvc6 | /dev/gnss1</text>
</g>
<!-- vmm&#45;&gt;fixed_location_console -->
<g id="edge20" class="edge">
<title>vmm&#45;&gt;fixed_location_console</title>
<path fill="none" stroke="blue" d="M453.54,-103.85C422.21,-112.57 378.33,-124.56 339.84,-136 334.65,-137.54 329.27,-139.18 323.85,-140.86"/>
<polygon fill="blue" stroke="blue" points="322.59,-137.58 314.07,-143.88 324.66,-144.27 322.59,-137.58"/>
</g>
<!-- gnss_console -->
<g id="node13" class="node">
<title>gnss_console</title>
<polygon fill="none" stroke="green" points="477.84,-180 339.84,-180 339.84,-144 477.84,-144 477.84,-180"/>
<text text-anchor="middle" x="408.84" y="-158.3" font-family="Times,serif" font-size="14.00">/dev/hvc5 | /dev/gnss0</text>
</g>
<!-- vmm&#45;&gt;gnss_console -->
<g id="edge23" class="edge">
<title>vmm&#45;&gt;gnss_console</title>
<path fill="none" stroke="green" d="M480.26,-107.62C470.27,-116.55 456.77,-127.69 444.14,-137.49"/>
<polygon fill="green" stroke="green" points="441.84,-134.84 436.02,-143.7 446.09,-140.41 441.84,-134.84"/>
</g>
<!-- gnss_hal -->
<g id="node11" class="node">
<title>gnss_hal</title>
<g id="a_node11"><a xlink:href="https://cs.android.com/android/platform/superproject/+/master:hardware/interfaces/gnss/aidl/default/" xlink:title="vendor.gnss&#45;default">
<ellipse fill="none" stroke="black" cx="331.84" cy="-234" rx="79.89" ry="18"/>
<text text-anchor="middle" x="331.84" y="-230.3" font-family="Times,serif" font-size="14.00">vendor.gnss&#45;default</text>
</a>
</g>
</g>
<!-- gnss_hal&#45;&gt;fixed_location_console -->
<g id="edge3" class="edge">
<title>gnss_hal&#45;&gt;fixed_location_console</title>
<path fill="none" stroke="blue" d="M307.72,-216.76C296.86,-208.01 284.25,-197.03 273.79,-187.28"/>
<polygon fill="blue" stroke="blue" points="275.93,-184.49 266.27,-180.12 271.1,-189.56 275.93,-184.49"/>
</g>
<!-- gnss_hal&#45;&gt;gnss_console -->
<g id="edge5" class="edge">
<title>gnss_hal&#45;&gt;gnss_console</title>
<path fill="none" stroke="green" d="M344.6,-216.05C353.34,-207.26 365.13,-196.38 376.27,-186.76"/>
<polygon fill="green" stroke="green" points="378.85,-189.17 384.22,-180.03 374.33,-183.82 378.85,-189.17"/>
</g>
<!-- fixed_location_console&#45;&gt;vmm -->
<g id="edge21" class="edge">
<title>fixed_location_console&#45;&gt;vmm</title>
<path fill="none" stroke="blue" d="M296.32,-143.88C304.75,-141.19 313.53,-138.47 321.84,-136 359.58,-124.78 402.49,-113.04 436.23,-104.37"/>
<polygon fill="blue" stroke="blue" points="437.11,-107.75 445.94,-101.89 435.38,-100.97 437.11,-107.75"/>
</g>
<!-- fixed_location_console&#45;&gt;gnss_hal -->
<g id="edge2" class="edge">
<title>fixed_location_console&#45;&gt;gnss_hal</title>
<path fill="none" stroke="blue" d="M277.95,-180.03C288.71,-188.75 301.04,-199.51 311.26,-209.05"/>
<polygon fill="blue" stroke="blue" points="308.95,-211.68 318.6,-216.05 313.78,-206.62 308.95,-211.68"/>
</g>
<!-- gnss_console&#45;&gt;vmm -->
<g id="edge22" class="edge">
<title>gnss_console&#45;&gt;vmm</title>
<path fill="none" stroke="green" d="M424.19,-143.7C434.65,-134.4 448.72,-122.84 461.61,-112.91"/>
<polygon fill="green" stroke="green" points="463.99,-115.5 469.85,-106.67 459.77,-109.92 463.99,-115.5"/>
</g>
<!-- gnss_console&#45;&gt;gnss_hal -->
<g id="edge4" class="edge">
<title>gnss_console&#45;&gt;gnss_hal</title>
<path fill="none" stroke="green" d="M395.9,-180.12C386.87,-189.2 374.64,-200.46 363.22,-210.26"/>
<polygon fill="green" stroke="green" points="360.9,-207.65 355.5,-216.76 365.41,-213 360.9,-207.65"/>
</g>
</g>
</svg>
