<?xml version="1.0" encoding="UTF-8" standalone="no"?>
<!DOCTYPE svg PUBLIC "-//W3C//DTD SVG 1.1//EN"
 "http://www.w3.org/Graphics/SVG/1.1/DTD/svg11.dtd">
<!-- Generated by graphviz version 2.43.0 (0)
 -->
<!-- Title: %3 Pages: 1 -->
<svg width="483pt" height="314pt"
 viewBox="0.00 0.00 482.96 314.00" xmlns="http://www.w3.org/2000/svg" xmlns:xlink="http://www.w3.org/1999/xlink">
<g id="graph0" class="graph" transform="scale(1 1) rotate(0) translate(4 310)">
<title>%3</title>
<polygon fill="white" stroke="transparent" points="-4,4 -4,-310 478.96,-310 478.96,4 -4,4"/>
<!-- connectivity -->
<g id="node1" class="node">
<title>connectivity</title>
<ellipse fill="none" stroke="black" cx="53.95" cy="-193" rx="53.89" ry="18"/>
<text text-anchor="middle" x="53.95" y="-189.3" font-family="Times,serif" font-size="14.00">connectivity</text>
</g>
<!-- ril_dns -->
<g id="node2" class="node">
<title>ril_dns</title>
<ellipse fill="none" stroke="black" cx="219.93" cy="-274" rx="35.19" ry="18"/>
<text text-anchor="middle" x="219.93" y="-270.3" font-family="Times,serif" font-size="14.00">ril_dns</text>
</g>
<!-- connectivity&#45;&#45;ril_dns -->
<g id="edge1" class="edge">
<title>connectivity&#45;&#45;ril_dns</title>
<path fill="none" stroke="black" d="M78.75,-209.26C96.26,-220.76 120.91,-236.02 143.89,-247 158.51,-253.98 175.44,-260.22 189.52,-264.94"/>
</g>
<!-- wifi -->
<g id="node3" class="node">
<title>wifi</title>
<ellipse fill="none" stroke="black" cx="219.93" cy="-220" rx="27" ry="18"/>
<text text-anchor="middle" x="219.93" y="-216.3" font-family="Times,serif" font-size="14.00">wifi</text>
</g>
<!-- connectivity&#45;&#45;wifi -->
<g id="edge2" class="edge">
<title>connectivity&#45;&#45;wifi</title>
<path fill="none" stroke="black" d="M102.82,-200.88C132.5,-205.77 169.45,-211.85 193.59,-215.83"/>
</g>
<!-- bluetooth -->
<g id="node7" class="node">
<title>bluetooth</title>
<ellipse fill="none" stroke="black" cx="219.93" cy="-166" rx="44.39" ry="18"/>
<text text-anchor="middle" x="219.93" y="-162.3" font-family="Times,serif" font-size="14.00">bluetooth</text>
</g>
<!-- connectivity&#45;&#45;bluetooth -->
<g id="edge6" class="edge">
<title>connectivity&#45;&#45;bluetooth</title>
<path fill="none" stroke="black" d="M102.82,-185.12C126.93,-181.15 155.82,-176.39 178.76,-172.61"/>
</g>
<!-- modem_simulator -->
<g id="node8" class="node">
<title>modem_simulator</title>
<ellipse fill="none" stroke="black" cx="219.93" cy="-99" rx="76.09" ry="18"/>
<text text-anchor="middle" x="219.93" y="-95.3" font-family="Times,serif" font-size="14.00">modem_simulator</text>
</g>
<!-- connectivity&#45;&#45;modem_simulator -->
<g id="edge7" class="edge">
<title>connectivity&#45;&#45;modem_simulator</title>
<path fill="none" stroke="black" d="M80.41,-177.02C98.07,-166.06 122.23,-151.34 143.89,-139 158,-130.96 173.84,-122.45 187.32,-115.35"/>
</g>
<!-- ap_kernel_image -->
<g id="node4" class="node">
<title>ap_kernel_image</title>
<ellipse fill="none" stroke="black" cx="403.47" cy="-288" rx="71.49" ry="18"/>
<text text-anchor="middle" x="403.47" y="-284.3" font-family="Times,serif" font-size="14.00">ap_kernel_image</text>
</g>
<!-- wifi&#45;&#45;ap_kernel_image -->
<g id="edge3" class="edge">
<title>wifi&#45;&#45;ap_kernel_image</title>
<path fill="none" stroke="black" d="M244.31,-228.24C259.15,-233.51 278.73,-240.55 295.98,-247 312.06,-253.02 315.96,-254.82 331.98,-261 342.12,-264.92 353.1,-269.13 363.31,-273.04"/>
</g>
<!-- ap_rootfs_image -->
<g id="node5" class="node">
<title>ap_rootfs_image</title>
<ellipse fill="none" stroke="black" cx="403.47" cy="-234" rx="70.39" ry="18"/>
<text text-anchor="middle" x="403.47" y="-230.3" font-family="Times,serif" font-size="14.00">ap_rootfs_image</text>
</g>
<!-- wifi&#45;&#45;ap_rootfs_image -->
<g id="edge4" class="edge">
<title>wifi&#45;&#45;ap_rootfs_image</title>
<path fill="none" stroke="black" d="M246.94,-222.01C270.08,-223.79 304.93,-226.48 335.78,-228.86"/>
</g>
<!-- vhost_net -->
<g id="node6" class="node">
<title>vhost_net</title>
<ellipse fill="none" stroke="black" cx="403.47" cy="-180" rx="44.69" ry="18"/>
<text text-anchor="middle" x="403.47" y="-176.3" font-family="Times,serif" font-size="14.00">vhost_net</text>
</g>
<!-- wifi&#45;&#45;vhost_net -->
<g id="edge5" class="edge">
<title>wifi&#45;&#45;vhost_net</title>
<path fill="none" stroke="black" d="M245.79,-214.52C276.19,-207.82 327.97,-196.41 363.64,-188.56"/>
</g>
<!-- enable -->
<g id="node9" class="node">
<title>enable</title>
<ellipse fill="none" stroke="black" cx="403.47" cy="-126" rx="33.6" ry="18"/>
<text text-anchor="middle" x="403.47" y="-122.3" font-family="Times,serif" font-size="14.00">enable</text>
</g>
<!-- modem_simulator&#45;&#45;enable -->
<g id="edge8" class="edge">
<title>modem_simulator&#45;&#45;enable</title>
<path fill="none" stroke="black" d="M284.68,-108.48C313.7,-112.8 346.76,-117.71 370.46,-121.24"/>
</g>
<!-- sim_type -->
<g id="node10" class="node">
<title>sim_type</title>
<ellipse fill="none" stroke="black" cx="403.47" cy="-72" rx="43.59" ry="18"/>
<text text-anchor="middle" x="403.47" y="-68.3" font-family="Times,serif" font-size="14.00">sim_type</text>
</g>
<!-- modem_simulator&#45;&#45;sim_type -->
<g id="edge9" class="edge">
<title>modem_simulator&#45;&#45;sim_type</title>
<path fill="none" stroke="black" d="M284.68,-89.52C310.43,-85.69 339.36,-81.39 362.11,-78"/>
</g>
<!-- count -->
<g id="node11" class="node">
<title>count</title>
<ellipse fill="none" stroke="black" cx="403.47" cy="-18" rx="30.59" ry="18"/>
<text text-anchor="middle" x="403.47" y="-14.3" font-family="Times,serif" font-size="14.00">count</text>
</g>
<!-- modem_simulator&#45;&#45;count -->
<g id="edge10" class="edge">
<title>modem_simulator&#45;&#45;count</title>
<path fill="none" stroke="black" d="M252.66,-82.66C274.69,-71.54 304.84,-56.77 331.98,-45 346.65,-38.64 363.34,-32.21 376.8,-27.22"/>
</g>
</g>
</svg>
