<?xml version="1.0" encoding="UTF-8" standalone="no"?>
<!DOCTYPE svg PUBLIC "-//W3C//DTD SVG 1.1//EN"
 "http://www.w3.org/Graphics/SVG/1.1/DTD/svg11.dtd">
<!-- Generated by graphviz version 2.43.0 (0)
 -->
<!-- Title: %3 Pages: 1 -->
<svg width="396pt" height="704pt"
 viewBox="0.00 0.00 396.00 704.00" xmlns="http://www.w3.org/2000/svg" xmlns:xlink="http://www.w3.org/1999/xlink">
<g id="graph0" class="graph" transform="scale(1 1) rotate(0) translate(4 700)">
<title>%3</title>
<polygon fill="white" stroke="transparent" points="-4,4 -4,-700 392,-700 392,4 -4,4"/>
<!-- root -->
<g id="node1" class="node">
<title>root</title>
<polygon fill="none" stroke="black" points="0,-294.5 0,-317.5 38,-317.5 38,-294.5 0,-294.5"/>
<text text-anchor="middle" x="19" y="-302.3" font-family="Times,serif" font-size="14.00">root</text>
</g>
<!-- instances -->
<g id="node2" class="node">
<title>instances</title>
<polygon fill="none" stroke="black" points="74,-462.5 74,-485.5 140,-485.5 140,-462.5 74,-462.5"/>
<text text-anchor="middle" x="107" y="-470.3" font-family="Times,serif" font-size="14.00">instances</text>
</g>
<!-- root&#45;&#45;instances -->
<g id="edge1" class="edge">
<title>root&#45;&#45;instances</title>
<path fill="none" stroke="black" d="M25.91,-317.55C41.62,-348.24 84.29,-431.59 100.05,-462.37"/>
</g>
<!-- common -->
<g id="node3" class="node">
<title>common</title>
<polygon fill="none" stroke="black" points="74.5,-147.5 74.5,-170.5 139.5,-170.5 139.5,-147.5 74.5,-147.5"/>
<text text-anchor="middle" x="107" y="-155.3" font-family="Times,serif" font-size="14.00">common</text>
</g>
<!-- root&#45;&#45;common -->
<g id="edge2" class="edge">
<title>root&#45;&#45;common</title>
<path fill="none" stroke="black" d="M26.75,-294.47C42.75,-267.12 82.84,-198.59 99.04,-170.89"/>
</g>
<!-- vm -->
<g id="node11" class="node">
<title>vm</title>
<polygon fill="none" stroke="black" points="264.5,-672.5 264.5,-695.5 299.5,-695.5 299.5,-672.5 264.5,-672.5"/>
<text text-anchor="middle" x="282" y="-680.3" font-family="Times,serif" font-size="14.00">vm</text>
</g>
<!-- instances&#45;&#45;vm -->
<g id="edge10" class="edge">
<title>instances&#45;&#45;vm</title>
<path fill="none" stroke="black" d="M108.45,-485.96C110.41,-519.56 120.8,-615.42 176,-663 200.92,-684.48 241.58,-686.3 264.29,-685.37"/>
</g>
<!-- disk -->
<g id="node12" class="node">
<title>disk</title>
<polygon fill="none" stroke="black" points="262.5,-630.5 262.5,-653.5 301.5,-653.5 301.5,-630.5 262.5,-630.5"/>
<text text-anchor="middle" x="282" y="-638.3" font-family="Times,serif" font-size="14.00">disk</text>
</g>
<!-- instances&#45;&#45;disk -->
<g id="edge11" class="edge">
<title>instances&#45;&#45;disk</title>
<path fill="none" stroke="black" d="M109.77,-485.75C114.68,-513.94 131.17,-585.67 176,-621 200.97,-640.68 239.43,-643.44 262.22,-643.1"/>
</g>
<!-- graphics -->
<g id="node13" class="node">
<title>graphics</title>
<polygon fill="none" stroke="black" points="251,-588.5 251,-611.5 313,-611.5 313,-588.5 251,-588.5"/>
<text text-anchor="middle" x="282" y="-596.3" font-family="Times,serif" font-size="14.00">graphics</text>
</g>
<!-- instances&#45;&#45;graphics -->
<g id="edge12" class="edge">
<title>instances&#45;&#45;graphics</title>
<path fill="none" stroke="black" d="M112.03,-485.67C120.29,-507.73 141.33,-555.45 176,-579 197.99,-593.94 228.18,-598.74 250.54,-600.07"/>
</g>
<!-- camera -->
<g id="node14" class="node">
<title>camera</title>
<polygon fill="none" stroke="black" points="254,-546.5 254,-569.5 310,-569.5 310,-546.5 254,-546.5"/>
<text text-anchor="middle" x="282" y="-554.3" font-family="Times,serif" font-size="14.00">camera</text>
</g>
<!-- instances&#45;&#45;camera -->
<g id="edge13" class="edge">
<title>instances&#45;&#45;camera</title>
<path fill="none" stroke="black" d="M116.99,-485.58C128.87,-500.02 151.21,-524.33 176,-537 200.5,-549.52 231.77,-554.58 253.79,-556.62"/>
</g>
<!-- connectivity -->
<g id="node15" class="node">
<title>connectivity</title>
<polygon fill="none" stroke="black" points="240.5,-504.5 240.5,-527.5 323.5,-527.5 323.5,-504.5 240.5,-504.5"/>
<text text-anchor="middle" x="282" y="-512.3" font-family="Times,serif" font-size="14.00">connectivity</text>
</g>
<!-- instances&#45;&#45;connectivity -->
<g id="edge14" class="edge">
<title>instances&#45;&#45;connectivity</title>
<path fill="none" stroke="black" d="M140.32,-484.72C151.55,-488.25 164.26,-492.02 176,-495 197.08,-500.35 220.83,-505.19 240.4,-508.88"/>
</g>
<!-- audio -->
<g id="node16" class="node">
<title>audio</title>
<polygon fill="none" stroke="black" points="258.5,-462.5 258.5,-485.5 305.5,-485.5 305.5,-462.5 258.5,-462.5"/>
<text text-anchor="middle" x="282" y="-470.3" font-family="Times,serif" font-size="14.00">audio</text>
</g>
<!-- instances&#45;&#45;audio -->
<g id="edge15" class="edge">
<title>instances&#45;&#45;audio</title>
<path fill="none" stroke="black" d="M140.13,-474C174.53,-474 228.21,-474 258.41,-474"/>
</g>
<!-- streaming -->
<g id="node17" class="node">
<title>streaming</title>
<polygon fill="none" stroke="black" points="246.5,-420.5 246.5,-443.5 317.5,-443.5 317.5,-420.5 246.5,-420.5"/>
<text text-anchor="middle" x="282" y="-428.3" font-family="Times,serif" font-size="14.00">streaming</text>
</g>
<!-- instances&#45;&#45;streaming -->
<g id="edge16" class="edge">
<title>instances&#45;&#45;streaming</title>
<path fill="none" stroke="black" d="M140.32,-463.28C151.55,-459.75 164.26,-455.98 176,-453 199.24,-447.1 225.73,-441.82 246.28,-438.02"/>
</g>
<!-- adb -->
<g id="node18" class="node">
<title>adb</title>
<polygon fill="none" stroke="black" points="264,-378.5 264,-401.5 300,-401.5 300,-378.5 264,-378.5"/>
<text text-anchor="middle" x="282" y="-386.3" font-family="Times,serif" font-size="14.00">adb</text>
</g>
<!-- instances&#45;&#45;adb -->
<g id="edge17" class="edge">
<title>instances&#45;&#45;adb</title>
<path fill="none" stroke="black" d="M116.99,-462.42C128.87,-447.98 151.21,-423.67 176,-411 204.47,-396.45 242.08,-391.97 263.7,-390.6"/>
</g>
<!-- vehicle -->
<g id="node19" class="node">
<title>vehicle</title>
<polygon fill="none" stroke="black" points="254,-336.5 254,-359.5 310,-359.5 310,-336.5 254,-336.5"/>
<text text-anchor="middle" x="282" y="-344.3" font-family="Times,serif" font-size="14.00">vehicle</text>
</g>
<!-- instances&#45;&#45;vehicle -->
<g id="edge18" class="edge">
<title>instances&#45;&#45;vehicle</title>
<path fill="none" stroke="black" d="M112.03,-462.33C120.29,-440.27 141.33,-392.55 176,-369 199.07,-353.33 231.15,-348.81 253.77,-347.76"/>
</g>
<!-- location -->
<g id="node20" class="node">
<title>location</title>
<polygon fill="none" stroke="black" points="252,-294.5 252,-317.5 312,-317.5 312,-294.5 252,-294.5"/>
<text text-anchor="middle" x="282" y="-302.3" font-family="Times,serif" font-size="14.00">location</text>
</g>
<!-- instances&#45;&#45;location -->
<g id="edge19" class="edge">
<title>instances&#45;&#45;location</title>
<path fill="none" stroke="black" d="M109.77,-462.25C114.68,-434.06 131.17,-362.33 176,-327 197.46,-310.08 228.9,-305.67 251.78,-304.98"/>
</g>
<!-- vhost_user_mac80211_hwsim -->
<g id="node4" class="node">
<title>vhost_user_mac80211_hwsim</title>
<polygon fill="none" stroke="black" points="191,-252.5 191,-275.5 373,-275.5 373,-252.5 191,-252.5"/>
<text text-anchor="middle" x="282" y="-260.3" font-family="Times,serif" font-size="14.00">vhost_user_mac80211_hwsim</text>
</g>
<!-- common&#45;&#45;vhost_user_mac80211_hwsim -->
<g id="edge3" class="edge">
<title>common&#45;&#45;vhost_user_mac80211_hwsim</title>
<path fill="none" stroke="black" d="M113.94,-170.66C124.01,-189.17 146.3,-225.04 176,-243 182.28,-246.8 189.13,-249.93 196.21,-252.5"/>
</g>
<!-- wmediumd_config -->
<g id="node5" class="node">
<title>wmediumd_config</title>
<polygon fill="none" stroke="black" points="222,-210.5 222,-233.5 342,-233.5 342,-210.5 222,-210.5"/>
<text text-anchor="middle" x="282" y="-218.3" font-family="Times,serif" font-size="14.00">wmediumd_config</text>
</g>
<!-- common&#45;&#45;wmediumd_config -->
<g id="edge4" class="edge">
<title>common&#45;&#45;wmediumd_config</title>
<path fill="none" stroke="black" d="M123.1,-170.52C136.35,-180.09 156.51,-193.32 176,-201 190.44,-206.69 206.63,-210.9 221.9,-214"/>
</g>
<!-- bluetooth_controller_properties_file -->
<g id="node6" class="node">
<title>bluetooth_controller_properties_file</title>
<polygon fill="none" stroke="black" points="176,-168.5 176,-191.5 388,-191.5 388,-168.5 176,-168.5"/>
<text text-anchor="middle" x="282" y="-176.3" font-family="Times,serif" font-size="14.00">bluetooth_controller_properties_file</text>
</g>
<!-- common&#45;&#45;bluetooth_controller_properties_file -->
<g id="edge5" class="edge">
<title>common&#45;&#45;bluetooth_controller_properties_file</title>
<path fill="none" stroke="black" d="M139.73,-162.85C153.09,-164.47 169.42,-166.46 186.17,-168.49"/>
</g>
<!-- bluetooth_default_commands_file -->
<g id="node7" class="node">
<title>bluetooth_default_commands_file</title>
<polygon fill="none" stroke="black" points="180.5,-126.5 180.5,-149.5 383.5,-149.5 383.5,-126.5 180.5,-126.5"/>
<text text-anchor="middle" x="282" y="-134.3" font-family="Times,serif" font-size="14.00">bluetooth_default_commands_file</text>
</g>
<!-- common&#45;&#45;bluetooth_default_commands_file -->
<g id="edge6" class="edge">
<title>common&#45;&#45;bluetooth_default_commands_file</title>
<path fill="none" stroke="black" d="M139.73,-155.15C153.09,-153.53 169.42,-151.54 186.17,-149.51"/>
</g>
<!-- enable_host_bluetooth -->
<g id="node8" class="node">
<title>enable_host_bluetooth</title>
<polygon fill="none" stroke="black" points="212.5,-84.5 212.5,-107.5 351.5,-107.5 351.5,-84.5 212.5,-84.5"/>
<text text-anchor="middle" x="282" y="-92.3" font-family="Times,serif" font-size="14.00">enable_host_bluetooth</text>
</g>
<!-- common&#45;&#45;enable_host_bluetooth -->
<g id="edge7" class="edge">
<title>common&#45;&#45;enable_host_bluetooth</title>
<path fill="none" stroke="black" d="M123.1,-147.48C136.35,-137.91 156.51,-124.68 176,-117 187.5,-112.47 200.11,-108.87 212.48,-106.04"/>
</g>
<!-- netsim -->
<g id="node9" class="node">
<title>netsim</title>
<polygon fill="none" stroke="black" points="255.5,-42.5 255.5,-65.5 308.5,-65.5 308.5,-42.5 255.5,-42.5"/>
<text text-anchor="middle" x="282" y="-50.3" font-family="Times,serif" font-size="14.00">netsim</text>
</g>
<!-- common&#45;&#45;netsim -->
<g id="edge8" class="edge">
<title>common&#45;&#45;netsim</title>
<path fill="none" stroke="black" d="M113.94,-147.34C124.01,-128.83 146.3,-92.96 176,-75 200.18,-60.38 232.66,-55.72 255.06,-54.34"/>
</g>
<!-- netsim_bt -->
<g id="node10" class="node">
<title>netsim_bt</title>
<polygon fill="none" stroke="black" points="246.5,-0.5 246.5,-23.5 317.5,-23.5 317.5,-0.5 246.5,-0.5"/>
<text text-anchor="middle" x="282" y="-8.3" font-family="Times,serif" font-size="14.00">netsim_bt</text>
</g>
<!-- common&#45;&#45;netsim_bt -->
<g id="edge9" class="edge">
<title>common&#45;&#45;netsim_bt</title>
<path fill="none" stroke="black" d="M110.7,-147.42C117.2,-122.23 136.22,-62.41 176,-33 196.18,-18.08 224.28,-13.06 246.33,-11.64"/>
</g>
</g>
</svg>
