<?xml version="1.0" encoding="UTF-8" standalone="no"?>
<!DOCTYPE svg PUBLIC "-//W3C//DTD SVG 1.1//EN"
 "http://www.w3.org/Graphics/SVG/1.1/DTD/svg11.dtd">
<!-- Generated by graphviz version 2.43.0 (0)
 -->
<!-- Title: %3 Pages: 1 -->
<svg width="316pt" height="152pt"
 viewBox="0.00 0.00 315.68 152.00" xmlns="http://www.w3.org/2000/svg" xmlns:xlink="http://www.w3.org/1999/xlink">
<g id="graph0" class="graph" transform="scale(1 1) rotate(0) translate(4 148)">
<title>%3</title>
<polygon fill="white" stroke="transparent" points="-4,4 -4,-148 311.68,-148 311.68,4 -4,4"/>
<!-- location -->
<g id="node1" class="node">
<title>location</title>
<ellipse fill="none" stroke="black" cx="39" cy="-72" rx="38.99" ry="18"/>
<text text-anchor="middle" x="39" y="-68.3" font-family="Times,serif" font-size="14.00">location</text>
</g>
<!-- start_gnss_proxy -->
<g id="node2" class="node">
<title>start_gnss_proxy</title>
<ellipse fill="none" stroke="black" cx="210.83" cy="-126" rx="70.69" ry="18"/>
<text text-anchor="middle" x="210.83" y="-122.3" font-family="Times,serif" font-size="14.00">start_gnss_proxy</text>
</g>
<!-- location&#45;&#45;start_gnss_proxy -->
<g id="edge1" class="edge">
<title>location&#45;&#45;start_gnss_proxy</title>
<path fill="none" stroke="black" d="M69.7,-83.42C83.15,-88.44 99.29,-94.25 113.99,-99 129.29,-103.94 146.12,-108.85 161.36,-113.11"/>
</g>
<!-- fixed_location_file_path -->
<g id="node3" class="node">
<title>fixed_location_file_path</title>
<ellipse fill="none" stroke="black" cx="210.83" cy="-72" rx="96.68" ry="18"/>
<text text-anchor="middle" x="210.83" y="-68.3" font-family="Times,serif" font-size="14.00">fixed_location_file_path</text>
</g>
<!-- location&#45;&#45;fixed_location_file_path -->
<g id="edge2" class="edge">
<title>location&#45;&#45;fixed_location_file_path</title>
<path fill="none" stroke="black" d="M78.11,-72C88.97,-72 101.31,-72 113.98,-72"/>
</g>
<!-- gnss_file_path -->
<g id="node4" class="node">
<title>gnss_file_path</title>
<ellipse fill="none" stroke="black" cx="210.83" cy="-18" rx="61.99" ry="18"/>
<text text-anchor="middle" x="210.83" y="-14.3" font-family="Times,serif" font-size="14.00">gnss_file_path</text>
</g>
<!-- location&#45;&#45;gnss_file_path -->
<g id="edge3" class="edge">
<title>location&#45;&#45;gnss_file_path</title>
<path fill="none" stroke="black" d="M69.7,-60.58C83.15,-55.56 99.29,-49.75 113.99,-45 130.28,-39.74 148.3,-34.51 164.28,-30.08"/>
</g>
</g>
</svg>
