<?xml version="1.0" encoding="UTF-8" standalone="no"?>
<!DOCTYPE svg PUBLIC "-//W3C//DTD SVG 1.1//EN"
 "http://www.w3.org/Graphics/SVG/1.1/DTD/svg11.dtd">
<!-- Generated by graphviz version 2.43.0 (0)
 -->
<!-- Title: %3 Pages: 1 -->
<svg width="849pt" height="1583pt"
 viewBox="0.00 0.00 848.54 1583.00" xmlns="http://www.w3.org/2000/svg" xmlns:xlink="http://www.w3.org/1999/xlink">
<g id="graph0" class="graph" transform="scale(1 1) rotate(0) translate(4 1579)">
<title>%3</title>
<polygon fill="white" stroke="transparent" points="-4,4 -4,-1579 844.54,-1579 844.54,4 -4,4"/>
<!-- vm -->
<g id="node1" class="node">
<title>vm</title>
<ellipse fill="none" stroke="black" cx="27" cy="-882" rx="27" ry="18"/>
<text text-anchor="middle" x="27" y="-878.3" font-family="Times,serif" font-size="14.00">vm</text>
</g>
<!-- cpus -->
<g id="node2" class="node">
<title>cpus</title>
<ellipse fill="none" stroke="black" cx="203.09" cy="-1341" rx="32.49" ry="18"/>
<text text-anchor="middle" x="203.09" y="-1337.3" font-family="Times,serif" font-size="14.00">cpus</text>
</g>
<!-- vm&#45;&#45;cpus -->
<g id="edge1" class="edge">
<title>vm&#45;&#45;cpus</title>
<path fill="none" stroke="black" d="M28,-900.04C28.36,-973.87 33.51,-1251.95 90,-1314 110.14,-1336.13 144.99,-1341.62 170.49,-1342.36"/>
</g>
<!-- vm_manager -->
<g id="node3" class="node">
<title>vm_manager</title>
<ellipse fill="none" stroke="black" cx="203.09" cy="-1287" rx="70.39" ry="18"/>
<text text-anchor="middle" x="203.09" y="-1283.3" font-family="Times,serif" font-size="14.00">vm_manager</text>
</g>
<!-- vm&#45;&#45;vm_manager -->
<g id="edge2" class="edge">
<title>vm&#45;&#45;vm_manager</title>
<path fill="none" stroke="black" d="M28.52,-900.28C30.69,-967.6 41.35,-1198.62 90,-1251 103.83,-1265.89 124.31,-1273.21 144,-1277.19"/>
</g>
<!-- vm&#45;&#45;vm_manager -->
<g id="edge18" class="edge">
<title>vm&#45;&#45;vm_manager</title>
<path fill="none" stroke="black" d="M28.32,-900.03C29.99,-969.27 39.65,-1214.79 90,-1269 102.06,-1281.98 119.17,-1289.21 136.41,-1292.75"/>
</g>
<!-- vsock_guest_cid -->
<g id="node4" class="node">
<title>vsock_guest_cid</title>
<ellipse fill="none" stroke="black" cx="203.09" cy="-1233" rx="85.29" ry="18"/>
<text text-anchor="middle" x="203.09" y="-1229.3" font-family="Times,serif" font-size="14.00">vsock_guest_cid</text>
</g>
<!-- vm&#45;&#45;vsock_guest_cid -->
<g id="edge3" class="edge">
<title>vm&#45;&#45;vsock_guest_cid</title>
<path fill="none" stroke="black" d="M28.94,-899.98C32.52,-961.35 47.31,-1161.24 90,-1206 99.19,-1215.63 111.16,-1222.08 123.86,-1226.35"/>
</g>
<!-- enable_minimal_mode -->
<g id="node5" class="node">
<title>enable_minimal_mode</title>
<ellipse fill="none" stroke="black" cx="203.09" cy="-1179" rx="113.18" ry="18"/>
<text text-anchor="middle" x="203.09" y="-1175.3" font-family="Times,serif" font-size="14.00">enable_minimal_mode</text>
</g>
<!-- vm&#45;&#45;enable_minimal_mode -->
<g id="edge4" class="edge">
<title>vm&#45;&#45;enable_minimal_mode</title>
<path fill="none" stroke="black" d="M29.69,-899.97C35.16,-954.38 54.14,-1115.76 90,-1152 96.69,-1158.76 104.75,-1163.94 113.45,-1167.89"/>
</g>
<!-- restart_subprocesses -->
<g id="node6" class="node">
<title>restart_subprocesses</title>
<ellipse fill="none" stroke="black" cx="203.09" cy="-1125" rx="109.68" ry="18"/>
<text text-anchor="middle" x="203.09" y="-1121.3" font-family="Times,serif" font-size="14.00">restart_subprocesses</text>
</g>
<!-- vm&#45;&#45;restart_subprocesses -->
<g id="edge5" class="edge">
<title>vm&#45;&#45;restart_subprocesses</title>
<path fill="none" stroke="black" d="M27.51,-900.12C27.44,-941.54 33.37,-1043.76 90,-1098 97.23,-1104.92 105.91,-1110.17 115.2,-1114.14"/>
</g>
<!-- setupwizard_mode -->
<g id="node7" class="node">
<title>setupwizard_mode</title>
<ellipse fill="none" stroke="black" cx="203.09" cy="-1071" rx="97.48" ry="18"/>
<text text-anchor="middle" x="203.09" y="-1067.3" font-family="Times,serif" font-size="14.00">setupwizard_mode</text>
</g>
<!-- vm&#45;&#45;setupwizard_mode -->
<g id="edge6" class="edge">
<title>vm&#45;&#45;setupwizard_mode</title>
<path fill="none" stroke="black" d="M29.54,-900.16C33.41,-933.79 46.56,-1005.84 90,-1044 98.8,-1051.73 109.43,-1057.33 120.59,-1061.39"/>
</g>
<!-- smt -->
<g id="node8" class="node">
<title>smt</title>
<ellipse fill="none" stroke="black" cx="203.09" cy="-1017" rx="28.7" ry="18"/>
<text text-anchor="middle" x="203.09" y="-1013.3" font-family="Times,serif" font-size="14.00">smt</text>
</g>
<!-- vm&#45;&#45;smt -->
<g id="edge7" class="edge">
<title>vm&#45;&#45;smt</title>
<path fill="none" stroke="black" d="M33.18,-899.54C41.26,-923.72 59.2,-966.92 90,-990 114.51,-1008.36 149.76,-1014.42 174.16,-1016.32"/>
</g>
<!-- use_allocd -->
<g id="node9" class="node">
<title>use_allocd</title>
<ellipse fill="none" stroke="black" cx="203.09" cy="-963" rx="58.49" ry="18"/>
<text text-anchor="middle" x="203.09" y="-959.3" font-family="Times,serif" font-size="14.00">use_allocd</text>
</g>
<!-- vm&#45;&#45;use_allocd -->
<g id="edge8" class="edge">
<title>vm&#45;&#45;use_allocd</title>
<path fill="none" stroke="black" d="M41.77,-897.55C53.44,-909.78 71.23,-926.31 90,-936 108.32,-945.46 130.04,-951.67 149.47,-955.73"/>
</g>
<!-- use_sdcard -->
<g id="node10" class="node">
<title>use_sdcard</title>
<ellipse fill="none" stroke="black" cx="203.09" cy="-909" rx="62.29" ry="18"/>
<text text-anchor="middle" x="203.09" y="-905.3" font-family="Times,serif" font-size="14.00">use_sdcard</text>
</g>
<!-- vm&#45;&#45;use_sdcard -->
<g id="edge9" class="edge">
<title>vm&#45;&#45;use_sdcard</title>
<path fill="none" stroke="black" d="M53.69,-885.98C78.37,-889.81 116.46,-895.72 147.86,-900.59"/>
</g>
<!-- uuid -->
<g id="node11" class="node">
<title>uuid</title>
<ellipse fill="none" stroke="black" cx="203.09" cy="-855" rx="31.4" ry="18"/>
<text text-anchor="middle" x="203.09" y="-851.3" font-family="Times,serif" font-size="14.00">uuid</text>
</g>
<!-- vm&#45;&#45;uuid -->
<g id="edge10" class="edge">
<title>vm&#45;&#45;uuid</title>
<path fill="none" stroke="black" d="M53.69,-878.02C85.47,-873.09 139.45,-864.72 172.8,-859.54"/>
</g>
<!-- file_verbosity -->
<g id="node12" class="node">
<title>file_verbosity</title>
<ellipse fill="none" stroke="black" cx="203.09" cy="-801" rx="72.59" ry="18"/>
<text text-anchor="middle" x="203.09" y="-797.3" font-family="Times,serif" font-size="14.00">file_verbosity</text>
</g>
<!-- vm&#45;&#45;file_verbosity -->
<g id="edge11" class="edge">
<title>vm&#45;&#45;file_verbosity</title>
<path fill="none" stroke="black" d="M41.77,-866.45C53.44,-854.22 71.23,-837.69 90,-828 105.56,-819.97 123.58,-814.27 140.56,-810.25"/>
</g>
<!-- verbosity -->
<g id="node13" class="node">
<title>verbosity</title>
<ellipse fill="none" stroke="black" cx="203.09" cy="-747" rx="53.89" ry="18"/>
<text text-anchor="middle" x="203.09" y="-743.3" font-family="Times,serif" font-size="14.00">verbosity</text>
</g>
<!-- vm&#45;&#45;verbosity -->
<g id="edge12" class="edge">
<title>vm&#45;&#45;verbosity</title>
<path fill="none" stroke="black" d="M33.18,-864.46C41.26,-840.28 59.2,-797.08 90,-774 107.22,-761.1 129.74,-754.27 150.08,-750.69"/>
</g>
<!-- Run_file_discovery -->
<g id="node14" class="node">
<title>Run_file_discovery</title>
<ellipse fill="none" stroke="black" cx="203.09" cy="-693" rx="96.68" ry="18"/>
<text text-anchor="middle" x="203.09" y="-689.3" font-family="Times,serif" font-size="14.00">Run_file_discovery</text>
</g>
<!-- vm&#45;&#45;Run_file_discovery -->
<g id="edge13" class="edge">
<title>vm&#45;&#45;Run_file_discovery</title>
<path fill="none" stroke="black" d="M29.54,-863.84C33.41,-830.21 46.56,-758.16 90,-720 98.8,-712.27 109.43,-706.67 120.59,-702.61"/>
</g>
<!-- config -->
<g id="node15" class="node">
<title>config</title>
<ellipse fill="none" stroke="black" cx="203.09" cy="-639" rx="38.19" ry="18"/>
<text text-anchor="middle" x="203.09" y="-635.3" font-family="Times,serif" font-size="14.00">config</text>
</g>
<!-- vm&#45;&#45;config -->
<g id="edge14" class="edge">
<title>vm&#45;&#45;config</title>
<path fill="none" stroke="black" d="M27.51,-863.88C27.44,-822.46 33.37,-720.24 90,-666 109.73,-647.1 140.29,-640.68 164.52,-638.8"/>
</g>
<!-- memory_mb -->
<g id="node16" class="node">
<title>memory_mb</title>
<ellipse fill="none" stroke="black" cx="203.09" cy="-585" rx="67.69" ry="18"/>
<text text-anchor="middle" x="203.09" y="-581.3" font-family="Times,serif" font-size="14.00">memory_mb</text>
</g>
<!-- vm&#45;&#45;memory_mb -->
<g id="edge15" class="edge">
<title>vm&#45;&#45;memory_mb</title>
<path fill="none" stroke="black" d="M29.69,-864.03C35.16,-809.62 54.14,-648.24 90,-612 102.39,-599.48 119.51,-592.37 136.64,-588.44"/>
</g>
<!-- custom_actions -->
<g id="node17" class="node">
<title>custom_actions</title>
<ellipse fill="none" stroke="black" cx="203.09" cy="-531" rx="81.79" ry="18"/>
<text text-anchor="middle" x="203.09" y="-527.3" font-family="Times,serif" font-size="14.00">custom_actions</text>
</g>
<!-- vm&#45;&#45;custom_actions -->
<g id="edge16" class="edge">
<title>vm&#45;&#45;custom_actions</title>
<path fill="none" stroke="black" d="M28.94,-864.02C32.52,-802.65 47.31,-602.76 90,-558 99.6,-547.93 112.25,-541.34 125.59,-537.08"/>
</g>
<!-- enable_pkvm -->
<g id="node18" class="node">
<title>enable_pkvm</title>
<ellipse fill="none" stroke="black" cx="203.09" cy="-477" rx="71.49" ry="18"/>
<text text-anchor="middle" x="203.09" y="-473.3" font-family="Times,serif" font-size="14.00">enable_pkvm</text>
</g>
<!-- vm&#45;&#45;enable_pkvm -->
<g id="edge17" class="edge">
<title>vm&#45;&#45;enable_pkvm</title>
<path fill="none" stroke="black" d="M28.41,-863.94C30.3,-796.05 40.44,-557.36 90,-504 101.24,-491.9 116.87,-484.79 132.91,-480.72"/>
</g>
<!-- security -->
<g id="node32" class="node">
<title>security</title>
<ellipse fill="none" stroke="black" cx="203.09" cy="-423" rx="48.19" ry="18"/>
<text text-anchor="middle" x="203.09" y="-419.3" font-family="Times,serif" font-size="14.00">security</text>
</g>
<!-- vm&#45;&#45;security -->
<g id="edge32" class="edge">
<title>vm&#45;&#45;security</title>
<path fill="none" stroke="black" d="M28,-863.96C28.36,-790.13 33.51,-512.05 90,-450 106.24,-432.16 132.02,-425.14 154.77,-422.69"/>
</g>
<!-- kernel -->
<g id="node36" class="node">
<title>kernel</title>
<ellipse fill="none" stroke="black" cx="203.09" cy="-207" rx="40.09" ry="18"/>
<text text-anchor="middle" x="203.09" y="-203.3" font-family="Times,serif" font-size="14.00">kernel</text>
</g>
<!-- vm&#45;&#45;kernel -->
<g id="edge36" class="edge">
<title>vm&#45;&#45;kernel</title>
<path fill="none" stroke="black" d="M27.7,-863.75C27.17,-798.39 30,-570.55 90,-396 113.69,-327.09 164.42,-255.8 188.66,-224.04"/>
</g>
<!-- crosvm -->
<g id="node22" class="node">
<title>crosvm</title>
<ellipse fill="none" stroke="black" cx="469.82" cy="-1422" rx="44.39" ry="18"/>
<text text-anchor="middle" x="469.82" y="-1418.3" font-family="Times,serif" font-size="14.00">crosvm</text>
</g>
<!-- vm_manager&#45;&#45;crosvm -->
<g id="edge19" class="edge">
<title>vm_manager&#45;&#45;crosvm</title>
<path fill="none" stroke="black" d="M262.51,-1296.67C280.22,-1300.76 299.41,-1306.39 316.18,-1314 369.39,-1338.15 423.23,-1381.73 450.52,-1405.48"/>
</g>
<!-- qemu -->
<g id="node27" class="node">
<title>qemu</title>
<ellipse fill="none" stroke="black" cx="469.82" cy="-1287" rx="36.29" ry="18"/>
<text text-anchor="middle" x="469.82" y="-1283.3" font-family="Times,serif" font-size="14.00">qemu</text>
</g>
<!-- vm_manager&#45;&#45;qemu -->
<g id="edge25" class="edge">
<title>vm_manager&#45;&#45;qemu</title>
<path fill="none" stroke="black" d="M273.3,-1287C324.62,-1287 392.49,-1287 433.28,-1287"/>
</g>
<!-- gem5 -->
<g id="node28" class="node">
<title>gem5</title>
<ellipse fill="none" stroke="black" cx="469.82" cy="-1179" rx="36.29" ry="18"/>
<text text-anchor="middle" x="469.82" y="-1175.3" font-family="Times,serif" font-size="14.00">gem5</text>
</g>
<!-- vm_manager&#45;&#45;gem5 -->
<g id="edge27" class="edge">
<title>vm_manager&#45;&#45;gem5</title>
<path fill="none" stroke="black" d="M260.23,-1276.39C278.38,-1272.19 298.4,-1266.74 316.18,-1260 364.85,-1241.56 417.66,-1210.91 446.64,-1193.07"/>
</g>
<!-- crosvm_binary_dir -->
<g id="node19" class="node">
<title>crosvm_binary_dir</title>
<ellipse fill="none" stroke="black" cx="732" cy="-1557" rx="57.69" ry="18"/>
<text text-anchor="middle" x="732" y="-1553.3" font-family="Times,serif" font-size="14.00">binary_dir</text>
</g>
<!-- qemu_binary_dir -->
<g id="node20" class="node">
<title>qemu_binary_dir</title>
<ellipse fill="none" stroke="black" cx="732" cy="-1287" rx="57.69" ry="18"/>
<text text-anchor="middle" x="732" y="-1283.3" font-family="Times,serif" font-size="14.00">binary_dir</text>
</g>
<!-- gem5_binary_dir -->
<g id="node21" class="node">
<title>gem5_binary_dir</title>
<ellipse fill="none" stroke="black" cx="732" cy="-1233" rx="57.69" ry="18"/>
<text text-anchor="middle" x="732" y="-1229.3" font-family="Times,serif" font-size="14.00">binary_dir</text>
</g>
<!-- crosvm&#45;&#45;crosvm_binary_dir -->
<g id="edge20" class="edge">
<title>crosvm&#45;&#45;crosvm_binary_dir</title>
<path fill="none" stroke="black" d="M489.15,-1438.45C516.47,-1462.12 570.37,-1505.59 623.46,-1530 641.47,-1538.28 662.4,-1544.27 680.98,-1548.47"/>
</g>
<!-- seccomp_policy_dir -->
<g id="node23" class="node">
<title>seccomp_policy_dir</title>
<ellipse fill="none" stroke="black" cx="732" cy="-1503" rx="100.18" ry="18"/>
<text text-anchor="middle" x="732" y="-1499.3" font-family="Times,serif" font-size="14.00">seccomp_policy_dir</text>
</g>
<!-- crosvm&#45;&#45;seccomp_policy_dir -->
<g id="edge21" class="edge">
<title>crosvm&#45;&#45;seccomp_policy_dir</title>
<path fill="none" stroke="black" d="M502.69,-1434.26C533.37,-1445.83 581.21,-1463.25 623.46,-1476 638.48,-1480.53 654.83,-1484.91 670.15,-1488.78"/>
</g>
<!-- enable_sandbox -->
<g id="node24" class="node">
<title>enable_sandbox</title>
<ellipse fill="none" stroke="black" cx="732" cy="-1449" rx="84.49" ry="18"/>
<text text-anchor="middle" x="732" y="-1445.3" font-family="Times,serif" font-size="14.00">enable_sandbox</text>
</g>
<!-- crosvm&#45;&#45;enable_sandbox -->
<g id="edge22" class="edge">
<title>crosvm&#45;&#45;enable_sandbox</title>
<path fill="none" stroke="black" d="M512.91,-1426.37C551.38,-1430.36 609.19,-1436.36 655.62,-1441.18"/>
</g>
<!-- simple_media_device -->
<g id="node25" class="node">
<title>simple_media_device</title>
<ellipse fill="none" stroke="black" cx="732" cy="-1395" rx="108.58" ry="18"/>
<text text-anchor="middle" x="732" y="-1391.3" font-family="Times,serif" font-size="14.00">simple_media_device</text>
</g>
<!-- crosvm&#45;&#45;simple_media_device -->
<g id="edge23" class="edge">
<title>crosvm&#45;&#45;simple_media_device</title>
<path fill="none" stroke="black" d="M512.91,-1417.63C547.07,-1414.09 596.46,-1408.96 639.61,-1404.48"/>
</g>
<!-- v4l2_proxy -->
<g id="node26" class="node">
<title>v4l2_proxy</title>
<ellipse fill="none" stroke="black" cx="732" cy="-1341" rx="61.99" ry="18"/>
<text text-anchor="middle" x="732" y="-1337.3" font-family="Times,serif" font-size="14.00">v4l2_proxy</text>
</g>
<!-- crosvm&#45;&#45;v4l2_proxy -->
<g id="edge24" class="edge">
<title>crosvm&#45;&#45;v4l2_proxy</title>
<path fill="none" stroke="black" d="M502.69,-1409.74C533.37,-1398.17 581.21,-1380.75 623.46,-1368 642.81,-1362.16 664.38,-1356.57 683.09,-1352.01"/>
</g>
<!-- qemu&#45;&#45;qemu_binary_dir -->
<g id="edge26" class="edge">
<title>qemu&#45;&#45;qemu_binary_dir</title>
<path fill="none" stroke="black" d="M506.45,-1287C549.59,-1287 622.81,-1287 673.87,-1287"/>
</g>
<!-- gem5&#45;&#45;gem5_binary_dir -->
<g id="edge28" class="edge">
<title>gem5&#45;&#45;gem5_binary_dir</title>
<path fill="none" stroke="black" d="M503.77,-1185.84C549.17,-1195.26 631.23,-1212.29 683.33,-1223.11"/>
</g>
<!-- checkpoint_dir -->
<g id="node29" class="node">
<title>checkpoint_dir</title>
<ellipse fill="none" stroke="black" cx="732" cy="-1179" rx="78.79" ry="18"/>
<text text-anchor="middle" x="732" y="-1175.3" font-family="Times,serif" font-size="14.00">checkpoint_dir</text>
</g>
<!-- gem5&#45;&#45;checkpoint_dir -->
<g id="edge29" class="edge">
<title>gem5&#45;&#45;checkpoint_dir</title>
<path fill="none" stroke="black" d="M506.45,-1179C544.03,-1179 604.42,-1179 653.11,-1179"/>
</g>
<!-- debug_file -->
<g id="node30" class="node">
<title>debug_file</title>
<ellipse fill="none" stroke="black" cx="732" cy="-1125" rx="57.69" ry="18"/>
<text text-anchor="middle" x="732" y="-1121.3" font-family="Times,serif" font-size="14.00">debug_file</text>
</g>
<!-- gem5&#45;&#45;debug_file -->
<g id="edge30" class="edge">
<title>gem5&#45;&#45;debug_file</title>
<path fill="none" stroke="black" d="M503.77,-1172.16C549.17,-1162.74 631.23,-1145.71 683.33,-1134.89"/>
</g>
<!-- debug_flags -->
<g id="node31" class="node">
<title>debug_flags</title>
<ellipse fill="none" stroke="black" cx="732" cy="-1071" rx="65.79" ry="18"/>
<text text-anchor="middle" x="732" y="-1067.3" font-family="Times,serif" font-size="14.00">debug_flags</text>
</g>
<!-- gem5&#45;&#45;debug_flags -->
<g id="edge31" class="edge">
<title>gem5&#45;&#45;debug_flags</title>
<path fill="none" stroke="black" d="M493.02,-1165C522.03,-1147.24 574.87,-1116.67 623.46,-1098 640.98,-1091.27 660.75,-1085.75 678.52,-1081.49"/>
</g>
<!-- guest_enforce_security -->
<g id="node33" class="node">
<title>guest_enforce_security</title>
<ellipse fill="none" stroke="black" cx="469.82" cy="-504" rx="117.78" ry="18"/>
<text text-anchor="middle" x="469.82" y="-500.3" font-family="Times,serif" font-size="14.00">guest_enforce_security</text>
</g>
<!-- security&#45;&#45;guest_enforce_security -->
<g id="edge33" class="edge">
<title>security&#45;&#45;guest_enforce_security</title>
<path fill="none" stroke="black" d="M248.33,-429.36C269.54,-433.47 294.9,-439.98 316.18,-450 334.28,-458.52 334.05,-468.56 352.18,-477 364.15,-482.57 377.35,-487.03 390.45,-490.6"/>
</g>
<!-- serial_number -->
<g id="node34" class="node">
<title>serial_number</title>
<ellipse fill="none" stroke="black" cx="469.82" cy="-450" rx="77.19" ry="18"/>
<text text-anchor="middle" x="469.82" y="-446.3" font-family="Times,serif" font-size="14.00">serial_number</text>
</g>
<!-- security&#45;&#45;serial_number -->
<g id="edge34" class="edge">
<title>security&#45;&#45;serial_number</title>
<path fill="none" stroke="black" d="M249.6,-427.64C290.62,-431.83 351.57,-438.04 398.8,-442.86"/>
</g>
<!-- secure_hals -->
<g id="node35" class="node">
<title>secure_hals</title>
<ellipse fill="none" stroke="black" cx="469.82" cy="-396" rx="64.99" ry="18"/>
<text text-anchor="middle" x="469.82" y="-392.3" font-family="Times,serif" font-size="14.00">secure_hals</text>
</g>
<!-- security&#45;&#45;secure_hals -->
<g id="edge35" class="edge">
<title>security&#45;&#45;secure_hals</title>
<path fill="none" stroke="black" d="M249.6,-418.36C293.5,-413.88 360.24,-407.07 408.54,-402.15"/>
</g>
<!-- enable_kernel_log -->
<g id="node37" class="node">
<title>enable_kernel_log</title>
<ellipse fill="none" stroke="black" cx="469.82" cy="-342" rx="93.68" ry="18"/>
<text text-anchor="middle" x="469.82" y="-338.3" font-family="Times,serif" font-size="14.00">enable_kernel_log</text>
</g>
<!-- kernel&#45;&#45;enable_kernel_log -->
<g id="edge37" class="edge">
<title>kernel&#45;&#45;enable_kernel_log</title>
<path fill="none" stroke="black" d="M221.29,-223.21C247.46,-246.98 299.8,-291.05 352.18,-315 366.45,-321.52 382.45,-326.55 397.92,-330.39"/>
</g>
<!-- kgdb -->
<g id="node38" class="node">
<title>kgdb</title>
<ellipse fill="none" stroke="black" cx="469.82" cy="-288" rx="33.6" ry="18"/>
<text text-anchor="middle" x="469.82" y="-284.3" font-family="Times,serif" font-size="14.00">kgdb</text>
</g>
<!-- kernel&#45;&#45;kgdb -->
<g id="edge38" class="edge">
<title>kernel&#45;&#45;kgdb</title>
<path fill="none" stroke="black" d="M233.52,-218.94C263.15,-230.67 310.34,-248.58 352.18,-261 380.87,-269.52 414.19,-277 437.85,-281.91"/>
</g>
<!-- gdb_port -->
<g id="node39" class="node">
<title>gdb_port</title>
<ellipse fill="none" stroke="black" cx="469.82" cy="-234" rx="51.99" ry="18"/>
<text text-anchor="middle" x="469.82" y="-230.3" font-family="Times,serif" font-size="14.00">gdb_port</text>
</g>
<!-- kernel&#45;&#45;gdb_port -->
<g id="edge39" class="edge">
<title>kernel&#45;&#45;gdb_port</title>
<path fill="none" stroke="black" d="M242.58,-210.93C289.33,-215.69 368.27,-223.74 419.45,-228.96"/>
</g>
<!-- console -->
<g id="node40" class="node">
<title>console</title>
<ellipse fill="none" stroke="black" cx="469.82" cy="-180" rx="45.49" ry="18"/>
<text text-anchor="middle" x="469.82" y="-176.3" font-family="Times,serif" font-size="14.00">console</text>
</g>
<!-- kernel&#45;&#45;console -->
<g id="edge40" class="edge">
<title>kernel&#45;&#45;console</title>
<path fill="none" stroke="black" d="M242.58,-203.07C291.2,-198.12 374.62,-189.61 425.44,-184.42"/>
</g>
<!-- extra_kernel_cmdline -->
<g id="node41" class="node">
<title>extra_kernel_cmdline</title>
<ellipse fill="none" stroke="black" cx="469.82" cy="-126" rx="109.68" ry="18"/>
<text text-anchor="middle" x="469.82" y="-122.3" font-family="Times,serif" font-size="14.00">extra_kernel_cmdline</text>
</g>
<!-- kernel&#45;&#45;extra_kernel_cmdline -->
<g id="edge41" class="edge">
<title>kernel&#45;&#45;extra_kernel_cmdline</title>
<path fill="none" stroke="black" d="M233.52,-195.06C263.15,-183.33 310.34,-165.42 352.18,-153 368.02,-148.3 385.27,-143.91 401.53,-140.1"/>
</g>
<!-- initramfs_path -->
<g id="node42" class="node">
<title>initramfs_path</title>
<ellipse fill="none" stroke="black" cx="469.82" cy="-72" rx="78.79" ry="18"/>
<text text-anchor="middle" x="469.82" y="-68.3" font-family="Times,serif" font-size="14.00">initramfs_path</text>
</g>
<!-- kernel&#45;&#45;initramfs_path -->
<g id="edge42" class="edge">
<title>kernel&#45;&#45;initramfs_path</title>
<path fill="none" stroke="black" d="M221.29,-190.79C247.46,-167.02 299.8,-122.95 352.18,-99 368.44,-91.57 386.93,-86.08 404.33,-82.07"/>
</g>
<!-- path -->
<g id="node43" class="node">
<title>path</title>
<ellipse fill="none" stroke="black" cx="469.82" cy="-18" rx="31.7" ry="18"/>
<text text-anchor="middle" x="469.82" y="-14.3" font-family="Times,serif" font-size="14.00">path</text>
</g>
<!-- kernel&#45;&#45;path -->
<g id="edge43" class="edge">
<title>kernel&#45;&#45;path</title>
<path fill="none" stroke="black" d="M214.71,-189.66C236.22,-156.1 288.35,-82.3 352.18,-45 378.65,-29.53 413.34,-22.92 437.99,-20.1"/>
</g>
</g>
</svg>
