<?xml version="1.0" encoding="UTF-8" standalone="no"?>
<!DOCTYPE svg PUBLIC "-//W3C//DTD SVG 1.1//EN"
 "http://www.w3.org/Graphics/SVG/1.1/DTD/svg11.dtd">
<!-- Generated by graphviz version 2.44.1 (20201121.0304)
 -->
<!-- Pages: 1 -->
<svg width="762pt" height="1557pt"
 viewBox="0.00 0.00 761.85 1556.77" xmlns="http://www.w3.org/2000/svg" xmlns:xlink="http://www.w3.org/1999/xlink">
<g id="graph0" class="graph" transform="scale(1 1) rotate(0) translate(4 1552.77)">
<polygon fill="white" stroke="none" points="-4,4 -4,-1552.77 757.85,-1552.77 757.85,4 -4,4"/>
<!-- vm -->
<g id="node1" class="node">
<title>vm</title>
<ellipse fill="none" stroke="black" cx="27" cy="-870.38" rx="27" ry="18.38"/>
<text text-anchor="middle" x="27" y="-866.08" font-family="Times,serif" font-size="14.00">vm</text>
</g>
<!-- cpus -->
<g id="node2" class="node">
<title>cpus</title>
<ellipse fill="none" stroke="black" cx="190.41" cy="-1310.38" rx="28.81" ry="18.38"/>
<text text-anchor="middle" x="190.41" y="-1306.08" font-family="Times,serif" font-size="14.00">cpus</text>
</g>
<!-- vm&#45;&#45;cpus -->
<g id="edge1" class="edge">
<title>vm&#45;&#45;cpus</title>
<path fill="none" stroke="black" d="M28.22,-889.24C29.43,-961.92 37.43,-1222.78 90,-1282.38 107.79,-1302.55 138.86,-1308.7 161.54,-1310.33"/>
</g>
<!-- vm_manager -->
<g id="node3" class="node">
<title>vm_manager</title>
<ellipse fill="none" stroke="black" cx="190.41" cy="-1255.38" rx="62.23" ry="18.38"/>
<text text-anchor="middle" x="190.41" y="-1251.08" font-family="Times,serif" font-size="14.00">vm_manager</text>
</g>
<!-- vm&#45;&#45;vm_manager -->
<g id="edge2" class="edge">
<title>vm&#45;&#45;vm_manager</title>
<path fill="none" stroke="black" d="M28.86,-889.19C32,-954.53 45.12,-1168.64 90,-1218.38 102.79,-1232.56 122.15,-1239.79 140.39,-1244.04"/>
</g>
<!-- vm&#45;&#45;vm_manager -->
<g id="edge17" class="edge">
<title>vm&#45;&#45;vm_manager</title>
<path fill="none" stroke="black" d="M28.55,-888.9C31.06,-956.22 43.43,-1184.78 90,-1236.38 100.03,-1247.5 114.09,-1254.34 128.49,-1258.21"/>
</g>
<!-- vsock_guest_cid -->
<g id="node4" class="node">
<title>vsock_guest_cid</title>
<ellipse fill="none" stroke="black" cx="190.41" cy="-1200.38" rx="74.95" ry="18.38"/>
<text text-anchor="middle" x="190.41" y="-1196.08" font-family="Times,serif" font-size="14.00">vsock_guest_cid</text>
</g>
<!-- vm&#45;&#45;vsock_guest_cid -->
<g id="edge3" class="edge">
<title>vm&#45;&#45;vsock_guest_cid</title>
<path fill="none" stroke="black" d="M29.34,-889.13C33.95,-948.45 51.08,-1130.55 90,-1172.38 98.73,-1181.77 110.34,-1188.1 122.54,-1192.34"/>
</g>
<!-- enable_minimal_mode -->
<g id="node5" class="node">
<title>enable_minimal_mode</title>
<ellipse fill="none" stroke="black" cx="190.41" cy="-1145.38" rx="100.41" ry="18.38"/>
<text text-anchor="middle" x="190.41" y="-1141.08" font-family="Times,serif" font-size="14.00">enable_minimal_mode</text>
</g>
<!-- vm&#45;&#45;enable_minimal_mode -->
<g id="edge4" class="edge">
<title>vm&#45;&#45;enable_minimal_mode</title>
<path fill="none" stroke="black" d="M30.25,-888.95C36.85,-940.59 57.8,-1084.25 90,-1117.38 96.62,-1124.2 104.76,-1129.39 113.51,-1133.34"/>
</g>
<!-- restart_subprocesses -->
<g id="node6" class="node">
<title>restart_subprocesses</title>
<ellipse fill="none" stroke="black" cx="190.41" cy="-1090.38" rx="89.8" ry="18.38"/>
<text text-anchor="middle" x="190.41" y="-1086.08" font-family="Times,serif" font-size="14.00">restart_subprocesses</text>
</g>
<!-- vm&#45;&#45;restart_subprocesses -->
<g id="edge5" class="edge">
<title>vm&#45;&#45;restart_subprocesses</title>
<path fill="none" stroke="black" d="M28.47,-889.23C30.47,-927.52 40.54,-1014.76 90,-1062.38 97.75,-1069.85 107.33,-1075.35 117.45,-1079.4"/>
</g>
<!-- setupwizard_mode -->
<g id="node7" class="node">
<title>setupwizard_mode</title>
<ellipse fill="none" stroke="black" cx="190.41" cy="-1035.38" rx="83.97" ry="18.38"/>
<text text-anchor="middle" x="190.41" y="-1031.08" font-family="Times,serif" font-size="14.00">setupwizard_mode</text>
</g>
<!-- vm&#45;&#45;setupwizard_mode -->
<g id="edge6" class="edge">
<title>vm&#45;&#45;setupwizard_mode</title>
<path fill="none" stroke="black" d="M31.21,-888.89C37.31,-918.37 53.38,-975.9 90,-1007.38 98.9,-1015.04 109.76,-1020.61 120.99,-1024.67"/>
</g>
<!-- smt -->
<g id="node8" class="node">
<title>smt</title>
<ellipse fill="none" stroke="black" cx="190.41" cy="-980.38" rx="27" ry="18.38"/>
<text text-anchor="middle" x="190.41" y="-976.08" font-family="Times,serif" font-size="14.00">smt</text>
</g>
<!-- vm&#45;&#45;smt -->
<g id="edge7" class="edge">
<title>vm&#45;&#45;smt</title>
<path fill="none" stroke="black" d="M36.71,-887.81C46.95,-906.52 65.68,-935.78 90,-952.38 112.06,-967.45 142.12,-974.46 163.39,-977.69"/>
</g>
<!-- use_allocd -->
<g id="node9" class="node">
<title>use_allocd</title>
<ellipse fill="none" stroke="black" cx="190.41" cy="-925.38" rx="52.15" ry="18.38"/>
<text text-anchor="middle" x="190.41" y="-921.08" font-family="Times,serif" font-size="14.00">use_allocd</text>
</g>
<!-- vm&#45;&#45;use_allocd -->
<g id="edge8" class="edge">
<title>vm&#45;&#45;use_allocd</title>
<path fill="none" stroke="black" d="M49.8,-880.75C61.55,-886.11 76.4,-892.53 90,-897.38 108.41,-903.95 129.16,-910 146.93,-914.79"/>
</g>
<!-- use_sdcard -->
<g id="node10" class="node">
<title>use_sdcard</title>
<ellipse fill="none" stroke="black" cx="190.41" cy="-870.38" rx="53.74" ry="18.38"/>
<text text-anchor="middle" x="190.41" y="-866.08" font-family="Times,serif" font-size="14.00">use_sdcard</text>
</g>
<!-- vm&#45;&#45;use_sdcard -->
<g id="edge9" class="edge">
<title>vm&#45;&#45;use_sdcard</title>
<path fill="none" stroke="black" d="M54.29,-870.38C76.45,-870.38 108.84,-870.38 136.36,-870.38"/>
</g>
<!-- uuid -->
<g id="node11" class="node">
<title>uuid</title>
<ellipse fill="none" stroke="black" cx="190.41" cy="-815.38" rx="28.28" ry="18.38"/>
<text text-anchor="middle" x="190.41" y="-811.08" font-family="Times,serif" font-size="14.00">uuid</text>
</g>
<!-- vm&#45;&#45;uuid -->
<g id="edge10" class="edge">
<title>vm&#45;&#45;uuid</title>
<path fill="none" stroke="black" d="M49.8,-860.02C61.55,-854.66 76.4,-848.24 90,-843.38 114.49,-834.65 143.13,-826.83 163.36,-821.69"/>
</g>
<!-- file_verbosity -->
<g id="node12" class="node">
<title>file_verbosity</title>
<ellipse fill="none" stroke="black" cx="190.41" cy="-760.38" rx="64.35" ry="18.38"/>
<text text-anchor="middle" x="190.41" y="-756.08" font-family="Times,serif" font-size="14.00">file_verbosity</text>
</g>
<!-- vm&#45;&#45;file_verbosity -->
<g id="edge11" class="edge">
<title>vm&#45;&#45;file_verbosity</title>
<path fill="none" stroke="black" d="M36.71,-852.96C46.95,-834.25 65.68,-804.99 90,-788.38 102.88,-779.59 118.49,-773.54 133.48,-769.38"/>
</g>
<!-- verbosity -->
<g id="node13" class="node">
<title>verbosity</title>
<ellipse fill="none" stroke="black" cx="190.41" cy="-705.38" rx="46.85" ry="18.38"/>
<text text-anchor="middle" x="190.41" y="-701.08" font-family="Times,serif" font-size="14.00">verbosity</text>
</g>
<!-- vm&#45;&#45;verbosity -->
<g id="edge12" class="edge">
<title>vm&#45;&#45;verbosity</title>
<path fill="none" stroke="black" d="M31.21,-851.88C37.31,-822.4 53.38,-764.87 90,-733.38 105.09,-720.41 125.78,-713.42 144.38,-709.67"/>
</g>
<!-- Run_file_discovery -->
<g id="node14" class="node">
<title>Run_file_discovery</title>
<ellipse fill="none" stroke="black" cx="190.41" cy="-650.38" rx="86.62" ry="18.38"/>
<text text-anchor="middle" x="190.41" y="-646.08" font-family="Times,serif" font-size="14.00">Run_file_discovery</text>
</g>
<!-- vm&#45;&#45;Run_file_discovery -->
<g id="edge13" class="edge">
<title>vm&#45;&#45;Run_file_discovery</title>
<path fill="none" stroke="black" d="M28.47,-851.54C30.47,-813.25 40.54,-726.01 90,-678.38 98.01,-670.67 107.97,-665.06 118.46,-660.97"/>
</g>
<!-- config -->
<g id="node15" class="node">
<title>config</title>
<ellipse fill="none" stroke="black" cx="190.41" cy="-595.38" rx="35.71" ry="18.38"/>
<text text-anchor="middle" x="190.41" y="-591.08" font-family="Times,serif" font-size="14.00">config</text>
</g>
<!-- vm&#45;&#45;config -->
<g id="edge14" class="edge">
<title>vm&#45;&#45;config</title>
<path fill="none" stroke="black" d="M30.25,-851.82C36.85,-800.18 57.8,-656.52 90,-623.38 106.74,-606.15 133.2,-599.29 154.61,-596.66"/>
</g>
<!-- memory_mb -->
<g id="node16" class="node">
<title>memory_mb</title>
<ellipse fill="none" stroke="black" cx="190.41" cy="-540.38" rx="61.7" ry="18.38"/>
<text text-anchor="middle" x="190.41" y="-536.08" font-family="Times,serif" font-size="14.00">memory_mb</text>
</g>
<!-- vm&#45;&#45;memory_mb -->
<g id="edge15" class="edge">
<title>vm&#45;&#45;memory_mb</title>
<path fill="none" stroke="black" d="M29.34,-851.64C33.95,-792.32 51.08,-610.22 90,-568.38 100.75,-556.83 115.85,-549.91 131.05,-545.81"/>
</g>
<!-- custom_actions -->
<g id="node17" class="node">
<title>custom_actions</title>
<ellipse fill="none" stroke="black" cx="190.41" cy="-485.38" rx="71.24" ry="18.38"/>
<text text-anchor="middle" x="190.41" y="-481.08" font-family="Times,serif" font-size="14.00">custom_actions</text>
</g>
<!-- vm&#45;&#45;custom_actions -->
<g id="edge16" class="edge">
<title>vm&#45;&#45;custom_actions</title>
<path fill="none" stroke="black" d="M28.69,-851.58C31.52,-785.34 44.28,-564.06 90,-513.38 99.07,-503.33 111.43,-496.78 124.36,-492.53"/>
</g>
<!-- security -->
<g id="node31" class="node">
<title>security</title>
<ellipse fill="none" stroke="black" cx="190.41" cy="-430.38" rx="41.54" ry="18.38"/>
<text text-anchor="middle" x="190.41" y="-426.08" font-family="Times,serif" font-size="14.00">security</text>
</g>
<!-- vm&#45;&#45;security -->
<g id="edge31" class="edge">
<title>vm&#45;&#45;security</title>
<path fill="none" stroke="black" d="M28.22,-851.53C29.43,-778.85 37.43,-517.99 90,-458.38 104.59,-441.85 128.11,-434.74 148.61,-431.81"/>
</g>
<!-- kernel -->
<g id="node35" class="node">
<title>kernel</title>
<ellipse fill="none" stroke="black" cx="190.41" cy="-211.38" rx="35.18" ry="18.38"/>
<text text-anchor="middle" x="190.41" y="-207.08" font-family="Times,serif" font-size="14.00">kernel</text>
</g>
<!-- vm&#45;&#45;kernel -->
<g id="edge35" class="edge">
<title>vm&#45;&#45;kernel</title>
<path fill="none" stroke="black" d="M28.19,-851.64C29.33,-787.51 37.09,-571.51 90,-403.38 111.52,-335 156.27,-261.78 177.6,-229.01"/>
</g>
<!-- crosvm -->
<g id="node21" class="node">
<title>crosvm</title>
<ellipse fill="none" stroke="black" cx="426.7" cy="-1393.38" rx="39.95" ry="18.38"/>
<text text-anchor="middle" x="426.7" y="-1389.08" font-family="Times,serif" font-size="14.00">crosvm</text>
</g>
<!-- vm_manager&#45;&#45;crosvm -->
<g id="edge18" class="edge">
<title>vm_manager&#45;&#45;crosvm</title>
<path fill="none" stroke="black" d="M243,-1265.63C258.86,-1269.9 276.02,-1275.69 290.82,-1283.38 339.08,-1308.47 386.15,-1352.66 409.85,-1376.69"/>
</g>
<!-- qemu -->
<g id="node26" class="node">
<title>qemu</title>
<ellipse fill="none" stroke="black" cx="426.7" cy="-1255.38" rx="33.06" ry="18.38"/>
<text text-anchor="middle" x="426.7" y="-1251.08" font-family="Times,serif" font-size="14.00">qemu</text>
</g>
<!-- vm_manager&#45;&#45;qemu -->
<g id="edge24" class="edge">
<title>vm_manager&#45;&#45;qemu</title>
<path fill="none" stroke="black" d="M252.97,-1255.38C297.98,-1255.38 357.24,-1255.38 393.35,-1255.38"/>
</g>
<!-- gem5 -->
<g id="node27" class="node">
<title>gem5</title>
<ellipse fill="none" stroke="black" cx="426.7" cy="-1145.38" rx="33.06" ry="18.38"/>
<text text-anchor="middle" x="426.7" y="-1141.08" font-family="Times,serif" font-size="14.00">gem5</text>
</g>
<!-- vm_manager&#45;&#45;gem5 -->
<g id="edge26" class="edge">
<title>vm_manager&#45;&#45;gem5</title>
<path fill="none" stroke="black" d="M240.87,-1244.29C257.11,-1239.91 275.03,-1234.25 290.82,-1227.38 334.04,-1208.58 380.07,-1178.03 405.62,-1160"/>
</g>
<!-- crosvm_binary_dir -->
<g id="node18" class="node">
<title>crosvm_binary_dir</title>
<ellipse fill="none" stroke="black" cx="658.21" cy="-1530.38" rx="51.09" ry="18.38"/>
<text text-anchor="middle" x="658.21" y="-1526.08" font-family="Times,serif" font-size="14.00">binary_dir</text>
</g>
<!-- qemu_binary_dir -->
<g id="node19" class="node">
<title>qemu_binary_dir</title>
<ellipse fill="none" stroke="black" cx="658.21" cy="-1255.38" rx="51.09" ry="18.38"/>
<text text-anchor="middle" x="658.21" y="-1251.08" font-family="Times,serif" font-size="14.00">binary_dir</text>
</g>
<!-- gem5_binary_dir -->
<g id="node20" class="node">
<title>gem5_binary_dir</title>
<ellipse fill="none" stroke="black" cx="658.21" cy="-1200.38" rx="51.09" ry="18.38"/>
<text text-anchor="middle" x="658.21" y="-1196.08" font-family="Times,serif" font-size="14.00">binary_dir</text>
</g>
<!-- crosvm&#45;&#45;crosvm_binary_dir -->
<g id="edge19" class="edge">
<title>crosvm&#45;&#45;crosvm_binary_dir</title>
<path fill="none" stroke="black" d="M444.02,-1410.23C467.93,-1434.02 514.87,-1477.32 562.58,-1502.38 578.35,-1510.67 596.93,-1516.85 613.43,-1521.26"/>
</g>
<!-- seccomp_policy_dir -->
<g id="node22" class="node">
<title>seccomp_policy_dir</title>
<ellipse fill="none" stroke="black" cx="658.21" cy="-1475.38" rx="89.27" ry="18.38"/>
<text text-anchor="middle" x="658.21" y="-1471.08" font-family="Times,serif" font-size="14.00">seccomp_policy_dir</text>
</g>
<!-- crosvm&#45;&#45;seccomp_policy_dir -->
<g id="edge20" class="edge">
<title>crosvm&#45;&#45;seccomp_policy_dir</title>
<path fill="none" stroke="black" d="M456.61,-1405.87C483.72,-1417.36 525.52,-1434.52 562.58,-1447.38 575.85,-1451.99 590.33,-1456.52 603.88,-1460.55"/>
</g>
<!-- enable_sandbox -->
<g id="node23" class="node">
<title>enable_sandbox</title>
<ellipse fill="none" stroke="black" cx="658.21" cy="-1420.38" rx="72.83" ry="18.38"/>
<text text-anchor="middle" x="658.21" y="-1416.08" font-family="Times,serif" font-size="14.00">enable_sandbox</text>
</g>
<!-- crosvm&#45;&#45;enable_sandbox -->
<g id="edge21" class="edge">
<title>crosvm&#45;&#45;enable_sandbox</title>
<path fill="none" stroke="black" d="M465.85,-1397.87C500.02,-1401.89 550.84,-1407.87 591.53,-1412.66"/>
</g>
<!-- simple_media_device -->
<g id="node24" class="node">
<title>simple_media_device</title>
<ellipse fill="none" stroke="black" cx="658.21" cy="-1365.38" rx="95.64" ry="18.38"/>
<text text-anchor="middle" x="658.21" y="-1361.08" font-family="Times,serif" font-size="14.00">simple_media_device</text>
</g>
<!-- crosvm&#45;&#45;simple_media_device -->
<g id="edge22" class="edge">
<title>crosvm&#45;&#45;simple_media_device</title>
<path fill="none" stroke="black" d="M465.85,-1388.73C495.94,-1385.06 538.94,-1379.81 576.57,-1375.22"/>
</g>
<!-- v4l2_proxy -->
<g id="node25" class="node">
<title>v4l2_proxy</title>
<ellipse fill="none" stroke="black" cx="658.21" cy="-1310.38" rx="55.33" ry="18.38"/>
<text text-anchor="middle" x="658.21" y="-1306.08" font-family="Times,serif" font-size="14.00">v4l2_proxy</text>
</g>
<!-- crosvm&#45;&#45;v4l2_proxy -->
<g id="edge23" class="edge">
<title>crosvm&#45;&#45;v4l2_proxy</title>
<path fill="none" stroke="black" d="M456.32,-1380.74C483.41,-1369.01 525.35,-1351.45 562.58,-1338.38 579.39,-1332.49 598.16,-1326.76 614.53,-1322.04"/>
</g>
<!-- qemu&#45;&#45;qemu_binary_dir -->
<g id="edge25" class="edge">
<title>qemu&#45;&#45;qemu_binary_dir</title>
<path fill="none" stroke="black" d="M460.09,-1255.38C498.28,-1255.38 562.17,-1255.38 606.83,-1255.38"/>
</g>
<!-- gem5&#45;&#45;gem5_binary_dir -->
<g id="edge27" class="edge">
<title>gem5&#45;&#45;gem5_binary_dir</title>
<path fill="none" stroke="black" d="M457.7,-1152.58C497.92,-1162.21 569.52,-1179.37 615.12,-1190.3"/>
</g>
<!-- checkpoint_dir -->
<g id="node28" class="node">
<title>checkpoint_dir</title>
<ellipse fill="none" stroke="black" cx="658.21" cy="-1145.38" rx="68.59" ry="18.38"/>
<text text-anchor="middle" x="658.21" y="-1141.08" font-family="Times,serif" font-size="14.00">checkpoint_dir</text>
</g>
<!-- gem5&#45;&#45;checkpoint_dir -->
<g id="edge28" class="edge">
<title>gem5&#45;&#45;checkpoint_dir</title>
<path fill="none" stroke="black" d="M460.09,-1145.38C493.58,-1145.38 546.84,-1145.38 589.56,-1145.38"/>
</g>
<!-- debug_file -->
<g id="node29" class="node">
<title>debug_file</title>
<ellipse fill="none" stroke="black" cx="658.21" cy="-1090.38" rx="52.15" ry="18.38"/>
<text text-anchor="middle" x="658.21" y="-1086.08" font-family="Times,serif" font-size="14.00">debug_file</text>
</g>
<!-- gem5&#45;&#45;debug_file -->
<g id="edge29" class="edge">
<title>gem5&#45;&#45;debug_file</title>
<path fill="none" stroke="black" d="M457.7,-1138.19C497.68,-1128.61 568.66,-1111.61 614.29,-1100.67"/>
</g>
<!-- debug_flags -->
<g id="node30" class="node">
<title>debug_flags</title>
<ellipse fill="none" stroke="black" cx="658.21" cy="-1035.38" rx="57.98" ry="18.38"/>
<text text-anchor="middle" x="658.21" y="-1031.08" font-family="Times,serif" font-size="14.00">debug_flags</text>
</g>
<!-- gem5&#45;&#45;debug_flags -->
<g id="edge30" class="edge">
<title>gem5&#45;&#45;debug_flags</title>
<path fill="none" stroke="black" d="M447.81,-1130.86C473.41,-1112.93 519.48,-1082.47 562.58,-1063.38 577.93,-1056.58 595.4,-1050.89 611.11,-1046.45"/>
</g>
<!-- guest_enforce_security -->
<g id="node32" class="node">
<title>guest_enforce_security</title>
<ellipse fill="none" stroke="black" cx="426.7" cy="-513.38" rx="99.88" ry="18.38"/>
<text text-anchor="middle" x="426.7" y="-509.08" font-family="Times,serif" font-size="14.00">guest_enforce_security</text>
</g>
<!-- security&#45;&#45;guest_enforce_security -->
<g id="edge32" class="edge">
<title>security&#45;&#45;guest_enforce_security</title>
<path fill="none" stroke="black" d="M228.96,-437.51C248.1,-441.99 271.37,-448.77 290.82,-458.38 308.75,-467.25 308.89,-476.51 326.82,-485.38 337.77,-490.81 349.94,-495.33 361.89,-499.05"/>
</g>
<!-- serial_number -->
<g id="node33" class="node">
<title>serial_number</title>
<ellipse fill="none" stroke="black" cx="426.7" cy="-458.38" rx="66.47" ry="18.38"/>
<text text-anchor="middle" x="426.7" y="-454.08" font-family="Times,serif" font-size="14.00">serial_number</text>
</g>
<!-- security&#45;&#45;serial_number -->
<g id="edge33" class="edge">
<title>security&#45;&#45;serial_number</title>
<path fill="none" stroke="black" d="M230.89,-435.1C267.53,-439.48 322.63,-446.07 364.89,-451.12"/>
</g>
<!-- secure_hals -->
<g id="node34" class="node">
<title>secure_hals</title>
<ellipse fill="none" stroke="black" cx="426.7" cy="-403.38" rx="55.86" ry="18.38"/>
<text text-anchor="middle" x="426.7" y="-399.08" font-family="Times,serif" font-size="14.00">secure_hals</text>
</g>
<!-- security&#45;&#45;secure_hals -->
<g id="edge34" class="edge">
<title>security&#45;&#45;secure_hals</title>
<path fill="none" stroke="black" d="M231.15,-425.8C270.32,-421.29 330.38,-414.37 373.4,-409.41"/>
</g>
<!-- enable_kernel_log -->
<g id="node36" class="node">
<title>enable_kernel_log</title>
<ellipse fill="none" stroke="black" cx="426.7" cy="-348.38" rx="81.85" ry="18.38"/>
<text text-anchor="middle" x="426.7" y="-344.08" font-family="Times,serif" font-size="14.00">enable_kernel_log</text>
</g>
<!-- kernel&#45;&#45;enable_kernel_log -->
<g id="edge36" class="edge">
<title>kernel&#45;&#45;enable_kernel_log</title>
<path fill="none" stroke="black" d="M207.37,-227.91C231.22,-251.69 278.56,-295.45 326.82,-320.38 339.02,-326.69 352.83,-331.74 366.18,-335.71"/>
</g>
<!-- kgdb -->
<g id="node37" class="node">
<title>kgdb</title>
<ellipse fill="none" stroke="black" cx="426.7" cy="-293.38" rx="30.41" ry="18.38"/>
<text text-anchor="middle" x="426.7" y="-289.08" font-family="Times,serif" font-size="14.00">kgdb</text>
</g>
<!-- kernel&#45;&#45;kgdb -->
<g id="edge37" class="edge">
<title>kernel&#45;&#45;kgdb</title>
<path fill="none" stroke="black" d="M218.33,-223.08C245.44,-234.63 288.6,-252.39 326.82,-265.38 350.64,-273.48 378.21,-281.15 398.18,-286.41"/>
</g>
<!-- gdb_port -->
<g id="node38" class="node">
<title>gdb_port</title>
<ellipse fill="none" stroke="black" cx="426.7" cy="-238.38" rx="45.79" ry="18.38"/>
<text text-anchor="middle" x="426.7" y="-234.08" font-family="Times,serif" font-size="14.00">gdb_port</text>
</g>
<!-- kernel&#45;&#45;gdb_port -->
<g id="edge38" class="edge">
<title>kernel&#45;&#45;gdb_port</title>
<path fill="none" stroke="black" d="M224.98,-215.25C266.35,-220.02 336.75,-228.13 382.22,-233.37"/>
</g>
<!-- console -->
<g id="node39" class="node">
<title>console</title>
<ellipse fill="none" stroke="black" cx="426.7" cy="-183.38" rx="40.48" ry="18.38"/>
<text text-anchor="middle" x="426.7" y="-179.08" font-family="Times,serif" font-size="14.00">console</text>
</g>
<!-- kernel&#45;&#45;console -->
<g id="edge39" class="edge">
<title>kernel&#45;&#45;console</title>
<path fill="none" stroke="black" d="M224.98,-207.37C267.87,-202.25 341.96,-193.39 387.13,-187.99"/>
</g>
<!-- extra_kernel_cmdline -->
<g id="node40" class="node">
<title>extra_kernel_cmdline</title>
<ellipse fill="none" stroke="black" cx="426.7" cy="-128.38" rx="95.11" ry="18.38"/>
<text text-anchor="middle" x="426.7" y="-124.08" font-family="Times,serif" font-size="14.00">extra_kernel_cmdline</text>
</g>
<!-- kernel&#45;&#45;extra_kernel_cmdline -->
<g id="edge40" class="edge">
<title>kernel&#45;&#45;extra_kernel_cmdline</title>
<path fill="none" stroke="black" d="M218.06,-199.55C245.13,-187.76 288.42,-169.57 326.82,-156.38 340.32,-151.75 355.04,-147.27 368.89,-143.32"/>
</g>
<!-- initramfs_path -->
<g id="node41" class="node">
<title>initramfs_path</title>
<ellipse fill="none" stroke="black" cx="426.7" cy="-73.38" rx="67.53" ry="18.38"/>
<text text-anchor="middle" x="426.7" y="-69.08" font-family="Times,serif" font-size="14.00">initramfs_path</text>
</g>
<!-- kernel&#45;&#45;initramfs_path -->
<g id="edge41" class="edge">
<title>kernel&#45;&#45;initramfs_path</title>
<path fill="none" stroke="black" d="M206.94,-195.1C230.62,-171.18 278.17,-126.66 326.82,-101.38 340.67,-94.19 356.61,-88.64 371.58,-84.45"/>
</g>
<!-- path -->
<g id="node42" class="node">
<title>path</title>
<ellipse fill="none" stroke="black" cx="426.7" cy="-18.38" rx="27.75" ry="18.38"/>
<text text-anchor="middle" x="426.7" y="-14.08" font-family="Times,serif" font-size="14.00">path</text>
</g>
<!-- kernel&#45;&#45;path -->
<g id="edge42" class="edge">
<title>kernel&#45;&#45;path</title>
<path fill="none" stroke="black" d="M201.1,-193.44C220.41,-159.45 266.99,-85.57 326.82,-46.38 348.76,-32.02 378.11,-24.92 399.12,-21.48"/>
</g>
</g>
</svg>
