<?xml version="1.0" encoding="UTF-8" standalone="no"?>
<!DOCTYPE svg PUBLIC "-//W3C//DTD SVG 1.1//EN"
 "http://www.w3.org/Graphics/SVG/1.1/DTD/svg11.dtd">
<!-- Generated by graphviz version 2.43.0 (0)
 -->
<!-- Title: %3 Pages: 1 -->
<svg width="252pt" height="260pt"
 viewBox="0.00 0.00 252.38 260.00" xmlns="http://www.w3.org/2000/svg" xmlns:xlink="http://www.w3.org/1999/xlink">
<g id="graph0" class="graph" transform="scale(1 1) rotate(0) translate(4 256)">
<title>%3</title>
<polygon fill="white" stroke="transparent" points="-4,4 -4,-256 248.38,-256 248.38,4 -4,4"/>
<!-- assemble_cvd -->
<g id="node1" class="node">
<title>assemble_cvd</title>
<g id="a_node1"><a xlink:href="https://cs.android.com/android/platform/superproject/+/master:device/google/cuttlefish/host/commands/assemble_cvd/" xlink:title="assemble_cvd">
<ellipse fill="none" stroke="black" cx="63.19" cy="-18" rx="60.39" ry="18"/>
<text text-anchor="middle" x="63.19" y="-14.3" font-family="Times,serif" font-size="14.00">assemble_cvd</text>
</a>
</g>
</g>
<!-- cvd -->
<g id="node2" class="node">
<title>cvd</title>
<g id="a_node2"><a xlink:href="https://cs.android.com/android/platform/superproject/+/master:device/google/cuttlefish/host/commands/cvd/" xlink:title="cvd">
<ellipse fill="none" stroke="black" cx="95.19" cy="-162" rx="27" ry="18"/>
<text text-anchor="middle" x="95.19" y="-158.3" font-family="Times,serif" font-size="14.00">cvd</text>
</a>
</g>
</g>
<!-- cvd_internal_start -->
<g id="node3" class="node">
<title>cvd_internal_start</title>
<g id="a_node3"><a xlink:href="https://cs.android.com/android/platform/superproject/+/master:device/google/cuttlefish/host/commands/start/" xlink:title="launch_cvd / cvd_internal_start">
<ellipse fill="none" stroke="black" cx="122.19" cy="-90" rx="122.38" ry="18"/>
<text text-anchor="middle" x="122.19" y="-86.3" font-family="Times,serif" font-size="14.00">launch_cvd / cvd_internal_start</text>
</a>
</g>
</g>
<!-- cvd&#45;&gt;cvd_internal_start -->
<g id="edge2" class="edge">
<title>cvd&#45;&gt;cvd_internal_start</title>
<path fill="none" stroke="black" d="M101.59,-144.41C104.62,-136.54 108.33,-126.93 111.76,-118.04"/>
<polygon fill="black" stroke="black" points="115.13,-119.04 115.46,-108.45 108.6,-116.52 115.13,-119.04"/>
</g>
<!-- cvd_internal_start&#45;&gt;assemble_cvd -->
<g id="edge4" class="edge">
<title>cvd_internal_start&#45;&gt;assemble_cvd</title>
<path fill="none" stroke="black" d="M107.91,-72.05C100.73,-63.54 91.9,-53.07 83.99,-43.68"/>
<polygon fill="black" stroke="black" points="86.46,-41.18 77.34,-35.79 81.11,-45.69 86.46,-41.18"/>
</g>
<!-- run_cvd -->
<g id="node4" class="node">
<title>run_cvd</title>
<g id="a_node4"><a xlink:href="https://cs.android.com/android/platform/superproject/+/master:device/google/cuttlefish/host/commands/run_cvd/" xlink:title="run_cvd">
<ellipse fill="none" stroke="black" cx="181.19" cy="-18" rx="39.79" ry="18"/>
<text text-anchor="middle" x="181.19" y="-14.3" font-family="Times,serif" font-size="14.00">run_cvd</text>
</a>
</g>
</g>
<!-- cvd_internal_start&#45;&gt;run_cvd -->
<g id="edge5" class="edge">
<title>cvd_internal_start&#45;&gt;run_cvd</title>
<path fill="none" stroke="black" d="M136.47,-72.05C143.83,-63.33 152.92,-52.54 160.98,-42.98"/>
<polygon fill="black" stroke="black" points="163.68,-45.21 167.44,-35.31 158.32,-40.7 163.68,-45.21"/>
</g>
<!-- user -->
<g id="node5" class="node">
<title>user</title>
<ellipse fill="none" stroke="black" cx="122.19" cy="-234" rx="44.39" ry="18"/>
<text text-anchor="middle" x="122.19" y="-230.3" font-family="Times,serif" font-size="14.00">User CLI</text>
</g>
<!-- user&#45;&gt;cvd -->
<g id="edge1" class="edge">
<title>user&#45;&gt;cvd</title>
<path fill="none" stroke="black" d="M115.65,-216.05C112.57,-208.06 108.82,-198.33 105.37,-189.4"/>
<polygon fill="black" stroke="black" points="108.53,-187.86 101.66,-179.79 102,-190.38 108.53,-187.86"/>
</g>
<!-- user&#45;&gt;cvd_internal_start -->
<g id="edge3" class="edge">
<title>user&#45;&gt;cvd_internal_start</title>
<path fill="none" stroke="black" d="M125.84,-215.91C127.86,-205.57 130.17,-192.09 131.19,-180 132.53,-164.06 132.53,-159.94 131.19,-144 130.47,-135.5 129.12,-126.31 127.68,-118.01"/>
<polygon fill="black" stroke="black" points="131.1,-117.29 125.84,-108.09 124.22,-118.56 131.1,-117.29"/>
</g>
</g>
</svg>
