<?xml version="1.0" encoding="UTF-8" standalone="no"?>
<!DOCTYPE svg PUBLIC "-//W3C//DTD SVG 1.1//EN"
 "http://www.w3.org/Graphics/SVG/1.1/DTD/svg11.dtd">
<!-- Generated by graphviz version 2.43.0 (0)
 -->
<!-- Title: %3 Pages: 1 -->
<svg width="466pt" height="449pt"
 viewBox="0.00 0.00 466.07 449.00" xmlns="http://www.w3.org/2000/svg" xmlns:xlink="http://www.w3.org/1999/xlink">
<g id="graph0" class="graph" transform="scale(1 1) rotate(0) translate(4 445)">
<title>%3</title>
<polygon fill="white" stroke="transparent" points="-4,4 -4,-445 462.07,-445 462.07,4 -4,4"/>
<!-- graphics -->
<g id="node1" class="node">
<title>graphics</title>
<ellipse fill="none" stroke="black" cx="40.3" cy="-261" rx="40.09" ry="18"/>
<text text-anchor="middle" x="40.3" y="-257.3" font-family="Times,serif" font-size="14.00">graphics</text>
</g>
<!-- hwcomposer -->
<g id="node2" class="node">
<title>hwcomposer</title>
<ellipse fill="none" stroke="black" cx="203.69" cy="-423" rx="55.79" ry="18"/>
<text text-anchor="middle" x="203.69" y="-419.3" font-family="Times,serif" font-size="14.00">hwcomposer</text>
</g>
<!-- graphics&#45;&#45;hwcomposer -->
<g id="edge1" class="edge">
<title>graphics&#45;&#45;hwcomposer</title>
<path fill="none" stroke="black" d="M46.57,-279.16C55.91,-308.12 78.08,-364.67 116.59,-396 127.29,-404.7 140.8,-410.61 153.93,-414.62"/>
</g>
<!-- gpu_mode -->
<g id="node3" class="node">
<title>gpu_mode</title>
<ellipse fill="none" stroke="black" cx="203.69" cy="-369" rx="48.19" ry="18"/>
<text text-anchor="middle" x="203.69" y="-365.3" font-family="Times,serif" font-size="14.00">gpu_mode</text>
</g>
<!-- graphics&#45;&#45;gpu_mode -->
<g id="edge2" class="edge">
<title>graphics&#45;&#45;gpu_mode</title>
<path fill="none" stroke="black" d="M53.16,-278.35C66.55,-296.68 89.96,-325.2 116.59,-342 129.97,-350.44 146.2,-356.43 160.94,-360.58"/>
</g>
<!-- record_screen -->
<g id="node4" class="node">
<title>record_screen</title>
<ellipse fill="none" stroke="black" cx="203.69" cy="-315" rx="59.59" ry="18"/>
<text text-anchor="middle" x="203.69" y="-311.3" font-family="Times,serif" font-size="14.00">record_screen</text>
</g>
<!-- graphics&#45;&#45;record_screen -->
<g id="edge3" class="edge">
<title>graphics&#45;&#45;record_screen</title>
<path fill="none" stroke="black" d="M71.97,-272.32C85.59,-277.26 101.85,-283.05 116.59,-288 131,-292.84 146.84,-297.89 160.98,-302.29"/>
</g>
<!-- gpu_capture_binary -->
<g id="node5" class="node">
<title>gpu_capture_binary</title>
<ellipse fill="none" stroke="black" cx="203.69" cy="-261" rx="81.49" ry="18"/>
<text text-anchor="middle" x="203.69" y="-257.3" font-family="Times,serif" font-size="14.00">gpu_capture_binary</text>
</g>
<!-- graphics&#45;&#45;gpu_capture_binary -->
<g id="edge4" class="edge">
<title>graphics&#45;&#45;gpu_capture_binary</title>
<path fill="none" stroke="black" d="M80.78,-261C93.37,-261 107.8,-261 122.22,-261"/>
</g>
<!-- enable_gpu_udmabuf -->
<g id="node6" class="node">
<title>enable_gpu_udmabuf</title>
<ellipse fill="none" stroke="black" cx="203.69" cy="-207" rx="87.18" ry="18"/>
<text text-anchor="middle" x="203.69" y="-203.3" font-family="Times,serif" font-size="14.00">enable_gpu_udmabuf</text>
</g>
<!-- graphics&#45;&#45;enable_gpu_udmabuf -->
<g id="edge5" class="edge">
<title>graphics&#45;&#45;enable_gpu_udmabuf</title>
<path fill="none" stroke="black" d="M71.97,-249.68C85.59,-244.74 101.85,-238.95 116.59,-234 128.62,-229.96 141.66,-225.77 153.86,-221.94"/>
</g>
<!-- enable_gpu_angle -->
<g id="node7" class="node">
<title>enable_gpu_angle</title>
<ellipse fill="none" stroke="black" cx="203.69" cy="-153" rx="74.99" ry="18"/>
<text text-anchor="middle" x="203.69" y="-149.3" font-family="Times,serif" font-size="14.00">enable_gpu_angle</text>
</g>
<!-- graphics&#45;&#45;enable_gpu_angle -->
<g id="edge6" class="edge">
<title>graphics&#45;&#45;enable_gpu_angle</title>
<path fill="none" stroke="black" d="M53.16,-243.65C66.55,-225.32 89.96,-196.8 116.59,-180 126.26,-173.9 137.42,-169.08 148.43,-165.31"/>
</g>
<!-- displays -->
<g id="node8" class="node">
<title>displays</title>
<ellipse fill="none" stroke="black" cx="203.69" cy="-99" rx="39.79" ry="18"/>
<text text-anchor="middle" x="203.69" y="-95.3" font-family="Times,serif" font-size="14.00">displays</text>
</g>
<!-- graphics&#45;&#45;displays -->
<g id="edge7" class="edge">
<title>graphics&#45;&#45;displays</title>
<path fill="none" stroke="black" d="M46.57,-242.84C55.91,-213.88 78.08,-157.33 116.59,-126 130.44,-114.73 149.03,-108.14 165.39,-104.3"/>
</g>
<!-- dpi -->
<g id="node9" class="node">
<title>dpi</title>
<ellipse fill="none" stroke="black" cx="392.42" cy="-180" rx="27" ry="18"/>
<text text-anchor="middle" x="392.42" y="-176.3" font-family="Times,serif" font-size="14.00">dpi</text>
</g>
<!-- displays&#45;&#45;dpi -->
<g id="edge8" class="edge">
<title>displays&#45;&#45;dpi</title>
<path fill="none" stroke="black" d="M239.26,-106.96C255.41,-111.39 274.61,-117.71 290.78,-126 308.58,-135.12 309.42,-143.07 326.78,-153 339.87,-160.49 355.44,-167.06 368.03,-171.84"/>
</g>
<!-- refresh_rate_hz -->
<g id="node10" class="node">
<title>refresh_rate_hz</title>
<ellipse fill="none" stroke="black" cx="392.42" cy="-126" rx="65.79" ry="18"/>
<text text-anchor="middle" x="392.42" y="-122.3" font-family="Times,serif" font-size="14.00">refresh_rate_hz</text>
</g>
<!-- displays&#45;&#45;refresh_rate_hz -->
<g id="edge9" class="edge">
<title>displays&#45;&#45;refresh_rate_hz</title>
<path fill="none" stroke="black" d="M241.58,-104.33C267.94,-108.15 303.92,-113.35 334.01,-117.7"/>
</g>
<!-- x_res -->
<g id="node11" class="node">
<title>x_res</title>
<ellipse fill="none" stroke="black" cx="392.42" cy="-72" rx="29.8" ry="18"/>
<text text-anchor="middle" x="392.42" y="-68.3" font-family="Times,serif" font-size="14.00">x_res</text>
</g>
<!-- displays&#45;&#45;x_res -->
<g id="edge10" class="edge">
<title>displays&#45;&#45;x_res</title>
<path fill="none" stroke="black" d="M241.58,-93.67C277.29,-88.5 330.66,-80.78 363.14,-76.09"/>
</g>
<!-- y_res -->
<g id="node12" class="node">
<title>y_res</title>
<ellipse fill="none" stroke="black" cx="392.42" cy="-18" rx="29.8" ry="18"/>
<text text-anchor="middle" x="392.42" y="-14.3" font-family="Times,serif" font-size="14.00">y_res</text>
</g>
<!-- displays&#45;&#45;y_res -->
<g id="edge11" class="edge">
<title>displays&#45;&#45;y_res</title>
<path fill="none" stroke="black" d="M232.74,-86.39C257.44,-75.34 294.41,-58.91 326.78,-45 340.19,-39.24 355.23,-32.94 367.43,-27.88"/>
</g>
</g>
</svg>
