<?xml version="1.0" encoding="UTF-8" standalone="no"?>
<!DOCTYPE svg PUBLIC "-//W3C//DTD SVG 1.1//EN"
 "http://www.w3.org/Graphics/SVG/1.1/DTD/svg11.dtd">
<!-- Generated by graphviz version 2.43.0 (0)
 -->
<!-- Title: %3 Pages: 1 -->
<svg width="360pt" height="584pt"
 viewBox="0.00 0.00 359.87 584.00" xmlns="http://www.w3.org/2000/svg" xmlns:xlink="http://www.w3.org/1999/xlink">
<g id="graph0" class="graph" transform="scale(1 1) rotate(0) translate(4 580)">
<title>%3</title>
<polygon fill="white" stroke="transparent" points="-4,4 -4,-580 355.87,-580 355.87,4 -4,4"/>
<!-- streaming -->
<g id="node1" class="node">
<title>streaming</title>
<ellipse fill="none" stroke="black" cx="46.15" cy="-288" rx="46.29" ry="18"/>
<text text-anchor="middle" x="46.15" y="-284.3" font-family="Times,serif" font-size="14.00">streaming</text>
</g>
<!-- start -->
<g id="node2" class="node">
<title>start</title>
<ellipse fill="none" stroke="black" cx="240.08" cy="-558" rx="27" ry="18"/>
<text text-anchor="middle" x="240.08" y="-554.3" font-family="Times,serif" font-size="14.00">start</text>
</g>
<!-- streaming&#45;&#45;start -->
<g id="edge1" class="edge">
<title>streaming&#45;&#45;start</title>
<path fill="none" stroke="black" d="M47.55,-306.07C49.58,-351.16 61.36,-469.42 128.29,-531 151.31,-552.18 188.12,-557.5 212.93,-558.47"/>
</g>
<!-- start_sig_server -->
<g id="node3" class="node">
<title>start_sig_server</title>
<ellipse fill="none" stroke="black" cx="240.08" cy="-504" rx="66.09" ry="18"/>
<text text-anchor="middle" x="240.08" y="-500.3" font-family="Times,serif" font-size="14.00">start_sig_server</text>
</g>
<!-- streaming&#45;&#45;start_sig_server -->
<g id="edge2" class="edge">
<title>streaming&#45;&#45;start_sig_server</title>
<path fill="none" stroke="black" d="M49.49,-305.96C55.39,-343.69 74.45,-431.45 128.29,-477 141.74,-488.38 159.23,-495.11 176.33,-499.05"/>
</g>
<!-- verify_sig_server_certificate -->
<g id="node4" class="node">
<title>verify_sig_server_certificate</title>
<ellipse fill="none" stroke="black" cx="240.08" cy="-450" rx="111.58" ry="18"/>
<text text-anchor="middle" x="240.08" y="-446.3" font-family="Times,serif" font-size="14.00">verify_sig_server_certificate</text>
</g>
<!-- streaming&#45;&#45;verify_sig_server_certificate -->
<g id="edge3" class="edge">
<title>streaming&#45;&#45;verify_sig_server_certificate</title>
<path fill="none" stroke="black" d="M52.84,-306C63.05,-335.25 87.32,-392.86 128.29,-423 136.9,-429.34 146.81,-434.2 157.09,-437.93"/>
</g>
<!-- assets_dir -->
<g id="node5" class="node">
<title>assets_dir</title>
<ellipse fill="none" stroke="black" cx="240.08" cy="-396" rx="45.49" ry="18"/>
<text text-anchor="middle" x="240.08" y="-392.3" font-family="Times,serif" font-size="14.00">assets_dir</text>
</g>
<!-- streaming&#45;&#45;assets_dir -->
<g id="edge4" class="edge">
<title>streaming&#45;&#45;assets_dir</title>
<path fill="none" stroke="black" d="M59.76,-305.33C74.22,-323.92 99.66,-352.92 128.29,-369 149,-380.63 174.64,-387.29 196.04,-391.09"/>
</g>
<!-- certs_dir -->
<g id="node6" class="node">
<title>certs_dir</title>
<ellipse fill="none" stroke="black" cx="240.08" cy="-342" rx="41.69" ry="18"/>
<text text-anchor="middle" x="240.08" y="-338.3" font-family="Times,serif" font-size="14.00">certs_dir</text>
</g>
<!-- streaming&#45;&#45;certs_dir -->
<g id="edge5" class="edge">
<title>streaming&#45;&#45;certs_dir</title>
<path fill="none" stroke="black" d="M80.91,-299.92C95.41,-304.86 112.6,-310.48 128.29,-315 152.93,-322.09 180.99,-328.91 202.71,-333.93"/>
</g>
<!-- sig_server_addr -->
<g id="node7" class="node">
<title>sig_server_addr</title>
<ellipse fill="none" stroke="black" cx="240.08" cy="-288" rx="66.89" ry="18"/>
<text text-anchor="middle" x="240.08" y="-284.3" font-family="Times,serif" font-size="14.00">sig_server_addr</text>
</g>
<!-- streaming&#45;&#45;sig_server_addr -->
<g id="edge6" class="edge">
<title>streaming&#45;&#45;sig_server_addr</title>
<path fill="none" stroke="black" d="M92.63,-288C116.58,-288 146.38,-288 172.84,-288"/>
</g>
<!-- sig_server_path -->
<g id="node8" class="node">
<title>sig_server_path</title>
<ellipse fill="none" stroke="black" cx="240.08" cy="-234" rx="66.09" ry="18"/>
<text text-anchor="middle" x="240.08" y="-230.3" font-family="Times,serif" font-size="14.00">sig_server_path</text>
</g>
<!-- streaming&#45;&#45;sig_server_path -->
<g id="edge7" class="edge">
<title>streaming&#45;&#45;sig_server_path</title>
<path fill="none" stroke="black" d="M80.91,-276.08C95.41,-271.14 112.6,-265.52 128.29,-261 147.89,-255.36 169.65,-249.89 188.66,-245.36"/>
</g>
<!-- sig_server_port -->
<g id="node9" class="node">
<title>sig_server_port</title>
<ellipse fill="none" stroke="black" cx="240.08" cy="-180" rx="65.79" ry="18"/>
<text text-anchor="middle" x="240.08" y="-176.3" font-family="Times,serif" font-size="14.00">sig_server_port</text>
</g>
<!-- streaming&#45;&#45;sig_server_port -->
<g id="edge8" class="edge">
<title>streaming&#45;&#45;sig_server_port</title>
<path fill="none" stroke="black" d="M59.76,-270.67C74.22,-252.08 99.66,-223.08 128.29,-207 144.34,-197.98 163.36,-191.95 181.06,-187.93"/>
</g>
<!-- sig_server_secure -->
<g id="node10" class="node">
<title>sig_server_secure</title>
<ellipse fill="none" stroke="black" cx="240.08" cy="-126" rx="73.39" ry="18"/>
<text text-anchor="middle" x="240.08" y="-122.3" font-family="Times,serif" font-size="14.00">sig_server_secure</text>
</g>
<!-- streaming&#45;&#45;sig_server_secure -->
<g id="edge9" class="edge">
<title>streaming&#45;&#45;sig_server_secure</title>
<path fill="none" stroke="black" d="M52.84,-270C63.05,-240.75 87.32,-183.14 128.29,-153 141.21,-143.5 157.04,-137.3 172.66,-133.28"/>
</g>
<!-- tcp_port_range -->
<g id="node11" class="node">
<title>tcp_port_range</title>
<ellipse fill="none" stroke="black" cx="240.08" cy="-72" rx="63.89" ry="18"/>
<text text-anchor="middle" x="240.08" y="-68.3" font-family="Times,serif" font-size="14.00">tcp_port_range</text>
</g>
<!-- streaming&#45;&#45;tcp_port_range -->
<g id="edge10" class="edge">
<title>streaming&#45;&#45;tcp_port_range</title>
<path fill="none" stroke="black" d="M49.49,-270.04C55.39,-232.31 74.45,-144.55 128.29,-99 142.27,-87.17 160.61,-80.37 178.34,-76.5"/>
</g>
<!-- udp_port_range -->
<g id="node12" class="node">
<title>udp_port_range</title>
<ellipse fill="none" stroke="black" cx="240.08" cy="-18" rx="66.09" ry="18"/>
<text text-anchor="middle" x="240.08" y="-14.3" font-family="Times,serif" font-size="14.00">udp_port_range</text>
</g>
<!-- streaming&#45;&#45;udp_port_range -->
<g id="edge11" class="edge">
<title>streaming&#45;&#45;udp_port_range</title>
<path fill="none" stroke="black" d="M47.55,-269.93C49.58,-224.84 61.36,-106.58 128.29,-45 141.19,-33.14 158.41,-26.25 175.42,-22.32"/>
</g>
</g>
</svg>
