<?xml version="1.0" encoding="UTF-8" standalone="no"?>
<!DOCTYPE svg PUBLIC "-//W3C//DTD SVG 1.1//EN"
 "http://www.w3.org/Graphics/SVG/1.1/DTD/svg11.dtd">
<!-- Generated by graphviz version 2.43.0 (0)
 -->
<!-- Title: %3 Pages: 1 -->
<svg width="372pt" height="962pt"
 viewBox="0.00 0.00 371.88 962.00" xmlns="http://www.w3.org/2000/svg" xmlns:xlink="http://www.w3.org/1999/xlink">
<g id="graph0" class="graph" transform="scale(1 1) rotate(0) translate(4 958)">
<title>%3</title>
<polygon fill="white" stroke="transparent" points="-4,4 -4,-958 367.88,-958 367.88,4 -4,4"/>
<!-- disk -->
<g id="node1" class="node">
<title>disk</title>
<ellipse fill="none" stroke="black" cx="27" cy="-396" rx="27" ry="18"/>
<text text-anchor="middle" x="27" y="-392.3" font-family="Times,serif" font-size="14.00">disk</text>
</g>
<!-- bootloader -->
<g id="node2" class="node">
<title>bootloader</title>
<ellipse fill="none" stroke="black" cx="138.1" cy="-855" rx="48.19" ry="18"/>
<text text-anchor="middle" x="138.1" y="-851.3" font-family="Times,serif" font-size="14.00">bootloader</text>
</g>
<!-- disk&#45;&#45;bootloader -->
<g id="edge1" class="edge">
<title>disk&#45;&#45;bootloader</title>
<path fill="none" stroke="black" d="M31.95,-413.72C41.6,-456.91 67.27,-571.05 90,-666 105.08,-728.98 123.95,-803.49 132.5,-837.05"/>
</g>
<!-- boot -->
<g id="node6" class="node">
<title>boot</title>
<ellipse fill="none" stroke="black" cx="138.1" cy="-639" rx="27" ry="18"/>
<text text-anchor="middle" x="138.1" y="-635.3" font-family="Times,serif" font-size="14.00">boot</text>
</g>
<!-- disk&#45;&#45;boot -->
<g id="edge5" class="edge">
<title>disk&#45;&#45;boot</title>
<path fill="none" stroke="black" d="M35.67,-413.09C55.7,-457.7 109.41,-577.34 129.43,-621.93"/>
</g>
<!-- data -->
<g id="node12" class="node">
<title>data</title>
<ellipse fill="none" stroke="black" cx="138.1" cy="-450" rx="27" ry="18"/>
<text text-anchor="middle" x="138.1" y="-446.3" font-family="Times,serif" font-size="14.00">data</text>
</g>
<!-- disk&#45;&#45;data -->
<g id="edge11" class="edge">
<title>disk&#45;&#45;data</title>
<path fill="none" stroke="black" d="M49.03,-406.41C68.23,-415.91 96.46,-429.89 115.75,-439.44"/>
</g>
<!-- metadata -->
<g id="node15" class="node">
<title>metadata</title>
<ellipse fill="none" stroke="black" cx="138.1" cy="-396" rx="42.79" ry="18"/>
<text text-anchor="middle" x="138.1" y="-392.3" font-family="Times,serif" font-size="14.00">metadata</text>
</g>
<!-- disk&#45;&#45;metadata -->
<g id="edge14" class="edge">
<title>disk&#45;&#45;metadata</title>
<path fill="none" stroke="black" d="M54.13,-396C66.36,-396 81.23,-396 94.99,-396"/>
</g>
<!-- misc -->
<g id="node17" class="node">
<title>misc</title>
<ellipse fill="none" stroke="black" cx="138.1" cy="-342" rx="27.9" ry="18"/>
<text text-anchor="middle" x="138.1" y="-338.3" font-family="Times,serif" font-size="14.00">misc</text>
</g>
<!-- disk&#45;&#45;misc -->
<g id="edge16" class="edge">
<title>disk&#45;&#45;misc</title>
<path fill="none" stroke="black" d="M49.03,-385.59C68.11,-376.15 96.1,-362.29 115.38,-352.75"/>
</g>
<!-- otheros -->
<g id="node19" class="node">
<title>otheros</title>
<ellipse fill="none" stroke="black" cx="138.1" cy="-234" rx="36.29" ry="18"/>
<text text-anchor="middle" x="138.1" y="-230.3" font-family="Times,serif" font-size="14.00">otheros</text>
</g>
<!-- disk&#45;&#45;otheros -->
<g id="edge18" class="edge">
<title>disk&#45;&#45;otheros</title>
<path fill="none" stroke="black" d="M39.06,-379.58C59.86,-348.69 104.61,-282.24 125.68,-250.95"/>
</g>
<!-- super -->
<g id="node24" class="node">
<title>super</title>
<ellipse fill="none" stroke="black" cx="138.1" cy="-72" rx="29.8" ry="18"/>
<text text-anchor="middle" x="138.1" y="-68.3" font-family="Times,serif" font-size="14.00">super</text>
</g>
<!-- disk&#45;&#45;super -->
<g id="edge23" class="edge">
<title>disk&#45;&#45;super</title>
<path fill="none" stroke="black" d="M33.62,-378.51C44.37,-345.1 68.69,-269.97 90,-207 104.24,-164.91 121.59,-115.68 130.74,-89.87"/>
</g>
<!-- boot_slot -->
<g id="node3" class="node">
<title>boot_slot</title>
<ellipse fill="none" stroke="black" cx="293.04" cy="-936" rx="43.59" ry="18"/>
<text text-anchor="middle" x="293.04" y="-932.3" font-family="Times,serif" font-size="14.00">boot_slot</text>
</g>
<!-- bootloader&#45;&#45;boot_slot -->
<g id="edge2" class="edge">
<title>bootloader&#45;&#45;boot_slot</title>
<path fill="none" stroke="black" d="M160.91,-870.97C177.25,-882.48 200.44,-897.88 222.19,-909 233.77,-914.92 246.96,-920.33 258.73,-924.73"/>
</g>
<!-- build -->
<g id="node4" class="node">
<title>build</title>
<ellipse fill="none" stroke="black" cx="293.04" cy="-882" rx="28.7" ry="18"/>
<text text-anchor="middle" x="293.04" y="-878.3" font-family="Times,serif" font-size="14.00">build</text>
</g>
<!-- bootloader&#45;&#45;build -->
<g id="edge3" class="edge">
<title>bootloader&#45;&#45;build</title>
<path fill="none" stroke="black" d="M182.1,-862.59C208.79,-867.3 242.24,-873.21 265.19,-877.26"/>
</g>
<!-- pause -->
<g id="node5" class="node">
<title>pause</title>
<ellipse fill="none" stroke="black" cx="293.04" cy="-828" rx="30.59" ry="18"/>
<text text-anchor="middle" x="293.04" y="-824.3" font-family="Times,serif" font-size="14.00">pause</text>
</g>
<!-- bootloader&#45;&#45;pause -->
<g id="edge4" class="edge">
<title>bootloader&#45;&#45;pause</title>
<path fill="none" stroke="black" d="M182.1,-847.41C208.08,-842.82 240.47,-837.1 263.35,-833.06"/>
</g>
<!-- boot_build -->
<g id="node7" class="node">
<title>boot_build</title>
<ellipse fill="none" stroke="black" cx="293.04" cy="-774" rx="28.7" ry="18"/>
<text text-anchor="middle" x="293.04" y="-770.3" font-family="Times,serif" font-size="14.00">build</text>
</g>
<!-- boot&#45;&#45;boot_build -->
<g id="edge6" class="edge">
<title>boot&#45;&#45;boot_build</title>
<path fill="none" stroke="black" d="M148.14,-655.95C161.47,-679.42 188.46,-721.79 222.19,-747 235.21,-756.73 252.16,-763.4 266.11,-767.67"/>
</g>
<!-- kernel -->
<g id="node8" class="node">
<title>kernel</title>
<ellipse fill="none" stroke="black" cx="293.04" cy="-720" rx="32.49" ry="18"/>
<text text-anchor="middle" x="293.04" y="-716.3" font-family="Times,serif" font-size="14.00">kernel</text>
</g>
<!-- boot&#45;&#45;kernel -->
<g id="edge7" class="edge">
<title>boot&#45;&#45;kernel</title>
<path fill="none" stroke="black" d="M156.92,-652.14C173.32,-663.85 198.6,-680.94 222.19,-693 235.73,-699.92 251.49,-706.16 264.6,-710.89"/>
</g>
<!-- initramfs -->
<g id="node9" class="node">
<title>initramfs</title>
<ellipse fill="none" stroke="black" cx="293.04" cy="-666" rx="42.79" ry="18"/>
<text text-anchor="middle" x="293.04" y="-662.3" font-family="Times,serif" font-size="14.00">initramfs</text>
</g>
<!-- boot&#45;&#45;initramfs -->
<g id="edge8" class="edge">
<title>boot&#45;&#45;initramfs</title>
<path fill="none" stroke="black" d="M164.35,-643.46C188.53,-647.73 225.35,-654.23 253.25,-659.15"/>
</g>
<!-- extra_cmdline -->
<g id="node10" class="node">
<title>extra_cmdline</title>
<ellipse fill="none" stroke="black" cx="293.04" cy="-612" rx="61.99" ry="18"/>
<text text-anchor="middle" x="293.04" y="-608.3" font-family="Times,serif" font-size="14.00">extra_cmdline</text>
</g>
<!-- boot&#45;&#45;extra_cmdline -->
<g id="edge9" class="edge">
<title>boot&#45;&#45;extra_cmdline</title>
<path fill="none" stroke="black" d="M164.35,-634.54C184.8,-630.93 214.29,-625.73 239.77,-621.23"/>
</g>
<!-- extra_bootconfig -->
<g id="node11" class="node">
<title>extra_bootconfig</title>
<ellipse fill="none" stroke="black" cx="293.04" cy="-558" rx="70.69" ry="18"/>
<text text-anchor="middle" x="293.04" y="-554.3" font-family="Times,serif" font-size="14.00">extra_bootconfig</text>
</g>
<!-- boot&#45;&#45;extra_bootconfig -->
<g id="edge10" class="edge">
<title>boot&#45;&#45;extra_bootconfig</title>
<path fill="none" stroke="black" d="M156.92,-625.86C173.32,-614.15 198.6,-597.06 222.19,-585 231.1,-580.44 240.97,-576.19 250.42,-572.46"/>
</g>
<!-- format -->
<g id="node13" class="node">
<title>format</title>
<ellipse fill="none" stroke="black" cx="293.04" cy="-504" rx="34.39" ry="18"/>
<text text-anchor="middle" x="293.04" y="-500.3" font-family="Times,serif" font-size="14.00">format</text>
</g>
<!-- data&#45;&#45;format -->
<g id="edge12" class="edge">
<title>data&#45;&#45;format</title>
<path fill="none" stroke="black" d="M162.32,-458.2C189.65,-467.85 234.98,-483.85 264.17,-494.16"/>
</g>
<!-- size -->
<g id="node14" class="node">
<title>size</title>
<ellipse fill="none" stroke="black" cx="293.04" cy="-450" rx="27" ry="18"/>
<text text-anchor="middle" x="293.04" y="-446.3" font-family="Times,serif" font-size="14.00">size</text>
</g>
<!-- data&#45;&#45;size -->
<g id="edge13" class="edge">
<title>data&#45;&#45;size</title>
<path fill="none" stroke="black" d="M165.39,-450C193.49,-450 237.77,-450 265.83,-450"/>
</g>
<!-- metadata_size -->
<g id="node16" class="node">
<title>metadata_size</title>
<ellipse fill="none" stroke="black" cx="293.04" cy="-396" rx="27" ry="18"/>
<text text-anchor="middle" x="293.04" y="-392.3" font-family="Times,serif" font-size="14.00">size</text>
</g>
<!-- metadata&#45;&#45;metadata_size -->
<g id="edge15" class="edge">
<title>metadata&#45;&#45;metadata_size</title>
<path fill="none" stroke="black" d="M181.29,-396C208.35,-396 242.62,-396 265.82,-396"/>
</g>
<!-- misc_size -->
<g id="node18" class="node">
<title>misc_size</title>
<ellipse fill="none" stroke="black" cx="293.04" cy="-342" rx="27" ry="18"/>
<text text-anchor="middle" x="293.04" y="-338.3" font-family="Times,serif" font-size="14.00">size</text>
</g>
<!-- misc&#45;&#45;misc_size -->
<g id="edge17" class="edge">
<title>misc&#45;&#45;misc_size</title>
<path fill="none" stroke="black" d="M166.09,-342C194.21,-342 237.99,-342 265.83,-342"/>
</g>
<!-- esp_image -->
<g id="node20" class="node">
<title>esp_image</title>
<ellipse fill="none" stroke="black" cx="293.04" cy="-288" rx="48.99" ry="18"/>
<text text-anchor="middle" x="293.04" y="-284.3" font-family="Times,serif" font-size="14.00">esp_image</text>
</g>
<!-- otheros&#45;&#45;esp_image -->
<g id="edge19" class="edge">
<title>otheros&#45;&#45;esp_image</title>
<path fill="none" stroke="black" d="M168.22,-244.28C193.53,-253.22 230.24,-266.18 257.12,-275.67"/>
</g>
<!-- initramfs_path -->
<g id="node21" class="node">
<title>initramfs_path</title>
<ellipse fill="none" stroke="black" cx="293.04" cy="-234" rx="62.29" ry="18"/>
<text text-anchor="middle" x="293.04" y="-230.3" font-family="Times,serif" font-size="14.00">initramfs_path</text>
</g>
<!-- otheros&#45;&#45;initramfs_path -->
<g id="edge20" class="edge">
<title>otheros&#45;&#45;initramfs_path</title>
<path fill="none" stroke="black" d="M174.57,-234C191.16,-234 211.4,-234 230.38,-234"/>
</g>
<!-- kernel_path -->
<g id="node22" class="node">
<title>kernel_path</title>
<ellipse fill="none" stroke="black" cx="293.04" cy="-180" rx="51.99" ry="18"/>
<text text-anchor="middle" x="293.04" y="-176.3" font-family="Times,serif" font-size="14.00">kernel_path</text>
</g>
<!-- otheros&#45;&#45;kernel_path -->
<g id="edge21" class="edge">
<title>otheros&#45;&#45;kernel_path</title>
<path fill="none" stroke="black" d="M168.22,-223.72C193.18,-214.9 229.24,-202.17 256.01,-192.72"/>
</g>
<!-- root_image -->
<g id="node23" class="node">
<title>root_image</title>
<ellipse fill="none" stroke="black" cx="293.04" cy="-126" rx="51.19" ry="18"/>
<text text-anchor="middle" x="293.04" y="-122.3" font-family="Times,serif" font-size="14.00">root_image</text>
</g>
<!-- otheros&#45;&#45;root_image -->
<g id="edge22" class="edge">
<title>otheros&#45;&#45;root_image</title>
<path fill="none" stroke="black" d="M152.53,-217.38C167.79,-199.42 194.22,-170.96 222.19,-153 231.82,-146.82 243.08,-141.7 253.71,-137.64"/>
</g>
<!-- super_build -->
<g id="node25" class="node">
<title>super_build</title>
<ellipse fill="none" stroke="black" cx="293.04" cy="-72" rx="28.7" ry="18"/>
<text text-anchor="middle" x="293.04" y="-68.3" font-family="Times,serif" font-size="14.00">build</text>
</g>
<!-- super&#45;&#45;super_build -->
<g id="edge25" class="edge">
<title>super&#45;&#45;super_build</title>
<path fill="none" stroke="black" d="M168.22,-72C195.87,-72 237.13,-72 264.31,-72"/>
</g>
<!-- system -->
<g id="node26" class="node">
<title>system</title>
<ellipse fill="none" stroke="black" cx="293.04" cy="-18" rx="36" ry="18"/>
<text text-anchor="middle" x="293.04" y="-14.3" font-family="Times,serif" font-size="14.00">system</text>
</g>
<!-- super&#45;&#45;system -->
<g id="edge24" class="edge">
<title>super&#45;&#45;system</title>
<path fill="none" stroke="black" d="M164.35,-63.08C191.58,-53.47 234.86,-38.19 263.36,-28.13"/>
</g>
</g>
</svg>
